<svg width="596" height="500" viewBox="0 0 596 500" fill="none" xmlns="http://www.w3.org/2000/svg">
<path d="M93.6724 269.569L90.1365 270.391L87.6895 262.255L92.2797 261.188L93.6724 269.569Z" fill="#494759"/>
<path opacity="0.27" d="M91.8319 269.997L93.6717 269.569L92.2789 261.188L88.4952 262.067L91.8319 269.997Z" fill="#494759"/>
<path d="M93.4152 260.924L86.5516 262.519L79.2405 235.639L88.1217 233.575L93.4152 260.924Z" fill="#353441"/>
<path d="M89.9336 242.934L89.7934 242.205L81.5474 244.122L81.7429 244.838L89.9336 242.934Z" fill="#B3160D"/>
<path opacity="0.25" d="M79.7354 237.459L85.63 259.13C90.3853 256.18 89.0067 244.076 86.8512 240.78C85.1695 238.206 81.3366 237.601 79.7354 237.459Z" fill="#6F6E8A"/>
<path d="M83.9687 236.26C87.8991 235.346 90.3446 231.419 89.431 227.489C88.5173 223.559 84.5905 221.113 80.6601 222.027C76.7297 222.94 74.2841 226.867 75.1978 230.798C76.1114 234.728 80.0383 237.174 83.9687 236.26Z" fill="#292929"/>
<path d="M82.2636 223.086C83.4075 224.069 83.0027 226.415 81.3612 228.323C79.7188 230.233 77.4608 230.983 76.3182 230C75.1743 229.017 75.5791 226.671 77.2206 224.763C78.8631 222.853 81.1211 222.103 82.2636 223.086Z" fill="#3D3D3D"/>
<path opacity="0.4" d="M52.6406 499.465C24.0964 499.465 0.956741 486.105 0.956741 469.624C0.956741 453.143 24.0964 439.782 52.6406 439.782C81.1849 439.782 104.325 453.143 104.325 469.624C104.325 486.105 81.1849 499.465 52.6406 499.465Z" fill="#D6D8E5"/>
<path d="M55.0104 173.581C52.6994 169.872 35.0527 167.431 29.2455 182.387C27.0411 188.052 27.3848 202.534 25.5479 211.648C23.7109 220.762 19.3614 225.87 17.8089 233.301C16.2564 240.731 18.7925 253.081 36.5933 255.261C54.3941 257.442 68.0825 251.196 72.2898 245.519C76.497 239.843 76.58 227.742 72.2068 221.307C67.8336 214.872 64.5271 209.562 64.6337 201.16L55.0104 173.581Z" fill="#623A17"/>
<path d="M76.1534 236.11C76.1534 236.11 80.3369 265.62 72.432 286.596C64.5272 307.573 66.7197 281.192 66.7197 281.192L68.6159 274.923C68.6159 274.923 70.204 250.793 69.5521 244.88C68.9003 238.966 69.0544 233.881 68.6159 233.407C68.1774 232.933 70.1921 231.997 70.9862 231.879C71.7802 231.76 76.1534 236.11 76.1534 236.11Z" fill="#B26949"/>
<path d="M43.3601 170.998C43.3601 170.998 56.6455 167.17 64.6926 174.352C72.0523 180.918 71.436 189.853 70.3694 194.049C69.3028 198.244 67.1458 203.968 63.8156 204.288C60.4853 204.608 43.3601 170.998 43.3601 170.998Z" fill="#623A17"/>
<path d="M38.3122 207.24C38.3122 207.24 39.1892 222.054 38.9166 223.144C38.644 224.234 33.0976 225.277 31.545 226.569C29.9925 227.861 39.604 242.888 44.4867 245.117C49.3695 247.345 64.5038 241.656 65.5467 234.13C66.5185 227.197 61.2209 221.817 59.1825 219.909C57.7955 219.786 56.4022 219.751 55.0108 219.802L54.5604 212.62C47.8999 210.546 38.3122 207.24 38.3122 207.24Z" fill="#B26949"/>
<path d="M36.2498 224.578C32.0899 225.218 27.3256 227.446 26.6738 229.722C25.9153 232.376 24.3035 244.903 27.859 254.444C31.4144 263.984 33.8913 270.04 35.9535 274.141C35.9535 274.141 53.9557 281.868 68.4737 272.861C68.4737 272.861 69.4692 262.645 69.5403 257.181C82.9324 245.496 71.4839 231.108 60.1303 219.885C58.7717 219.747 57.4036 219.727 56.0416 219.826C56.0416 219.826 66.1745 231.808 59.1348 238.61C44.0717 234.047 41.0733 227.28 36.2498 224.578Z" fill="#F4F4F4"/>
<path d="M65.9491 188.894C64.4559 179.412 57.5821 172.183 47.7691 172.764C43.8231 172.981 40.0452 174.433 36.9692 176.914C33.8931 179.395 31.6743 182.78 30.6264 186.591C29.5785 190.401 29.7544 194.445 31.1291 198.15C32.5039 201.855 35.0081 205.035 38.288 207.239C38.6273 208.681 39.1365 210.078 39.805 211.399C43.2893 215.452 52.5096 218.012 55.5555 218.06C58.1983 218.06 60.4619 215.63 62.9389 211.542C68.0587 203.02 66.755 193.587 65.9491 188.894Z" fill="#B26949"/>
<path d="M44.7232 172.942C37.8376 174.281 32.1844 176.224 30.3119 182.98C29.032 187.637 27.3609 196.502 28.949 200.247L29.9445 202.949L38.2405 207.239C38.2405 207.239 42.1278 204.004 40.9189 194.499C40.9707 193.226 41.3816 191.993 42.1041 190.944C42.6427 190.054 43.0423 189.086 43.2892 188.076C44.2693 185.504 46.2057 183.41 48.6934 182.233C54.8917 178.749 63.9817 181.759 65.2854 183.015C61.0545 174.364 52.7348 171.377 44.7232 172.942Z" fill="#623A17"/>
<path d="M32.194 459.281C35.6751 461.919 41.0863 460.097 41.3468 460.329C44.8989 463.641 50.1679 466.521 54.099 469.413C56.2658 471.003 59.6403 473.133 59.0365 476.191C57.9353 481.654 48.5458 479.977 45.0055 478.299C41.4652 476.621 38.5761 473.884 35.2252 471.919C32.8571 470.528 30.489 469.811 30.1101 466.996C29.8852 465.296 31.5783 459.214 32.194 459.281Z" fill="#38226D"/>
<path d="M30.1499 465.818C30.6118 468.522 32.9334 469.265 35.3024 470.639C38.7137 472.623 41.7105 475.483 45.2521 477.157C48.5213 478.709 56.6943 480.25 58.9922 476.337C57.7366 481.624 48.5094 479.961 45.0033 478.299C41.4973 476.636 38.5716 473.865 35.2195 471.892C32.8505 470.495 30.4815 469.775 30.1025 466.948C30.0742 466.571 30.0901 466.192 30.1499 465.818Z" fill="#9C73FF"/>
<path d="M56.6587 454.693C59.8423 457.12 64.6473 455.801 64.884 455.979C68.1267 459.027 72.9317 461.643 76.5295 464.292C78.5178 465.756 81.6186 467.718 81.0623 470.522C80.0564 475.555 71.4642 474.003 68.2214 472.473C64.9787 470.944 62.304 468.383 59.2624 466.598C57.0729 465.323 54.919 464.658 54.5284 462.075C54.3745 460.512 56.0906 454.626 56.6587 454.693Z" fill="#38226D"/>
<path d="M54.5975 461C55.0135 463.477 57.1531 464.166 59.3521 465.443C62.4901 467.265 65.2953 469.886 68.5046 471.419C71.5119 472.852 79.0123 474.262 81.1281 470.664C79.9394 475.518 71.5 473.996 68.2788 472.474C65.0576 470.952 62.3356 468.376 59.2808 466.587C57.0818 465.31 54.9184 464.644 54.5262 462.056C54.5049 461.702 54.5289 461.348 54.5975 461Z" fill="#9C73FF"/>
<path d="M75.4573 303.677C73.9273 292.486 69.5268 276.226 69.5268 276.226C65.3123 278.065 60.7497 279.113 56.1001 279.308C48.343 279.672 35.9363 277.485 35.9363 277.485C33.7597 281.013 31.3842 284.431 28.8197 287.725C25.3563 292.199 18.6192 302.02 20.2442 319.175C21.3117 330.387 28.0488 377.986 28.0488 377.986C25.4292 385.994 24.0356 394.305 23.9092 402.675C23.9804 409.601 25.9375 421.366 28.1318 432.247L32.1527 459.266C32.1527 459.266 37.502 462.868 41.3213 460.316L40.835 433.882C41.3094 427.408 42.0211 417.864 42.4362 411.789C43.1597 401.847 45.0694 386.094 45.615 382.151C46.1606 378.207 47.5246 371.336 48.1651 363.626C48.8056 355.915 51.9369 316.733 51.9369 316.733L52.3639 324.068C52.3639 324.068 52.779 335.987 54.6175 350.679C56.4559 365.371 57.0964 371.9 57.0964 371.9C57.0964 371.9 53.9058 377.368 53.5381 381.389C53.2179 384.57 49.3156 409.701 51.6404 422.482L56.3848 454.98C57.5826 455.752 58.9605 456.246 60.4043 456.423C61.8481 456.6 63.3164 456.453 64.6875 455.997L67.4986 423.244C69.3845 410.772 73.4291 384.349 73.9984 380.914C74.805 376.396 75.4692 374.164 76.3706 359.925C77.2721 345.686 76.9993 314.867 75.4573 303.677Z" fill="#B26949"/>
<path d="M35.9349 274.047L25.5913 293.415C25.5913 293.415 9.79112 314.949 26.1607 370.313L23.0884 387.394C23.0884 387.394 54.0719 405.911 74.8067 387.394C74.8067 387.394 81.995 336.228 78.1755 312.64C76.0472 299.071 72.8194 285.671 68.5198 272.556C68.5198 272.556 63.4429 277.782 37.3109 274.335" fill="#630C07"/>
<path d="M60.1419 219.885C60.1419 219.885 68.3667 217.372 77.1012 235.588L73.8302 237.555C73.8302 237.555 65.238 224.554 60.1419 219.885Z" fill="#EDEDED"/>
<path d="M82.6559 242.966C85.9743 242.065 85.4079 242.575 87.7782 242.124C89.141 242.124 89.6408 242.124 90.2927 242.966L91.197 246.095C91.197 247.359 92.8877 251.787 90.7071 252.145C86.2827 253.409 83.7544 256.569 79.3302 257.201C77.4873 257.464 73.6416 263.521 67.9533 269.459C65.3316 272.196 63.5289 273.634 57.2085 276.794C52.5208 279.138 44.5897 277.126 39.1766 269.459C31.7814 259.243 28.7593 253.223 25.4409 244.571C22.1225 235.92 24.5046 234.296 28.9252 234.403C32.7176 234.498 32.6702 230.16 34.8508 236.536C36.676 241.846 42.5898 252.216 48.7644 262.266C51.6324 266.923 55.9444 267.314 59.7367 264.153C66.6891 259.097 73.6416 249.616 74.9057 246.095C76.4917 241.676 78.5303 239.12 79.9621 238.872C80.4453 238.788 80.6151 241.069 81.226 242.124C82.0365 243.524 82.034 243.163 82.6559 242.966Z" fill="#B26949"/>
<path d="M27.4911 252.772C27.4911 252.772 37.624 253.306 43.3838 246.953L37.1381 233.917C37.1381 233.917 34.2582 226.699 27.5029 228.477C20.7476 230.255 20.641 239.76 27.4911 252.772Z" fill="#EDEDED"/>
<path d="M47.2905 118.973C52.4226 118.973 56.583 114.991 56.583 110.079C56.583 105.166 52.4226 101.184 47.2905 101.184C42.1583 101.184 37.9979 105.166 37.9979 110.079C37.9979 114.991 42.1583 118.973 47.2905 118.973Z" fill="#3D348B"/>
<path d="M47.9878 114.412C44.5255 114.412 41.1722 113.649 38.7897 112.315C36.8016 111.206 35.6752 109.807 35.6752 108.482C35.6752 107.158 36.8171 105.758 38.7897 104.65C41.1722 103.315 44.4995 102.553 47.9878 102.553C51.476 102.553 54.7981 103.32 57.1859 104.65C59.174 105.758 60.3004 107.158 60.3004 108.482C60.3004 109.807 59.1636 111.206 57.1859 112.315C54.8189 113.649 51.4449 114.412 47.9878 114.412Z" fill="#B7C0EE"/>
<path d="M47.9878 113.043C44.5255 113.043 41.1722 112.251 38.7897 110.87C36.8016 109.718 35.6752 108.264 35.6752 106.888C35.6752 105.513 36.8171 104.059 38.7897 102.902C41.1722 101.521 44.4995 100.728 47.9878 100.728C51.476 100.728 54.7981 101.521 57.1859 102.902C59.174 104.059 60.3004 105.507 60.3004 106.888C60.3004 108.27 59.1636 109.718 57.1859 110.87C54.8189 112.251 51.4449 113.043 47.9878 113.043Z" fill="#3D348B"/>
<path d="M47.5204 111.675C42.8957 111.675 38.4208 110.603 35.2092 108.775C32.5329 107.236 31.0288 105.301 31.0288 103.462C31.0288 101.624 32.549 99.7098 35.2092 98.1552C38.3941 96.3111 42.8743 95.255 47.5204 95.255C52.1665 95.255 56.6199 96.3272 59.8315 98.1552C62.5078 99.6883 64.0173 101.624 64.0173 103.462C64.0173 105.301 62.4918 107.215 59.8315 108.775C56.6252 110.619 52.1451 111.675 47.5204 111.675Z" fill="#B7C0EE"/>
<path d="M47.5204 108.938C42.8957 108.938 38.4208 107.956 35.2092 106.28C32.5329 104.874 31.0288 103.096 31.0288 101.415C31.0288 99.7344 32.549 97.9752 35.2092 96.5452C38.3941 94.8548 42.8743 93.8867 47.5204 93.8867C52.1665 93.8867 56.6199 94.8695 59.8315 96.5452C62.5078 97.9555 64.0173 99.7295 64.0173 101.415C64.0173 103.1 62.4918 104.855 59.8315 106.28C56.6252 107.97 52.1451 108.938 47.5204 108.938Z" fill="#3D348B"/>
<path d="M47.2906 107.114C41.8087 107.114 36.5036 105.941 32.7276 103.894C29.581 102.184 27.7762 100.034 27.7762 97.9917C27.7762 95.9493 29.581 93.7995 32.7276 92.0943C36.5036 90.047 41.8087 88.8695 47.2906 88.8695C52.7725 88.8695 58.0723 90.047 61.8535 92.0943C65.0001 93.7995 66.8049 95.9493 66.8049 97.9917C66.8049 100.034 65.0001 102.184 61.8535 103.894C58.0775 105.941 52.7673 107.114 47.2906 107.114Z" fill="#B7C0EE"/>
<path d="M47.2906 104.833C41.8087 104.833 36.5036 103.66 32.7276 101.613C29.581 99.9068 27.7762 97.7515 27.7762 95.7086C27.7762 93.6657 29.581 91.5153 32.7276 89.8096C36.5036 87.7618 41.8087 86.5889 47.2906 86.5889C52.7725 86.5889 58.0723 87.7618 61.8535 89.8096C65.0001 91.5153 66.8049 93.6706 66.8049 95.7135C66.8049 97.7564 65.0001 99.9068 61.8535 101.613C58.0775 103.66 52.7673 104.833 47.2906 104.833Z" fill="#3D348B"/>
<path d="M47.0612 102.553C40.8617 102.553 34.862 101.148 30.589 98.686C27.0281 96.6428 24.9889 94.0581 24.9889 91.6062C24.9889 89.1543 27.0383 86.5747 30.589 84.5213C34.8569 82.0643 40.8617 80.6595 47.0561 80.6595C53.2505 80.6595 59.2604 82.0643 63.5284 84.5264C67.0892 86.5696 69.1284 89.1543 69.1284 91.6062C69.1284 94.0581 67.079 96.6377 63.5284 98.686C59.2604 101.148 53.2556 102.553 47.0612 102.553Z" fill="#B7C0EE"/>
<path d="M47.0612 99.8161C40.8617 99.8161 34.862 98.4359 30.589 96.0307C27.0281 94.0305 24.9889 91.5002 24.9889 89.1C24.9889 86.6998 27.0383 84.1695 30.589 82.1643C34.8569 79.759 40.8617 78.3789 47.0561 78.3789C53.2505 78.3789 59.2604 79.759 63.5284 82.1643C67.0892 84.1645 69.1284 86.6998 69.1284 89.1C69.1284 91.5002 67.079 94.0255 63.5284 96.0307C59.2604 98.4509 53.2556 99.8161 47.0612 99.8161Z" fill="#3D348B"/>
<path d="M47.7546 97.9917C61.6114 97.9917 72.8445 91.6613 72.8445 83.8523C72.8445 76.0433 61.6114 69.7129 47.7546 69.7129C33.8979 69.7129 22.6648 76.0433 22.6648 83.8523C22.6648 91.6613 33.8979 97.9917 47.7546 97.9917Z" fill="#FFDF57"/>
<path d="M41.7145 49.1879H39.3914V82.0279H41.7145V49.1879Z" fill="#D8AA44"/>
<path d="M55.6546 49.1879H54.2607V82.0279H55.6546V49.1879Z" fill="#D8AA44"/>
<path d="M47.3774 50.5563L44.3385 47.5656L40.6088 50.2499L39.3914 48.3081L44.5415 44.6736L47.4933 47.576L51.0298 44.6268L55.6533 48.3081L54.2087 50.089L51.025 47.5189L47.3774 50.5563Z" fill="#D8AA44"/>
<path opacity="0.69" d="M72.5509 84.622C72.5922 81.4273 73.1495 71.9957 80.761 58.9979C89.7657 43.6194 80.3791 7.22577 47.5235 7.22577C14.6679 7.22577 5.28127 43.6194 14.286 58.9979C20.8654 70.2355 22.2999 80.2064 22.5992 84.7645" fill="#FFDF57"/>
<path d="M448.452 92.9368L344.244 33.5903C338.415 30.2703 331.172 34.4804 331.172 41.1891V122.61C331.172 125.615 332.715 128.41 335.259 130.01L439.467 195.597C445.29 199.262 452.869 195.077 452.869 188.196V100.536C452.869 97.3929 451.183 94.492 448.452 92.9368Z" fill="#B5EE93"/>
<path d="M391.666 98.0513C391.666 98.0513 391.183 107.519 391.387 108.355C391.591 109.19 395.731 111.957 396.957 112.959C398.182 113.962 390.403 121.536 386.634 123.393C382.866 125.249 370.928 120.571 370.724 114.704C370.52 108.838 372.766 103.918 374.586 103.658C376.405 103.398 391.666 98.0513 391.666 98.0513Z" fill="#EED0B8"/>
<path fill-rule="evenodd" clip-rule="evenodd" d="M365.748 115.614C366.622 122.263 368.501 138.598 365.915 149.365L355.918 143.123L356.201 140.063C357.213 126.3 358.339 111.002 365.284 104.141C366.911 106.177 366.509 108.458 366.082 110.88C365.812 112.41 365.532 113.997 365.748 115.614Z" fill="#EED0B8"/>
<path d="M375.995 121.128C385.575 120.218 392.444 109.989 392.444 109.989C394.787 111.278 397.033 112.736 399.165 114.352C399.62 114.673 400.04 114.952 400.426 115.208C403.093 116.975 404.116 117.653 403.694 123.913C403.419 128.002 402.69 131.904 401.898 136.146C401.301 139.338 400.669 142.723 400.167 146.525C399.501 151.571 396.651 161.608 397.487 168.976C397.492 169.027 397.499 169.078 397.505 169.129L362.955 147.465C362.915 139.397 361.126 135.703 361.05 131.172C360.856 123.726 362.001 116.306 364.429 109.265C365.425 106.083 367.551 103.375 370.407 101.653C373.043 101.059 376.886 104.16 376.886 104.16C372.709 107.557 372.969 118.158 375.995 121.128Z" fill="#3DB5CF"/>
<path d="M370.278 83.9415C371.411 76.5154 376.702 70.9459 384.295 71.4471C387.341 71.6083 390.26 72.7213 392.64 74.6293C395.02 76.5373 396.742 79.144 397.562 82.0822C398.382 85.0204 398.26 88.1419 397.212 91.0068C396.164 93.8717 394.243 96.3355 391.721 98.0511C391.459 99.164 391.066 100.242 390.551 101.263C387.878 104.4 379.765 106.331 377.444 105.997C376.057 105.887 374.735 105.363 373.649 104.492C372.563 103.622 371.764 102.445 371.355 101.114C368.83 95.2848 369.628 87.5617 370.278 83.9415Z" fill="#EED0B8"/>
<path d="M391.666 98.0513L390.979 91.6278C390.979 91.6278 396.27 78.0752 383.831 80.6929C375.662 82.4194 373.62 83.162 371.133 77.6853C368.645 72.2086 377.408 67.2702 387.841 68.6441C391.426 69.0201 394.74 70.7283 397.126 73.4305C399.512 76.1327 400.796 79.6321 400.725 83.2363C400.428 87.2464 399.352 95.4151 391.666 98.0513Z" fill="#431C01"/>
<path fill-rule="evenodd" clip-rule="evenodd" d="M404.053 119.1C404.16 119.123 404.373 119.169 406.165 119.68C407.112 126.902 403.454 155.214 400.168 165.165C400.05 165.531 399.736 165.717 399.404 165.913C399.215 166.026 397.445 169.017 397.445 169.017L387.971 163.187C389.596 161.553 391.356 160.548 392.278 159.02C392.76 155.492 393.075 151.953 393.384 148.483C394.433 136.708 395.412 125.728 402.582 118.659C403.946 119.077 403.946 119.077 404.053 119.1Z" fill="#EED0B8"/>
<path d="M361.851 121.815C359.97 121.73 358.191 120.934 356.875 119.587C357.135 116.06 361.628 102.711 370.688 101.709C368.259 103.452 366.337 105.81 365.118 108.541C363.694 112.876 362.602 117.314 361.851 121.815Z" fill="#3DB5CF"/>
<path d="M407.163 141.706C407.163 141.706 398.159 144.825 391.809 139.589C391.104 138.401 395.522 123.066 395.522 123.066C395.522 123.066 399.235 115.232 405.213 118.351C411.191 121.47 407.163 141.706 407.163 141.706Z" fill="#3DB5CF"/>
<path d="M590.626 344.856L486.418 285.509C480.589 282.189 473.346 286.399 473.346 293.108V374.528C473.346 377.534 474.889 380.328 477.433 381.929L581.64 447.516C587.464 451.181 595.043 446.996 595.043 440.115V352.454C595.043 349.312 593.357 346.411 590.626 344.856Z" fill="#FAE788"/>
<path d="M533.841 349.97C533.841 349.97 533.358 359.438 533.562 360.274C533.767 361.109 537.907 363.876 539.132 364.878C540.357 365.881 532.578 373.455 528.81 375.312C525.041 377.168 513.104 372.49 512.899 366.623C512.695 360.757 514.942 355.837 516.761 355.577C518.58 355.317 533.841 349.97 533.841 349.97Z" fill="#EFC794"/>
<path fill-rule="evenodd" clip-rule="evenodd" d="M507.922 367.533C508.796 374.182 510.675 390.517 508.089 401.284L498.092 395.042L498.375 391.981C499.388 378.219 500.514 362.921 507.458 356.06C509.085 358.096 508.683 360.377 508.256 362.799C507.986 364.329 507.707 365.916 507.922 367.533Z" fill="#EFC794"/>
<path d="M518.17 373.047C527.75 372.137 534.619 361.908 534.619 361.908C536.962 363.197 539.208 364.655 541.339 366.271C541.795 366.592 542.215 366.871 542.601 367.127C545.268 368.893 546.291 369.572 545.869 375.832C545.594 379.921 544.865 383.823 544.073 388.065C543.476 391.257 542.844 394.642 542.342 398.444C541.676 403.49 538.826 413.527 539.661 420.895C539.667 420.946 539.673 420.997 539.68 421.048L505.13 399.384C505.09 391.316 503.3 387.622 503.225 383.091C503.031 375.645 504.176 368.225 506.604 361.184C507.6 358.001 509.726 355.294 512.582 353.572C515.218 352.978 519.061 356.078 519.061 356.078C514.884 359.476 515.144 370.077 518.17 373.047Z" fill="#44AF69"/>
<path d="M512.453 335.86C513.585 328.434 518.877 322.865 526.47 323.366C529.516 323.527 532.435 324.64 534.815 326.548C537.195 328.456 538.917 331.063 539.737 334.001C540.557 336.939 540.434 340.061 539.387 342.926C538.339 345.791 536.418 348.254 533.896 349.97C533.634 351.083 533.241 352.161 532.726 353.182C530.053 356.319 521.94 358.25 519.619 357.916C518.232 357.806 516.909 357.282 515.823 356.411C514.738 355.541 513.939 354.364 513.53 353.033C511.005 347.204 511.803 339.481 512.453 335.86Z" fill="#EFC794"/>
<path d="M532.317 359.082L533.663 347.02C532.161 351.644 536.181 336.962 526.006 332.612C514.138 330.131 512.811 341.668 510.323 336.191C507.835 330.714 520.162 313.475 530.016 320.563C533.601 320.939 536.914 322.647 539.3 325.349C541.686 328.052 543.777 338.085 543.706 341.689C543.409 345.7 542.528 356.614 532.317 359.082Z" fill="#1C1713"/>
<path fill-rule="evenodd" clip-rule="evenodd" d="M546.228 371.019C546.334 371.042 546.548 371.088 548.34 371.599C549.286 378.821 545.629 407.133 542.343 417.084C542.225 417.45 541.911 417.636 541.579 417.832C541.389 417.945 539.62 420.936 539.62 420.936L530.146 415.106C531.77 413.472 533.531 412.467 534.453 410.938C534.934 407.41 535.25 403.872 535.559 400.402C536.608 388.627 537.586 377.647 544.756 370.578C546.121 370.995 546.121 370.995 546.228 371.019Z" fill="#EFC794"/>
<path d="M504.026 373.734C502.145 373.649 500.366 372.852 499.05 371.506C499.31 367.978 503.803 354.63 512.863 353.628C510.434 355.371 508.511 357.729 507.293 360.46C505.869 364.795 504.777 369.233 504.026 373.734Z" fill="#44AF69"/>
<path d="M549.337 393.624C549.337 393.624 540.333 396.743 533.984 391.508C533.279 390.32 537.697 374.985 537.697 374.985C537.697 374.985 541.41 367.15 547.388 370.269C553.366 373.388 549.337 393.624 549.337 393.624Z" fill="#44AF69"/>
<path d="M298.424 228.939L194.217 169.593C188.387 166.273 181.144 170.483 181.144 177.192V258.612C181.144 261.617 182.688 264.412 185.231 266.013L289.439 331.599C295.262 335.265 302.841 331.079 302.841 324.199V236.538C302.841 233.395 301.155 230.494 298.424 228.939Z" fill="#B0E6ED"/>
<path d="M241.638 234.054C241.638 234.054 241.155 243.522 241.359 244.357C241.564 245.193 245.704 247.959 246.929 248.962C248.154 249.964 240.375 257.539 236.607 259.395C232.838 261.252 220.9 256.573 220.696 250.707C220.492 244.84 222.738 239.92 224.558 239.661C226.377 239.401 241.638 234.054 241.638 234.054Z" fill="#623A17"/>
<path fill-rule="evenodd" clip-rule="evenodd" d="M215.719 251.617C216.593 258.265 218.472 274.601 215.886 285.367L205.889 279.126L206.172 276.065C207.185 262.303 208.311 247.004 215.255 240.143C216.882 242.18 216.48 244.46 216.053 246.883C215.784 248.413 215.504 249.999 215.719 251.617Z" fill="#623A17"/>
<path d="M225.967 257.131C235.547 256.221 242.416 245.992 242.416 245.992C244.759 247.281 247.005 248.739 249.136 250.354C249.592 250.676 250.012 250.955 250.398 251.21C253.064 252.977 254.088 253.655 253.666 259.915C253.391 264.005 252.662 267.907 251.869 272.149C251.273 275.341 250.641 278.726 250.139 282.528C249.472 287.573 246.623 297.611 247.458 304.978C247.464 305.03 247.47 305.081 247.477 305.132L212.927 283.468C212.887 275.4 211.097 271.706 211.022 267.174C210.828 259.729 211.973 252.309 214.401 245.268C215.396 242.085 217.523 239.377 220.379 237.656C223.015 237.062 226.858 240.162 226.858 240.162C222.681 243.56 222.941 254.16 225.967 257.131Z" fill="#F57A75"/>
<path d="M220.249 219.944C221.382 212.518 226.673 206.949 234.266 207.45C237.312 207.611 240.231 208.724 242.611 210.632C244.991 212.54 246.713 215.147 247.533 218.085C248.353 221.023 248.231 224.145 247.183 227.009C246.135 229.874 244.214 232.338 241.692 234.054C241.43 235.167 241.037 236.245 240.522 237.265C237.849 240.403 229.736 242.334 227.415 242C226.028 241.89 224.706 241.366 223.62 240.495C222.534 239.624 221.735 238.447 221.326 237.117C218.801 231.288 219.599 223.564 220.249 219.944Z" fill="#623A17"/>
<path d="M241.369 238.965L237.813 229.932C237.813 229.932 246.242 214.078 233.803 216.695C225.635 218.422 220.011 220.709 217.524 215.232C215.036 209.755 227.959 197.559 237.813 204.647C241.399 205.023 244.712 206.731 247.098 209.433C249.484 212.135 252.212 218.192 252.141 221.797C251.844 225.807 249.055 236.329 241.369 238.965Z" fill="#1C1713"/>
<path fill-rule="evenodd" clip-rule="evenodd" d="M254.025 255.102C254.132 255.126 254.345 255.172 256.137 255.683C257.084 262.904 253.426 291.216 250.14 301.167C250.022 301.534 249.708 301.719 249.376 301.916C249.187 302.028 247.417 305.02 247.417 305.02L237.943 299.19C239.568 297.556 241.328 296.55 242.25 295.022C242.732 291.494 243.047 287.955 243.356 284.486C244.405 272.711 245.384 261.731 252.554 254.661C253.918 255.079 253.918 255.079 254.025 255.102Z" fill="#623A17"/>
<path d="M211.822 257.817C209.941 257.732 208.163 256.936 206.847 255.589C207.107 252.062 211.6 238.714 220.659 237.711C218.23 239.455 216.308 241.813 215.09 244.543C213.666 248.879 212.574 253.316 211.822 257.817Z" fill="#F57A75"/>
<path d="M257.134 277.708C257.134 277.708 248.13 280.827 241.781 275.592C241.075 274.403 245.494 259.069 245.494 259.069C245.494 259.069 249.207 251.234 255.185 254.353C261.163 257.472 257.134 277.708 257.134 277.708Z" fill="#F57A75"/>
<path d="M588.44 199.427L484.232 140.081C478.402 136.761 471.16 140.971 471.16 147.679V229.1C471.16 232.105 472.703 234.9 475.247 236.501L579.454 302.087C585.278 305.752 592.857 301.567 592.857 294.686V207.026C592.857 203.883 591.171 200.982 588.44 199.427Z" fill="#F8C79A"/>
<path d="M513.561 185.293C515.319 183.911 531.276 179.747 535.684 185.293C537.359 187.41 537.097 192.816 538.499 196.216C539.901 199.615 540.708 204.817 541.896 207.576C543.084 210.334 541.148 214.953 527.639 215.74C514.131 216.527 503.7 214.224 500.504 212.107C497.308 209.99 498.368 192.952 501.683 190.538C504.998 188.123 512.314 188.442 512.231 185.293H513.561Z" fill="#1B1A19"/>
<path d="M524.164 184.376C524.164 184.376 513.333 181.633 506.771 186.783C504.597 188.538 503.015 190.784 502.197 193.276C501.379 195.768 501.356 198.409 502.132 200.911C503.012 203.923 504.757 208.02 507.484 208.255C510.211 208.491 524.164 184.376 524.164 184.376Z" fill="#1B1A19"/>
<path d="M528.304 210.338C528.304 210.338 527.591 220.94 527.82 221.723C528.049 222.507 532.56 223.257 533.821 224.186C535.083 225.115 527.259 235.863 523.271 237.464C519.283 239.065 506.961 234.978 506.107 229.627C505.317 224.668 509.637 220.805 511.293 219.462C512.424 219.369 513.561 219.343 514.695 219.383L515.065 214.245C520.493 212.7 528.304 210.338 528.304 210.338Z" fill="#94623D"/>
<path d="M505.752 197.194C507.026 190.376 512.582 185.227 520.571 185.641C522.595 185.744 524.575 186.196 526.4 186.972C528.224 187.748 529.857 188.833 531.203 190.164C532.55 191.495 533.585 193.046 534.249 194.729C534.913 196.412 535.192 198.193 535.072 199.971C534.931 202.04 534.247 204.053 533.073 205.851C531.899 207.65 530.267 209.185 528.305 210.337C528.01 211.369 527.582 212.368 527.031 213.315C524.19 216.215 516.659 218.051 514.174 218.084C512.034 218.084 510.173 216.338 508.16 213.416C504.032 207.315 505.089 200.553 505.752 197.194Z" fill="#94623D"/>
<path d="M523.042 185.764C528.649 186.727 533.236 188.115 534.791 192.963C535.835 196.321 537.199 202.647 535.899 205.277L535.096 207.214L528.292 210.293C528.292 210.293 525.119 207.964 526.113 201.169C526.074 200.246 525.743 199.35 525.157 198.583C524.735 197.942 524.417 197.253 524.215 196.534C523.414 194.695 521.841 193.196 519.818 192.347C514.722 189.851 507.344 192 506.312 192.907C507.746 190.211 510.19 188.031 513.236 186.731C516.282 185.43 519.744 185.089 523.042 185.764Z" fill="#1B1A19"/>
<path d="M499.388 251.603C498.293 243.907 497.823 239.371 498.216 230.758L503.632 232.686L502.918 253.9L499.388 251.603Z" fill="#94623D"/>
<path d="M531.147 234.743C535.074 241.946 531.154 248.717 533.586 256.412L529.339 270.42L537.355 275.521L542.181 256.412C541.562 254.263 543.507 235.448 540.258 229.47C537.658 224.668 534.893 223.884 532.001 225.787C529.427 227.455 528.662 230.444 531.147 234.743Z" fill="#94623D"/>
<path d="M545.316 237.855C545.316 237.855 539.455 242.971 532.51 242.333L529.185 232.358C529.185 232.358 527.006 227.141 532.077 224.858C537.148 222.574 542.411 227.589 545.316 237.855Z" fill="#FA3232"/>
<path d="M510.478 219.383C510.478 219.383 503.776 217.592 496.666 230.634L501.767 233.929C501.767 233.929 506.324 222.742 510.478 219.383Z" fill="#FA3232"/>
<path d="M532.487 241.838C531.867 248.285 528.106 265.82 528 269.636L502.495 253.604C496.665 243.402 500.493 227.37 509.782 219.354C510.893 219.276 512.315 219.276 513.426 219.354C513.426 219.354 505.021 227.527 510.755 232.408C523.051 229.117 525.485 224.258 529.422 222.332C532.812 222.791 535.667 223.011 536.202 224.646C536.762 226.549 535.443 234.953 532.487 241.838Z" fill="#FA3232"/>
<path d="M298.144 92.9368L193.936 33.5903C188.106 30.2703 180.864 34.4804 180.864 41.1891V122.61C180.864 125.615 182.407 128.41 184.95 130.01L289.158 195.597C294.982 199.262 302.561 195.077 302.561 188.196V100.536C302.561 97.3929 300.875 94.492 298.144 92.9368Z" fill="#B7BBF5"/>
<path d="M224.373 79.7331C226.259 77.0799 240.645 75.3894 245.373 86.036C247.169 90.0998 246.889 100.478 248.392 107.005C249.896 113.531 253.489 117.214 254.764 122.51C256.038 127.805 253.961 136.672 239.473 138.183C224.985 139.694 213.797 135.272 210.37 131.208C206.942 127.145 206.878 118.502 210.434 113.867C213.989 109.232 216.703 105.448 216.613 99.403L224.373 79.7331Z" fill="#4F2610"/>
<path d="M233.866 77.8861C233.866 77.8861 223.036 75.1433 216.473 80.293C214.3 82.0478 212.718 84.294 211.9 86.7858C211.082 89.2776 211.059 91.9191 211.835 94.4213C212.714 97.4328 214.46 101.53 217.187 101.765C219.914 102 233.866 77.8861 233.866 77.8861Z" fill="#4F2610"/>
<path d="M238.008 103.848C238.008 103.848 237.294 114.449 237.523 115.233C237.753 116.017 242.263 116.767 243.525 117.696C244.786 118.625 236.963 129.372 232.974 130.973C228.986 132.574 216.664 128.488 215.811 123.137C215.021 118.177 219.34 114.315 220.997 112.972C222.128 112.879 223.264 112.852 224.399 112.893L224.768 107.755C230.197 106.21 238.008 103.848 238.008 103.848Z" fill="#FAA86B" fill-opacity="0.98"/>
<path d="M215.454 90.704C216.729 83.8862 222.284 78.7364 230.273 79.1507C232.297 79.2535 234.278 79.7059 236.102 80.482C237.927 81.2581 239.559 82.3427 240.906 83.6736C242.253 85.0046 243.288 86.5559 243.951 88.2387C244.615 89.9214 244.895 91.7027 244.774 93.4805C244.633 95.5499 243.949 97.5627 242.775 99.3612C241.601 101.16 239.97 102.695 238.008 103.847C237.712 104.879 237.285 105.878 236.734 106.825C233.892 109.725 226.362 111.561 223.877 111.594C221.736 111.594 219.876 109.848 217.863 106.926C213.734 100.824 214.792 94.0626 215.454 90.704Z" fill="#ECA570"/>
<path d="M232.745 79.2742C238.351 80.237 242.938 81.6252 244.493 86.4727C245.538 89.8313 246.901 96.1565 245.602 98.7874L244.799 100.724L237.995 103.803C237.995 103.803 234.822 101.474 235.816 94.6788C235.777 93.7555 235.446 92.8599 234.86 92.0927C234.437 91.4523 234.12 90.7626 233.917 90.044C233.117 88.2048 231.543 86.7059 229.521 85.857C224.424 83.3605 217.046 85.5099 216.014 86.4167C217.448 83.7214 219.893 81.5408 222.939 80.2405C225.985 78.9401 229.447 78.599 232.745 79.2742Z" fill="#4F2610"/>
<path d="M209.091 145.113C207.995 137.417 207.525 132.881 207.918 124.268L213.335 126.196L212.621 147.41L209.091 145.113Z" fill="#F6A569"/>
<path d="M240.849 128.253C244.776 135.455 240.856 142.227 243.288 149.922L239.041 163.929L247.057 169.031L251.883 149.922C251.264 147.773 253.209 128.958 249.96 122.98C247.36 118.177 244.595 117.393 241.703 119.297C239.129 120.965 238.364 123.954 240.849 128.253Z" fill="#ECA570"/>
<path d="M255.019 131.365C255.019 131.365 249.157 136.481 242.213 135.843L238.887 125.868C238.887 125.868 236.708 120.651 241.78 118.368C246.851 116.084 252.113 121.099 255.019 131.365Z" fill="#F9CA06"/>
<path d="M220.181 112.893C220.181 112.893 213.479 111.102 206.368 124.144L211.47 127.438C211.47 127.438 216.027 116.252 220.181 112.893Z" fill="#F9CA06"/>
<path d="M242.191 135.348C241.572 141.795 237.81 159.33 237.704 163.146L212.199 147.114C206.369 136.912 210.197 120.879 219.486 112.864C220.597 112.786 222.019 112.786 223.13 112.864C223.13 112.864 214.725 121.037 220.459 125.918C232.755 122.626 235.189 117.768 239.126 115.842C242.516 116.301 245.371 116.521 245.906 118.156C246.466 120.059 245.147 128.463 242.191 135.348Z" fill="#F9CA06"/>
<path d="M446.267 224.122L342.059 164.775C336.229 161.455 328.987 165.666 328.987 172.374V253.795C328.987 256.8 330.53 259.595 333.073 261.196L437.281 326.782C443.104 330.447 450.684 326.262 450.684 319.381V231.721C450.684 228.578 448.997 225.677 446.267 224.122Z" fill="#FFB6B1"/>
<path d="M374.196 210.389C375.878 208.463 388.711 207.236 392.928 214.965C394.531 217.915 394.281 225.449 395.622 230.187C396.963 234.925 400.169 237.599 401.305 241.443C402.442 245.287 400.589 251.724 387.665 252.821C374.741 253.918 364.761 250.708 361.704 247.758C358.646 244.807 358.589 238.533 361.76 235.169C364.932 231.804 367.353 229.057 367.273 224.668L374.196 210.389Z" fill="#E37728"/>
<path d="M381.989 209.071C381.989 209.071 371.158 206.329 364.596 211.478C362.423 213.233 360.84 215.479 360.022 217.971C359.204 220.463 359.182 223.104 359.958 225.607C360.837 228.618 362.583 232.716 365.31 232.951C368.037 233.186 381.989 209.071 381.989 209.071Z" fill="#E37728"/>
<path d="M386.13 235.033C386.13 235.033 385.417 245.635 385.646 246.418C385.875 247.202 390.386 247.952 391.648 248.881C392.909 249.81 385.085 260.558 381.097 262.159C377.109 263.76 364.787 259.673 363.933 254.322C363.143 249.363 367.463 245.5 369.119 244.157C370.25 244.064 371.387 244.038 372.522 244.079L372.891 238.94C378.319 237.395 386.13 235.033 386.13 235.033Z" fill="#E9CBA7"/>
<path d="M363.577 221.889C364.852 215.071 370.407 209.922 378.397 210.336C380.42 210.439 382.401 210.891 384.225 211.667C386.05 212.443 387.682 213.528 389.029 214.859C390.376 216.19 391.411 217.741 392.075 219.424C392.738 221.107 393.018 222.888 392.897 224.666C392.756 226.735 392.072 228.748 390.898 230.546C389.725 232.345 388.093 233.88 386.131 235.032C385.836 236.064 385.408 237.063 384.857 238.01C382.015 240.91 374.485 242.746 372 242.779C369.859 242.779 367.999 241.033 365.986 238.111C361.857 232.01 362.915 225.248 363.577 221.889Z" fill="#E9CBA7"/>
<path d="M380.868 210.46C386.474 211.422 391.062 212.811 392.616 217.658C393.661 221.017 395.024 227.342 393.725 229.973L392.922 231.91L386.118 234.988C386.118 234.988 382.945 232.66 383.939 225.864C383.9 224.941 383.569 224.045 382.983 223.278C382.56 222.638 382.243 221.948 382.04 221.229C381.24 219.39 379.666 217.891 377.644 217.042C372.547 214.546 365.17 216.695 364.137 217.602C365.571 214.907 368.016 212.726 371.062 211.426C374.108 210.126 377.57 209.784 380.868 210.46Z" fill="#E37728"/>
<path d="M357.214 276.298C356.119 268.602 355.649 264.066 356.042 255.453L361.459 257.381L360.744 278.595L357.214 276.298Z" fill="#E9CBA7"/>
<path d="M388.973 259.438C392.9 266.641 388.98 273.412 391.411 281.107L387.164 295.115L395.18 300.216L400.007 281.107C399.388 278.958 401.333 260.143 398.083 254.165C395.484 249.362 392.719 248.579 389.826 250.482C387.253 252.15 386.488 255.139 388.973 259.438Z" fill="#E9CBA7"/>
<path d="M403.142 262.55C403.142 262.55 397.28 267.667 390.336 267.028L387.01 257.054C387.01 257.054 384.831 251.837 389.903 249.553C394.974 247.269 400.237 252.284 403.142 262.55Z" fill="#9AA773"/>
<path d="M368.304 244.078C368.304 244.078 361.602 242.287 354.492 255.33L359.593 258.624C359.593 258.624 364.15 247.437 368.304 244.078Z" fill="#9AA773"/>
<path d="M390.312 266.533C389.693 272.98 385.932 290.515 385.826 294.331L360.321 278.299C354.491 268.097 358.319 252.065 367.608 244.049C368.719 243.971 370.14 243.971 371.251 244.049C371.251 244.049 362.847 252.222 368.58 257.103C380.877 253.812 383.31 248.953 387.248 247.028C390.637 247.487 393.492 247.707 394.027 249.341C394.588 251.244 393.268 259.648 390.312 266.533Z" fill="#9AA773"/>
<path d="M398.108 372.136L408.856 378.356V350.659L398.108 344.456V372.136Z" fill="#6CC68B"/>
<path d="M408.857 350.693L398.109 344.473L406.818 339.445L417.997 345.7L408.857 350.693Z" fill="#44AF69"/>
<path d="M449.668 370.443C449.623 369.136 449.251 367.862 448.587 366.736C447.923 365.611 446.988 364.669 445.867 363.998L433.271 356.723L435.275 347.272V346.564C435.282 345.558 435.142 344.557 434.86 343.592C434.48 342.348 433.132 339.393 432.268 339.998L419.085 347.618C418.29 347.842 417.893 348.758 417.893 350.14V373.311C417.974 374.694 418.377 376.039 419.07 377.239C419.763 378.439 420.727 379.46 421.884 380.222L439.871 390.589C441.461 391.505 442.86 391.159 443.465 389.898L449.461 376.974C449.64 376.494 449.711 375.981 449.668 375.471V370.443Z" fill="#D09E7D"/>
<path d="M436.433 394.39L442.775 390.675L437.004 382.848L436.433 394.39Z" fill="#D09E7D"/>
<path d="M443.62 373.967C443.57 372.662 443.197 371.39 442.533 370.265C441.87 369.14 440.937 368.197 439.819 367.522L427.223 360.266L429.227 350.797V350.106C429.234 349.095 429.094 348.088 428.812 347.117C428.432 345.873 427.085 342.935 426.221 343.523L413.037 351.143C412.242 351.367 411.845 352.3 411.845 353.682V376.766C411.924 378.15 412.326 379.496 413.019 380.697C413.712 381.897 414.677 382.918 415.836 383.678L433.823 394.045C435.413 394.978 436.812 394.632 437.417 393.354L443.413 380.429C443.592 379.95 443.663 379.436 443.62 378.926V373.967Z" fill="#DDB9A1"/>
<path d="M568.799 133.365C568.799 118.463 558.304 100.218 545.381 92.7455C538.484 88.7644 532.31 88.658 528.031 91.6385L520.239 96.0453L523.56 97.3652C522.419 100.198 521.861 103.232 521.921 106.285C521.921 121.188 532.416 139.411 545.339 146.905C547.332 148.088 549.482 148.984 551.725 149.566V154.228L561.774 148.566C566.202 146.032 568.799 140.795 568.799 133.365Z" fill="#DD990E"/>
<path d="M553.333 153.535C562.487 148.25 562.483 131.105 553.324 115.241C544.165 99.3768 529.319 90.8007 520.165 96.0858C511.011 101.371 511.015 118.516 520.174 134.38C529.334 150.244 544.179 158.82 553.333 153.535Z" fill="#F9CB07"/>
<path d="M529.854 117.473C531.158 116.72 531.156 114.278 529.851 112.017C528.546 109.757 526.432 108.534 525.128 109.287C523.825 110.039 523.826 112.482 525.131 114.742C526.437 117.003 528.551 118.225 529.854 117.473Z" fill="#CC8B09"/>
<path d="M548.038 127.946C549.341 127.194 549.34 124.751 548.035 122.491C546.73 120.23 544.615 119.008 543.312 119.76C542.008 120.513 542.01 122.955 543.315 125.216C544.62 127.476 546.734 128.699 548.038 127.946Z" fill="#CC8B09"/>
<path d="M527.499 127.83C527.499 127.83 530.565 136.218 536.739 139.773C542.913 143.328 546.532 138.815 546.532 138.815L527.499 127.83Z" fill="#CC8B09"/>
<path d="M300.414 25.8489L256.684 0.605425C256.264 0.314049 255.784 0.121287 255.279 0.0415474C254.775 -0.0381921 254.259 -0.00284585 253.77 0.144944C253.582 0.218742 253.406 0.320547 253.249 0.446899L248.372 3.23998L252.147 7.67117V25.9092C252.231 27.485 252.685 29.0188 253.472 30.3866C254.258 31.7544 255.356 32.9178 256.676 33.7827L270.302 42.3431L274.001 50.8205L270.113 57.4258L275.541 54.3383L280.689 48.352L297.115 57.2597L298.006 62.5439L303.539 59.3734L303.69 59.2904H303.743C304.167 58.9518 304.501 58.5131 304.713 58.0136C304.925 57.5141 305.009 56.9696 304.959 56.4293V33.7827C304.882 32.1952 304.43 30.6485 303.64 29.2694C302.85 27.8903 301.745 26.718 300.414 25.8489Z" fill="#F57A75"/>
<path opacity="0.2" d="M300.414 25.8489L256.684 0.605425C256.264 0.314049 255.784 0.121287 255.279 0.0415474C254.775 -0.0381921 254.259 -0.00284585 253.77 0.144944C253.582 0.218742 253.406 0.320547 253.249 0.446899L248.372 3.23998L252.147 7.67117V25.9092C252.231 27.485 252.685 29.0188 253.472 30.3866C254.258 31.7544 255.356 32.9178 256.676 33.7827L270.302 42.3431L274.001 50.8205L270.113 57.4258L275.541 54.3383L280.689 48.352L297.115 57.2597L298.006 62.5439L303.539 59.3734L303.69 59.2904H303.743C304.167 58.9518 304.501 58.5131 304.713 58.0136C304.925 57.5141 305.009 56.9696 304.959 56.4293V33.7827C304.882 32.1952 304.43 30.6485 303.64 29.2694C302.85 27.8903 301.745 26.718 300.414 25.8489Z" fill="#272833"/>
<path d="M294.987 28.9514L251.263 3.70797C248.757 2.25859 246.734 3.43621 246.734 6.33498V28.9816C246.818 30.5573 247.272 32.0911 248.059 33.4589C248.846 34.8267 249.944 35.9901 251.263 36.8551L264.897 45.4457L270.128 57.4257L275.276 51.4395L294.994 62.1287C297.508 63.5781 299.523 62.408 299.523 59.5092V36.8626C299.445 35.2796 298.993 33.7376 298.204 32.3626C297.416 30.9877 296.313 29.8188 294.987 28.9514Z" fill="#F57A75"/>
<path d="M261.118 27.9292C262.342 27.2225 262.342 24.9316 261.118 22.8121C259.895 20.6927 257.91 19.5475 256.686 20.2542C255.462 20.9608 255.462 23.2518 256.686 25.3712C257.909 27.4906 259.894 28.6359 261.118 27.9292Z" fill="white"/>
<path d="M275.177 35.5652C276.407 34.8586 276.412 32.5597 275.188 30.4306C273.965 28.3015 271.976 27.1483 270.746 27.855C269.517 28.5616 269.512 30.8605 270.735 32.9897C271.959 35.1188 273.948 36.2719 275.177 35.5652Z" fill="white"/>
<path d="M287.056 42.9114C288.28 42.2047 288.28 39.9137 287.056 37.7943C285.833 35.6749 283.848 34.5297 282.624 35.2363C281.4 35.943 281.4 38.234 282.624 40.3534C283.847 42.4728 285.832 43.618 287.056 42.9114Z" fill="white"/>
</svg>
