<svg width="32" height="32" viewBox="0 0 32 32" fill="none" xmlns="http://www.w3.org/2000/svg">
<path d="M32 6.0785C30.8226 6.60066 29.5573 6.95356 28.2293 7.11228C29.5848 6.29973 30.6257 5.01312 31.1159 3.48013C29.8475 4.23241 28.4424 4.77879 26.947 5.07329C25.7494 3.79734 24.0431 3 22.1549 3C18.5291 3 15.5895 5.93945 15.5895 9.56504C15.5895 10.0796 15.6477 10.5807 15.7596 11.0612C10.3032 10.7874 5.46572 8.17368 2.22767 4.20174C1.66256 5.17137 1.33881 6.29914 1.33881 7.50229C1.33881 9.77994 2.49794 11.7894 4.25953 12.9667C3.18326 12.9327 2.17102 12.6373 1.28578 12.1456C1.28531 12.173 1.28531 12.2005 1.28531 12.2281C1.28531 15.4091 3.54834 18.0626 6.5517 18.6656C6.00075 18.8156 5.42077 18.8958 4.82195 18.8958C4.39893 18.8958 3.98762 18.8547 3.58685 18.7781C4.42222 21.3864 6.84678 23.2845 9.71962 23.3375C7.47275 25.0982 4.64193 26.1478 1.56611 26.1478C1.03623 26.1478 0.513611 26.1168 0 26.0562C2.90539 27.9189 6.35634 29.0057 10.0639 29.0057C22.1396 29.0057 28.743 19.0019 28.743 10.3263C28.743 10.0417 28.7367 9.75852 28.724 9.47702C30.0067 8.5514 31.1198 7.39507 32 6.0785Z" fill="#4D4D4D"/>
</svg>
