<svg width="32" height="32" viewBox="0 0 32 32" fill="none" xmlns="http://www.w3.org/2000/svg">
<path d="M12.9521 18.2857H15.2379V20.5714H16.7617V18.2857H19.0474V16.7619H16.7617V14.4762H15.2379V16.7619H12.9521V18.2857Z" fill="#999999"/>
<path d="M21.3331 9.90476H19.8092V8.38095H18.2854V9.90476H13.714V8.38095H12.1902V9.90476H10.6664C9.82601 9.90476 9.14258 10.5882 9.14258 11.4286V22.0952C9.14258 22.9356 9.82601 23.619 10.6664 23.619H21.3331C22.1734 23.619 22.8569 22.9356 22.8569 22.0952V11.4286C22.8569 10.5882 22.1734 9.90476 21.3331 9.90476ZM21.3346 22.0952H10.6664V12.9524H21.3331L21.3346 22.0952Z" fill="#999999"/>
<rect x="0.571429" y="0.571429" width="30.8571" height="30.8571" rx="8.57143" stroke="#999999" stroke-width="1.14286"/>
</svg>
