<svg width="129" height="184" viewBox="0 0 129 184" fill="none" xmlns="http://www.w3.org/2000/svg">
<g clip-path="url(#clip0)">
<path d="M57.4086 115.743L71.9446 103.688C72.7868 102.98 73.1789 101.739 72.903 100.093L58.3671 112.163C58.6284 113.794 58.2509 115.05 57.4086 115.743Z" fill="#E8EEF4"/>
<path d="M57.4086 115.743L71.9446 103.688C72.7868 102.98 73.1789 101.739 72.903 100.093L58.3671 112.163C58.6284 113.794 58.2509 115.05 57.4086 115.743Z" fill="#E8EEF4"/>
<path d="M28.2061 33.3329L13.6702 45.4027C14.527 44.6953 15.8629 44.5509 17.4458 45.1284L31.9817 33.0586C30.3843 32.4811 29.0629 32.6254 28.2061 33.3329Z" fill="white"/>
<path d="M17.4458 45.1285L31.9817 33.0587C30.7328 32.5967 29.6437 32.5823 28.816 32.9432L14.2801 45.013C15.1078 44.6521 16.1969 44.6665 17.4458 45.1285Z" fill="white"/>
<path d="M14.2801 45.0127L28.816 32.9573C28.5837 33.0583 28.3804 33.1883 28.2061 33.3327L13.6702 45.4025C13.8445 45.2437 14.0478 45.1137 14.2801 45.0127Z" fill="white"/>
<path d="M58.3524 112.148L72.9028 100.092L64.5675 50.658L50.0171 62.7278L58.3524 112.148Z" fill="#E8EEF4"/>
<path d="M43.2795 54.6428L57.8154 42.573L31.9819 33.0586L17.4459 45.1284L43.2795 54.6428Z" fill="white"/>
<path d="M50.0168 62.7291L64.5527 50.6593C64.0009 47.3531 60.9805 43.7437 57.8003 42.5742L43.2644 54.6441C46.4446 55.8135 49.465 59.4229 50.0168 62.7291Z" fill="#E8EEF4"/>
<path d="M50.0172 62.7275L64.5531 50.6576C64.2917 49.0839 63.464 47.4525 62.3313 46.0376L47.7954 58.1074C48.9426 59.5223 49.7558 61.1538 50.0172 62.7275Z" fill="#E8EEF4"/>
<path d="M47.8089 58.1079L62.3448 46.038C61.096 44.4788 59.4696 43.1938 57.8142 42.573L43.2782 54.6428C44.9337 55.2492 46.5601 56.5342 47.8089 58.1079Z" fill="white"/>
<path d="M17.4458 45.1287C14.2801 43.9593 12.16 45.6918 12.7118 48.9836L21.0471 98.4035C21.5989 101.71 24.6194 105.319 27.7995 106.489L53.6331 116.003C56.7988 117.172 58.9189 115.44 58.3671 112.148L50.0173 62.7282C49.4655 59.4219 46.445 55.8125 43.2648 54.6431L17.4458 45.1287Z" fill="#A4A9C2"/>
<path d="M56.8278 67.5361L54.606 66.7131L57.2199 81.6416L59.4417 82.4646L56.8278 67.5361Z" fill="#A4A9C2"/>
<path d="M64.5676 61.1545L62.3459 60.3315L54.6059 66.713L56.8277 67.5359L64.5676 61.1545Z" fill="white"/>
<path d="M56.8277 67.5364L59.4416 82.4649L67.167 76.0835L64.5677 61.155L56.8277 67.5364Z" fill="#C1C8DC"/>
<path d="M10.7804 110.141C10.824 110.386 10.8675 110.617 10.9111 110.863C11.1289 112.162 11.2451 113.491 11.0418 114.732C10.7659 116.436 9.7494 118.197 8.02135 118.789C7.75997 118.876 7.41145 118.919 7.17911 118.702C6.62729 118.197 7.35337 117.446 7.55667 117.071C7.90518 116.421 8.15204 115.714 8.29725 114.978C8.34082 114.747 8.35534 114.458 8.15204 114.285C8.02135 114.169 7.84709 114.14 7.68736 114.169C7.52762 114.198 7.41145 114.27 7.28076 114.357C6.22069 115.122 5.6834 116.479 5.85765 117.851C5.93026 118.385 6.39495 119.367 6.01739 119.785C5.34941 120.522 3.82466 119.381 3.6504 118.558C3.02598 118.443 1.92235 117.981 1.8207 117.288C1.79166 117.071 1.79166 116.84 1.66097 116.623C1.58836 116.494 1.47219 116.407 1.37054 116.291C0.992987 115.902 0.818732 115.396 0.760647 114.905C0.717082 114.429 0.847769 113.996 0.833247 113.534C0.818726 113.072 0.876814 112.639 0.949421 112.191C1.05107 111.671 1.26889 111.166 1.34149 110.646C1.50123 109.607 2.16922 108.769 2.86625 108.033C3.53423 107.311 4.28935 106.662 4.89925 105.896C5.30585 105.391 5.58175 104.842 5.82862 104.236C6.0174 103.76 6.45303 103.89 6.88867 104.207C7.44049 104.626 7.9197 105.03 8.55864 105.333C9.18306 105.636 9.85105 105.839 10.5045 105.94C10.7078 105.969 10.9402 106.012 11.0708 106.185C11.1289 106.257 11.1435 106.344 11.158 106.431C11.2306 106.893 10.9402 107.138 10.7949 107.513C10.6497 107.903 10.5916 108.351 10.5916 108.784C10.6352 109.203 10.6933 109.665 10.7804 110.141Z" fill="#CDDCFB"/>
<path d="M11.6663 73.9467C11.7389 73.6147 11.8115 73.2826 11.8841 72.9794C12.4505 70.294 13.4234 67.6952 14.7449 65.2842C15.7904 63.3928 17.4313 60.0577 20.1468 60.7219C23.0366 61.4293 25.2729 67.0167 23.1818 73.297C22.7607 74.5531 22.3541 75.8236 21.9475 77.0941C20.3356 85.0781 20.1033 90.3045 18.6366 93.0621C18.1283 94.015 17.0102 94.5347 16.226 94.9534C15.2386 95.4876 8.99438 88.6586 8.99438 88.6586C9.34289 83.9375 10.2577 77.6861 11.6663 73.9467Z" fill="#CDDCFB"/>
<path d="M11.8834 72.9792C12.4498 70.2938 13.4227 67.695 14.7442 65.2839C15.7897 63.3926 17.4306 60.0575 20.1461 60.7216C20.9303 60.9093 21.6563 61.4579 22.2662 62.2809C21.6273 66.5689 21.1626 71.5787 17.0095 73.5278C15.4121 74.2497 13.8148 74.2497 12.2174 74.8272C11.898 74.9571 11.5785 75.0149 11.2735 75.0437C11.3897 74.6539 11.5204 74.2785 11.6511 73.932C11.7382 73.6144 11.8108 73.2823 11.8834 72.9792Z" fill="#242A31"/>
<path d="M10.7659 110.069C10.6061 111.34 3.79558 107.716 4.20218 106.662C5.37842 103.587 8.99424 90.3185 9.1685 86.5791C9.24111 85.0632 14.2946 85.2653 15.8484 86.1171C19.4642 88.124 19.6675 89.8709 19.319 91.3002C18.5493 94.4476 10.9546 108.481 10.7659 110.069Z" fill="#CDDCFB"/>
<path d="M4.40561 106.113C4.52178 105.752 4.66699 105.334 4.82673 104.843C6.49669 106.72 9.31384 107.687 11.8115 107.514C11.5647 108.048 11.3468 108.524 11.1871 108.929C8.57326 109.232 5.94488 108.077 4.40561 106.113Z" fill="#E76E1E"/>
<path d="M9.47362 83.995C9.54623 83.3886 9.63336 82.7822 9.73501 82.1614C12.77 84.688 16.6181 86.2472 20.4808 85.4965C20.3647 86.2472 20.2485 86.9402 20.1323 87.6044C16.0373 88.5572 12.3053 86.8103 9.47362 83.995Z" fill="#E76E1E"/>
<path d="M23.2397 108.9C23.8496 109.954 24.8952 109.968 25.9407 110.141C27.0589 110.315 29.7599 111.354 30.907 111.556C34.4212 112.163 38.0225 112.769 41.5367 112.134C43.4826 111.787 45.3268 111.08 47.1565 110.372C48.536 109.838 49.9301 109.304 51.3096 108.77C53.1103 108.077 55.0416 112.293 54.5479 109.939C53.5459 105.146 48.1004 84.1249 49.5525 77.8012C50.4964 73.7154 53.3862 71.0733 52.3987 68.1569C50.6852 63.1326 42.437 58.9168 28.6417 57.0544C26.449 56.7656 22.2813 55.9427 20.5097 57.2421C18.985 58.3682 18.5348 60.3895 18.1573 62.1364C17.4312 65.5293 17.983 68.9077 18.4622 72.3294C18.5203 72.7625 18.5929 73.1956 18.651 73.6287C19.1012 76.5596 19.6239 79.4615 20.1322 82.3779C20.2193 82.8833 20.3064 83.403 20.3936 83.9083C21.7005 91.5891 22.1216 99.4287 22.8186 107.182C22.8912 107.774 22.9493 108.394 23.2397 108.9Z" fill="#E8EEF4"/>
<path d="M87.802 167.04C85.8997 162.506 84.6508 158.189 84.1135 157.829C83.0099 157.078 80.2799 156.544 78.4066 155.836C76.7076 155.186 78.4502 153.685 78.5083 151.952C78.5373 151.057 77.6806 153.324 78.2469 152.66C79.6845 150.985 79.2924 151.144 81.1802 151.072C81.5142 150.509 82.1386 150.263 82.4871 149.902C84.1426 148.184 83.765 146.668 87.7875 147.491C88.6442 147.664 89.53 147.924 90.2125 148.487C90.9676 149.123 91.3888 150.076 91.6356 151.028C91.8825 151.981 91.9696 152.978 92.202 153.93C92.928 156.789 97.1538 161.337 95.6581 164.672C92.8119 171.039 88.47 168.642 87.802 167.04Z" fill="#E8EEF4"/>
<path d="M46.3871 162.55C46.0821 162.507 45.7772 162.521 45.5013 162.651C44.5283 163.156 43.8604 164.773 43.5554 165.741C42.9455 167.661 42.7567 169.682 42.0597 171.559C41.6821 172.57 41.1594 173.522 40.6511 174.461C40.0848 175.486 39.5185 176.511 38.9812 177.55C38.531 178.388 38.3858 179.355 38.6907 180.279C38.9086 180.958 39.3442 181.55 39.7944 182.098C40.3897 182.82 41.3627 183.181 42.2775 183.297C44.2379 183.528 46.2419 182.604 47.4762 181.088C48.6524 179.658 49.5818 177.579 49.9448 175.775C50.1917 174.576 50.5112 173.595 51.2082 172.541C51.7455 171.718 52.4135 170.967 52.9508 170.144C53.488 169.321 53.9092 168.368 53.8511 167.386C53.8075 166.506 53.3864 165.697 52.9362 164.946C52.428 164.124 47.9844 157.497 46.997 157.193C46.1112 156.919 48.4927 162.738 47.5488 162.723C47.1712 162.723 46.7646 162.608 46.3871 162.55Z" fill="#D8DFE9"/>
<path d="M22.8913 107.73C22.9058 106.142 26.0715 112.682 26.086 111.181C26.1005 110.054 26.2022 109.953 26.2167 108.856C26.2602 105.709 29.3097 105.723 30.2391 104.842C31.5315 103.615 30.878 111.007 32.5335 111.368C43.5117 113.823 41.5803 125.633 41.682 130.888C41.711 132.649 40.5057 140.229 39.7651 145.571C42.713 149.368 47.7955 156.832 49.8866 160.803C50.511 161.986 51.5275 163.473 50.7288 165.047C49.6252 167.242 46.4305 168.685 44.8912 168.238C43.4536 167.819 29.1355 151.765 29.121 151.606C24.2272 145.037 22.8768 111.975 22.8913 107.73Z" fill="#D8DFE9"/>
<path d="M40.9269 164.586C42.1467 164.745 43.3955 164.629 44.6153 164.196C46.75 163.445 48.2311 161.511 49.0589 159.331C49.3493 159.836 49.6107 160.298 49.843 160.731C49.2331 162.074 48.507 163.301 47.2292 164.34C45.7915 165.481 44.0635 165.986 42.3354 166.015C41.8998 165.582 41.4206 165.106 40.9269 164.586Z" fill="#FB852A"/>
<path d="M33.2887 149.614C35.162 151.909 35.191 154.797 34.3488 157.497C31.4735 154.321 29.1356 151.678 29.1356 151.606C28.1772 150.321 27.3494 148.011 26.6524 145.124C29.2953 145.788 31.5897 147.448 33.2887 149.614Z" fill="#242A31"/>
<path d="M28.5548 106.547C33.2888 107.904 35.0459 107.139 40.7673 104.554C42.0452 103.977 43.1924 102.793 44.5284 102.403C45.7917 102.042 47.2294 102.389 48.362 102.995C49.5673 103.645 50.5402 104.626 51.426 105.666C53.6623 108.294 52.7475 103.211 53.793 106.489C54.3158 108.106 57.0894 117.866 57.4234 119.497C57.7864 121.23 58.2366 122.948 58.7013 124.666C59.2676 126.774 61.5184 132.477 62.8834 136.851C66.2814 138.194 69.6504 139.638 72.9613 141.197C75.7639 142.511 78.5375 143.882 81.3837 145.109C82.7632 145.716 84.1573 146.279 85.5659 146.827C86.2629 147.102 87.3811 147.261 87.7296 147.939C88.1216 148.704 88.2814 149.585 88.1797 150.437C88.1362 150.812 88.0345 151.173 87.9329 151.534C87.6134 152.704 87.3084 153.873 86.8002 154.985C86.35 155.981 85.7401 156.919 84.9124 157.641C84.5203 157.988 84.3316 157.901 83.8524 157.786C83.4167 157.685 82.9811 157.583 82.5454 157.468C80.7448 156.992 78.9586 156.443 77.2451 155.721C70.5507 152.935 62.1428 151 57.1475 148.935C56.1455 148.517 53.2122 147.116 52.399 146.394C50.9033 145.196 43.6571 136.115 39.9251 128.766C39.2716 127.467 38.1535 126.586 35.1766 125.561C33.405 124.955 22.9496 124.334 22.877 107.73C22.877 105.752 28.7872 108.553 28.5548 106.547Z" fill="#E8EEF4"/>
<path d="M83.2859 145.918C84.012 146.221 84.7526 146.51 85.4932 146.799C86.0886 150.625 84.7816 154.465 82.3856 157.425C81.8338 157.28 81.282 157.122 80.7302 156.948C83.7216 154.537 84.3024 149.643 83.2859 145.918Z" fill="#FB852A"/>
<path d="M58.2656 144.705C61.6491 145.874 65.4973 148.314 66.4702 152.025C62.956 150.942 59.6452 149.96 57.1765 148.935C56.1745 148.516 53.2412 147.116 52.428 146.394C52.1812 146.192 51.76 145.759 51.2227 145.167C53.3283 143.723 55.9277 143.896 58.2656 144.705Z" fill="#242A31"/>
<path d="M26.8267 93.4515C25.9409 87.6187 25.5343 81.7137 25.5633 75.8232C25.5778 74.1773 25.5924 72.517 25.723 70.8711C25.7811 70.0482 25.8247 69.2252 25.9554 68.4023C26.0861 67.5938 26.1877 66.742 26.6815 66.0778C26.9864 65.6736 27.5963 65.7313 27.8287 66.1789C28.4386 67.3916 28.1772 69.1097 28.1336 70.4235C28.09 71.8529 28.032 73.2677 28.0174 74.6971C27.9739 77.5702 28.0465 80.4432 28.2353 83.3163C28.6128 89.0481 29.426 94.7509 30.6603 100.353C31.0088 101.926 31.3864 103.486 31.8075 105.045C32.156 106.344 33.158 108.38 32.2286 109.434C32.0689 109.607 31.8366 109.78 31.5897 109.723C30.123 109.42 29.9633 107.73 29.6148 106.518C29.2227 105.103 28.8597 103.673 28.5257 102.244C27.8432 99.3276 27.2768 96.3968 26.8267 93.4515Z" fill="#A4A9C2"/>
<path d="M29.3243 110.517C26.9718 110.041 24.9243 108.929 22.8913 107.745C22.8623 107.557 22.8477 107.37 22.8332 107.197C22.7461 106.143 22.6444 105.074 22.5573 104.02C26.2457 106.099 30.5586 107.124 34.886 107.702C41.2028 108.51 47.2001 106.749 52.5004 103.833C52.6892 103.731 52.8925 103.616 53.0813 103.5C53.3282 104.583 53.5605 105.594 53.7783 106.504C50.0173 108.626 46.082 110.315 41.7691 111.051C37.6305 111.86 33.5064 111.311 29.3243 110.517Z" fill="#FB852A"/>
<path d="M37.1659 52.3184C38.255 55.9278 40.1863 56.9817 40.7962 59.9414C43.0761 70.914 20.3646 74.9565 18.898 64.5181C18.3752 60.7788 18.0412 57.8768 17.9395 55.5668L37.1659 52.3184Z" fill="#A4A9C2"/>
<path d="M39.2861 57.9638L42.6696 55.1485C42.4663 55.0763 42.2775 55.033 42.1032 55.033L38.7197 57.8483C38.894 57.8627 39.0828 57.8916 39.2861 57.9638Z" fill="#E8EEF4"/>
<path d="M38.7195 57.8482L42.103 55.0328C41.8416 55.0184 41.6238 55.0906 41.4496 55.2205L38.0661 58.0358C38.2403 57.9059 38.4581 57.8482 38.7195 57.8482Z" fill="#E8EEF4"/>
<path d="M38.0657 58.0355L41.4492 55.2346C41.4347 55.2491 41.4347 55.2491 41.4202 55.2635L38.0367 58.0788C38.0512 58.05 38.0657 58.05 38.0657 58.0355Z" fill="#C1C8DC"/>
<path d="M41.2174 61.7899L44.6009 58.9746C44.8768 58.7436 45.0075 58.3249 44.9059 57.7907C44.8333 57.372 44.6445 56.9389 44.3686 56.5491L40.9851 59.3644C41.2465 59.7542 41.4498 60.1873 41.5224 60.606C41.624 61.1547 41.4933 61.5589 41.2174 61.7899Z" fill="#C1C8DC"/>
<path d="M40.9992 59.3643L44.3827 56.549C44.1794 56.2458 43.918 55.9571 43.6421 55.7261L40.2586 58.5414C40.5345 58.7724 40.7814 59.0612 40.9992 59.3643Z" fill="#E8EEF4"/>
<path d="M40.2437 58.542L43.6272 55.7267C43.3222 55.4668 43.0028 55.2647 42.6688 55.1492L39.2853 57.9645C39.6193 58.08 39.9533 58.2821 40.2437 58.542Z" fill="white"/>
<path d="M39.286 57.9635C38.2404 57.5881 37.5434 58.1656 37.7322 59.2484C37.9209 60.3312 38.9229 61.5151 39.9685 61.8905C41.014 62.2659 41.711 61.6884 41.5222 60.6055C41.3335 59.5227 40.3315 58.3388 39.286 57.9635Z" fill="#CCD4EB"/>
<path d="M37.7888 59.5235L39.0963 58.4402C38.922 58.3824 38.7622 58.3391 38.6169 58.3391L37.3094 59.4224C37.4547 59.4368 37.6145 59.4657 37.7888 59.5235Z" fill="#E8EEF4"/>
<path d="M37.3106 59.4224L38.618 58.3391C38.3856 58.3391 38.1968 58.3969 38.0515 58.498L36.744 59.5813C36.8893 59.4801 37.0782 59.4224 37.3106 59.4224Z" fill="#E8EEF4"/>
<path d="M36.7443 59.596L38.0518 58.5127C38.0372 58.5127 38.0372 58.5271 38.0227 58.5271L36.7007 59.6104C36.7298 59.6104 36.7298 59.596 36.7443 59.596Z" fill="#C1C8DC"/>
<path d="M39.4603 62.8303L40.7672 61.7475C40.9995 61.5454 41.1157 61.1844 41.0286 60.7224C40.9705 60.3615 40.7962 59.9861 40.5639 59.6541L39.257 60.7369C39.4893 61.0834 39.649 61.4443 39.7216 61.8053C39.8088 62.2817 39.7071 62.6282 39.4603 62.8303Z" fill="#C1C8DC"/>
<path d="M39.2707 60.7373L40.5781 59.6541C40.4038 59.3941 40.1714 59.1485 39.9389 58.9319L38.6315 60.0151C38.8639 60.2318 39.0818 60.4773 39.2707 60.7373Z" fill="#E8EEF4"/>
<path d="M38.6171 60.0301L39.9246 58.9469C39.6631 58.7302 39.3871 58.5569 39.0965 58.4558L37.7891 59.5391C38.0796 59.6257 38.3701 59.7991 38.6171 60.0301Z" fill="white"/>
<path d="M37.7897 59.5233C36.8894 59.1912 36.294 59.6966 36.4537 60.635C36.6135 61.5734 37.4847 62.5985 38.3851 62.9161C39.2854 63.2482 39.8808 62.7429 39.721 61.8044C39.5613 60.8804 38.69 59.8554 37.7897 59.5233Z" fill="#CCD4EB"/>
<path d="M25.9407 69.2253C33.913 70.6546 40.4912 64.8218 41.7545 56.6213C43.439 45.8075 36.1493 35.7589 23.9077 38.8341C15.8193 40.8698 13.6847 47.0491 13.8589 53.4739C14.0477 60.5483 17.8233 67.7671 25.9407 69.2253Z" fill="#E8EEF4"/>
<path d="M13.8591 53.4737C13.7865 50.7305 14.135 48.0307 15.195 45.6918C21.6425 44.1326 29.7455 45.894 32.9693 52.2754C35.0458 56.4623 35.5976 63.0169 31.6623 65.659C27.8142 68.1712 22.3686 67.9402 18.4914 64.9805C17.867 64.4607 17.3587 63.9265 16.865 63.349C14.9191 60.4904 13.9462 56.9676 13.8591 53.4737Z" fill="#242A31"/>
<path d="M35.5539 97.0903L39.5618 93.7696L37.3545 80.718L33.3611 84.0387L35.5539 97.0903Z" fill="#C1C8DC"/>
<path d="M33.3603 84.0384L37.3536 80.7178L21.293 74.7983L17.2996 78.119L33.3603 84.0384Z" fill="white"/>
<path d="M17.3003 78.1191L19.493 91.1707L35.5537 97.0901L33.361 84.0386L17.3003 78.1191Z" fill="#D8DFE9"/>
<path d="M30.9797 53.0695C31.2846 53.9069 31.4008 54.8742 30.9506 55.6394C30.544 56.318 29.7454 56.6933 28.9612 56.7511C28.1771 56.8088 27.3929 56.5923 26.6523 56.318C24.7645 55.625 22.9348 54.4122 22.0926 52.5786C21.047 50.2975 22.7025 47.7565 25.2728 48.2185C27.6688 48.6516 30.181 50.8461 30.9797 53.0695Z" fill="#37404A"/>
<path d="M85.8416 125.07C87.7439 125.07 89.6753 124.897 91.6502 124.492C94.1188 123.987 95.9195 123.236 97.3426 122.11C102.033 118.4 101.612 111.022 98.2719 106.445C94.8885 101.811 89.2832 99.3421 84.2443 97.5518C83.5037 97.2919 82.734 97.0176 81.9935 96.7722C77.608 95.2562 73.0628 93.6825 69.4324 90.8239C67.2687 89.1202 66.078 87.3444 65.8892 85.5108C65.7295 83.9804 66.2377 82.5656 67.414 81.3384C69.3889 79.2593 73.0337 77.9744 76.4608 78.1477C86.9743 78.6674 95.6436 85.7851 104.022 92.6574L104.197 92.8018C106.186 94.4333 108.669 96.469 111.574 97.4074C116.293 98.9234 121.927 97.1909 124.948 93.2638C127.968 89.3512 128.201 83.4896 125.514 79.346C123.467 76.1986 120.17 74.2928 116.99 72.4448C114.347 70.9144 111.632 69.3407 109.671 67.074C105.46 62.1941 105.576 53.9502 109.918 48.7094C114.042 43.7862 121.579 41.5772 128.273 43.3675L128.578 42.2558C125.166 41.3462 121.39 41.3895 117.934 42.3713C114.318 43.3963 111.24 45.3454 109.032 48.0164C106.781 50.7306 105.489 54.2534 105.416 57.9494C105.329 61.7177 106.535 65.2404 108.8 67.8536C110.877 70.2647 113.694 71.8962 116.409 73.4699C119.618 75.3323 122.653 77.0793 124.541 79.9957C126.981 83.7494 126.763 89.0336 124.033 92.5708C121.303 96.108 116.22 97.6817 111.937 96.3102C109.439 95.5017 107.377 93.9135 104.937 91.9211L104.763 91.7767C100.595 88.355 96.297 84.8323 91.6502 82.0602C86.3499 78.8984 81.3981 77.2381 76.5189 77.0071C72.7724 76.8194 68.7645 78.2487 66.5717 80.5587C65.1777 82.0169 64.5387 83.7783 64.742 85.6408C64.9598 87.7775 66.3103 89.8421 68.7209 91.7334C72.4965 94.7076 77.1288 96.3102 81.6159 97.8694C82.3565 98.1293 83.1116 98.3892 83.8522 98.6491C88.7169 100.382 94.1334 102.749 97.3281 107.124C100.29 111.181 100.712 117.952 96.6165 121.201C95.3531 122.197 93.6977 122.89 91.4178 123.352C82.7195 125.128 74.3842 122.283 68.9242 119.584C61.8958 116.104 55.6952 111.094 49.6979 106.243L48.9718 107.138C55.0127 112.033 61.2714 117.086 68.4159 120.623C72.8014 122.803 79.0311 125.07 85.8416 125.07Z" fill="#D8DFE9"/>
<path d="M49.6688 106.257L47.6794 105.55L51.2952 103.846L53.2847 104.554L49.6688 106.257Z" fill="#37404A"/>
<path d="M49.5962 109.954L47.6068 109.261L47.6794 105.55L49.6688 106.257L49.5962 109.954Z" fill="#242A31"/>
<path d="M49.6688 106.258L53.2847 104.554L53.2121 108.25L49.5962 109.954L49.6688 106.258Z" fill="#10191B"/>
<path d="M60.4872 94.2165C58.1057 92.0076 53.8945 86.579 51.2662 83.6338C49.0444 81.1505 49.9738 80.4719 48.0134 77.9742L53.517 67.9834C54.4899 68.994 55.3176 70.3223 56.1453 71.2896C57.4958 72.8922 59.1948 73.8739 61.01 76.054C63.6965 79.3025 66.5136 83.9225 67.7479 86.7956C68.2417 87.965 66.1506 88.0228 66.0199 90.2173C65.9618 91.1991 67.1526 91.8921 66.4265 92.5418C65.4826 93.4369 61.4166 95.0683 60.4872 94.2165Z" fill="white"/>
<path d="M66.0489 116.191C65.4535 114.56 65.1631 109.766 65.9327 108.193C65.9327 108.193 66.9347 107.889 66.7895 106.417C66.7459 105.912 70.173 107.918 70.7248 107.716C71.204 107.543 71.7413 107.702 72.1189 108.005C73.1789 108.857 73.9486 109.752 74.5585 110.979C75.1974 112.235 75.6185 113.607 75.8218 115.007C75.8654 115.339 75.8509 115.758 75.5459 115.888C75.3426 115.975 75.0957 115.902 74.907 116.018C74.5439 116.234 74.8198 116.783 74.8198 117.216C74.8053 117.866 73.7743 118.198 73.3822 117.664C73.4113 118.198 73.3967 118.79 73.0482 119.209C72.6997 119.627 71.9156 119.671 71.6977 119.194C71.9156 119.757 71.5961 120.45 71.0297 120.652C70.4634 120.854 69.7664 120.508 69.5776 119.945C69.4469 119.512 69.5776 119.064 69.5776 118.617C69.5921 117.144 68.3142 116.032 67.6608 114.718C67.5591 114.993 67.4575 115.599 67.472 115.671C67.5591 115.931 67.6463 116.191 67.6317 116.451C67.6172 116.725 67.4865 117 67.2397 117.115C66.9783 117.231 66.6733 117.13 66.47 116.942C66.2667 116.725 66.1506 116.451 66.0489 116.191Z" fill="white"/>
<path d="M68.2418 110.445C67.2107 110.012 66.3685 109.333 65.686 108.51C63.987 103.919 61.8233 97.0899 59.5434 93.2495C58.5996 91.6758 58.6576 88.4706 59.8629 87.0846C62.5784 83.9517 66.8768 83.5907 68.082 87.6621C68.7645 89.9722 70.7249 94.8376 72.1916 101.883C72.4965 103.356 72.9177 106.734 73.0774 108.654C72.3078 110.401 69.9989 111.21 68.2418 110.445Z" fill="white"/>
<path d="M69.1855 108.553C70.7103 108.741 72.0172 107.86 72.874 106.719C72.9611 107.441 73.0192 108.12 73.0627 108.669C72.2931 110.416 69.9842 111.21 68.2126 110.459C67.1816 110.026 66.3393 109.347 65.6568 108.524C65.4681 108.004 65.2648 107.456 65.0615 106.893C66.2958 107.687 67.6463 108.279 69.1855 108.553Z" fill="#FB852A"/>
<path d="M56.4648 70.5392C56.4067 70.4815 56.3631 70.4237 56.305 70.366C55.0126 68.9366 53.7493 67.1031 51.9631 66.2368C49.5671 65.0818 46.5612 63.4648 44.0344 65.3128C42.045 66.771 42.6839 69.5286 43.2938 71.2322C44.0925 73.47 45.7044 75.3036 46.8661 77.3393C51.4839 85.3378 53.1684 85.1212 54.2285 84.9624C56.7988 84.6014 56.2615 83.8651 57.3651 82.8545C58.672 81.6562 59.9789 80.4578 61.2714 79.2451C61.6053 78.9419 61.9539 78.5954 62.0119 78.1623C62.07 77.7147 61.8232 77.296 61.5618 76.9062C60.0806 74.6106 58.2945 72.5894 56.4648 70.5392Z" fill="white"/>
<path d="M43.3085 71.2322C42.6986 69.543 42.0451 66.771 44.049 65.3128C46.5758 63.4648 49.5817 65.0818 51.9777 66.2368C53.7639 67.1031 55.0272 68.9222 56.3196 70.366C56.3777 70.4237 56.4213 70.4815 56.4794 70.5392C57.6992 71.8963 58.8899 73.2535 60.0081 74.6828C59.7902 74.9716 59.5434 75.2314 59.282 75.4913C56.4794 78.0612 52.5586 77.4837 49.422 75.6212C47.8101 74.5673 45.9949 73.3257 44.1652 73.0369C43.8167 72.4594 43.5263 71.8675 43.3085 71.2322Z" fill="#242A31"/>
<path d="M65.3664 82.3062C65.8311 83.0713 66.2522 83.8221 66.6443 84.544C65.802 85.9589 64.6549 87.1572 63.3044 88.1101C61.5618 89.4239 59.2384 90.449 57.0021 90.4345C56.5083 89.857 56.0146 89.2651 55.5209 88.6731C59.5433 88.5432 63.4786 85.7856 65.3664 82.3062Z" fill="#FB852A"/>
</g>
<defs>
<clipPath id="clip0">
<rect width="127.826" height="182.596" fill="white" transform="matrix(-1 0 0 1 128.578 0.736084)"/>
</clipPath>
</defs>
</svg>
