<svg width="137" height="254" viewBox="0 0 137 254" fill="none" xmlns="http://www.w3.org/2000/svg">
<path opacity="0.4" d="M22.8702 189.328C35.4254 189.328 45.6035 183.674 45.6035 176.698C45.6035 169.723 35.4254 164.069 22.8702 164.069C10.315 164.069 0.136963 169.723 0.136963 176.698C0.136963 183.674 10.315 189.328 22.8702 189.328Z" fill="#B4B8FA"/>
<path d="M6.38597 172.066C7.93519 173.34 10.2182 172.176 10.3324 172.291C12.1521 173.997 14.061 175.603 16.0509 177.102C17.013 177.871 18.5188 178.892 18.2252 180.369C17.736 183.005 13.5613 182.192 11.9849 181.385C10.4085 180.578 9.1202 179.244 7.63622 178.31C6.54905 177.64 5.52167 177.294 5.3586 175.938C5.27162 175.119 6.10874 172.033 6.38597 172.066Z" fill="#38226D"/>
<path d="M5.37681 175.995C5.57883 177.181 6.61624 177.496 7.68095 178.111C9.19885 178.976 10.542 180.227 12.1254 180.962C13.5887 181.637 17.236 182.312 18.2625 180.597C17.7165 182.912 13.5833 182.187 12.0162 181.457C10.4492 180.727 9.13879 179.506 7.64819 178.656C6.55618 178.046 5.52423 177.731 5.36043 176.495C5.34558 176.329 5.35107 176.161 5.37681 175.995Z" fill="#5259C3"/>
<path d="M20.5934 166.858C22.2575 168.087 25.1812 166.741 25.2808 166.858C27.02 168.447 28.8569 169.947 30.7826 171.35C31.8255 172.091 33.4485 173.077 33.1263 174.502C32.5989 177.044 28.0991 176.26 26.3999 175.482C24.7007 174.703 23.3121 173.416 21.7126 172.515C20.5407 171.869 19.4392 171.535 19.2634 170.227C19.1931 169.438 20.2946 166.826 20.5934 166.858Z" fill="#38226D"/>
<path d="M19.2834 170.327C19.5068 171.462 20.6242 171.764 21.765 172.353C23.4058 173.181 24.8525 174.378 26.552 175.082C28.128 175.728 32.0623 176.375 33.1679 174.732C32.5798 176.949 28.1222 176.255 26.4344 175.556C24.7466 174.857 23.3411 173.689 21.7298 172.875C20.583 172.29 19.448 171.989 19.2716 170.806C19.2531 170.647 19.2571 170.486 19.2834 170.327Z" fill="#5259C3"/>
<path d="M6.21922 111.043C6.30007 113.542 7.07391 124.379 7.42041 130.137C7.76691 135.895 7.84776 142.894 7.84776 142.894C7.84776 142.894 6.86024 147.081 6.21922 151.998C5.5782 156.915 6.21922 172.438 6.21922 172.438C6.84821 172.843 7.5798 173.059 8.32708 173.059C9.07436 173.059 9.80594 172.843 10.4349 172.438C10.4349 172.438 13.0683 160.018 14.2868 154.422C15.5053 148.826 15.719 145.597 16.3542 142.129C17.1165 137.931 18.7682 118.355 18.7682 118.355L19.4265 118.395L21.159 140.505C20.6176 142.134 20.246 143.815 20.0502 145.521C19.5709 149.122 20.5526 167.243 20.5526 167.243C21.2558 167.635 22.053 167.825 22.8568 167.793C23.6606 167.76 24.4399 167.505 25.1091 167.057C25.1091 167.057 29.5096 143.057 29.5096 139.404C29.5096 136.991 29.0995 105.14 29.0995 105.14L6.21922 111.043Z" fill="#630C07"/>
<path d="M12.403 63.6021C12.403 63.6021 12.6868 68.7803 12.5652 69.238C12.4435 69.6957 10.0631 71.2178 9.37393 71.7637C8.68472 72.3097 13.1385 76.4898 15.2988 77.4328C17.4591 78.3758 24.3281 75.8887 24.4497 72.6792C24.5713 69.4696 23.2914 66.773 22.2199 66.6131C21.1484 66.4531 12.403 63.6021 12.403 63.6021Z" fill="#FFCEA9"/>
<path d="M27.1193 73.0615C27.4429 70.6411 25.8363 68.3377 27.3959 66.4084C32.8513 71.7227 32.1569 85.7887 33.3987 94.7861C37.4476 98.9953 45.5926 103.14 47.8878 104.14C48.3056 104.327 48.6646 104.526 48.5822 104.976C48.2527 106.73 47.7407 107.396 46.6872 109.068C41.2965 106.759 37.4123 105.432 30.6797 99.0772C30.0411 98.3922 29.4696 97.6483 28.9731 96.8556C27.0486 91.1731 26.5661 77.2415 27.1193 73.0615Z" fill="#FFCEA9"/>
<path d="M11.4016 70.0435C11.4016 70.0435 15.3695 75.9111 20.9026 76.4886C22.648 74.756 22.8051 68.7036 20.3906 66.7632C20.3906 66.7632 22.6131 64.9844 24.1317 65.3309C25.7624 66.3123 26.9766 67.8502 27.5469 69.6565C28.9546 73.6926 29.615 77.9482 29.496 82.2176C29.4029 87.9928 29.496 105.561 29.496 105.561C29.496 105.561 28.7222 109.28 23.7186 112.047C18.715 114.813 14.9914 115.084 11.5994 114.299C8.79503 113.652 6.4794 112.67 5.51941 110.655C5.76959 106.612 7.58485 96.0897 6.90413 91.019C6.22341 85.9484 5.15868 82.1541 4.86778 78.0537C4.57687 73.9533 5.41468 74.011 7.48594 72.573C8.72896 71.6386 10.0375 70.7933 11.4016 70.0435Z" fill="#8E94F2"/>
<path d="M24.1101 55.5527C23.4862 51.3825 20.5619 48.2191 16.3732 48.4594C14.2335 48.5819 12.2288 49.5721 10.7999 51.2123C9.37096 52.8525 8.63483 55.0084 8.75335 57.2059C8.82183 58.472 9.17477 59.7046 9.78454 60.8072C10.3943 61.9098 11.2443 62.8524 12.2681 63.5613C12.4147 64.1938 12.6334 64.8063 12.9198 65.3861C14.3959 67.1652 18.8798 68.2464 20.1609 68.0747C21.8319 67.8345 22.712 67.1252 23.503 65.2717C24.8899 61.9825 24.4554 57.6063 24.1101 55.5527Z" fill="#FFCEA9"/>
<path d="M12.6871 63.6019L13.0773 59.8467C13.0773 59.8467 10.1139 51.8876 17.087 53.4168C21.6678 54.4206 22.8215 54.8575 24.2184 51.6455C25.6152 48.4335 20.6894 45.5462 14.8474 46.3315C12.8352 46.553 10.9758 47.5551 9.6374 49.1394C8.29897 50.7237 7.57897 52.7749 7.61988 54.887C7.77257 57.2665 8.37769 62.0491 12.6871 63.6019Z" fill="#1A1A1A"/>
<path d="M3.77728 75.4116C5.82251 74.8284 4.2656 75.3125 5.82251 74.8284C11.1482 80.1362 10.4875 89.2236 11.6939 98.206C14.6354 103.14 25.551 109.831 25.551 109.831C25.6889 110.787 25.3557 111.067 24.1779 112.998C18.9212 110.694 14.5148 108.705 7.94243 102.371C7.68391 102.12 7.30473 102.056 7.19558 101.711C5.31695 95.9779 3.2315 79.5879 3.77728 75.4116Z" fill="#FFCEA9"/>
<path d="M53.0847 86.0549L45.1766 113.306L27.8256 120.295L34.1532 93.7479L53.0847 86.0549Z" fill="#F4F4F4"/>
<path d="M22.9551 109.887C23.2263 108.901 23.9314 109.146 24.7209 109.391C25.577 109.744 26.5175 109.827 27.4207 109.63C28.174 109.391 28.7164 108.736 29.3552 108.301C29.7205 108.08 30.1355 107.958 30.5605 107.946C30.5244 108.197 30.1447 109.667 30.1447 109.667C30.1447 109.667 34.1463 109.71 34.5561 109.624C34.6918 109.605 34.8299 109.629 34.952 109.692C35.0742 109.755 35.1746 109.854 35.24 109.976C35.3054 110.098 35.3326 110.238 35.3181 110.376C35.3036 110.515 35.248 110.645 35.1587 110.751L35.4299 110.708C36.2495 110.524 36.5991 111.798 35.7734 111.987C35.5565 112.036 35.3335 112.061 35.1045 112.092C35.6409 112.3 35.7734 113.2 35.1045 113.316L34.8996 113.353C34.8055 113.389 34.7046 113.404 34.6043 113.396H34.4777C34.4967 113.493 34.496 113.593 34.4757 113.69C34.4553 113.787 34.4157 113.878 34.3593 113.959C34.3029 114.04 34.2309 114.108 34.1476 114.16C34.0644 114.211 33.9716 114.245 33.8751 114.259C31.9225 114.522 29.0539 115.312 27.2821 113.677C26.056 113.554 24.8585 113.225 23.7385 112.704C22.6598 112.183 22.6297 111.069 22.9551 109.887Z" fill="#FFCEA9"/>
<path d="M41.7547 107.643H41.9919C41.8973 107.567 41.8276 107.463 41.7921 107.346C41.7565 107.229 41.7568 107.103 41.7929 106.986C41.829 106.869 41.8992 106.766 41.994 106.69C42.0889 106.615 42.204 106.571 42.324 106.564C42.6929 106.564 46.2931 105.793 46.2931 105.793L46.7253 104.279C46.7253 104.192 47.3525 104.581 47.3736 104.597C47.6784 104.801 47.9343 105.073 48.1223 105.392C48.3103 105.711 48.4255 106.069 48.4595 106.44C48.4769 106.962 48.3927 107.482 48.2117 107.969C48.0307 108.457 47.7566 108.903 47.4052 109.281C46.7582 109.949 45.8838 110.336 44.9648 110.36C44.5273 110.387 44.1056 110.408 43.7313 110.441C43.6485 110.441 43.5665 110.424 43.4901 110.391C43.4136 110.359 43.3442 110.311 43.2859 110.251C43.2276 110.191 43.1815 110.119 43.1503 110.041C43.1191 109.962 43.1034 109.878 43.1041 109.794H42.9934C42.9085 109.814 42.82 109.814 42.7351 109.794H42.5506C41.9392 109.794 41.8917 109.017 42.3082 108.715C42.1131 108.715 41.9128 108.753 41.7178 108.753C40.9535 108.802 40.9957 107.637 41.7547 107.643Z" fill="#FFCEA9"/>
<path d="M29.481 77.0737C29.481 77.0737 31.4857 76.9674 32.3162 75.762C32.1615 73.6999 29.6012 65.8711 24.4578 65.2861C25.8598 66.2992 26.9717 67.683 27.6767 69.2922C28.6103 71.6497 29.481 77.0737 29.481 77.0737Z" fill="#8E94F2"/>
<path d="M2.77864 86.6636C2.77864 86.6636 8.22524 88.4047 12.0634 85.4766C12.4838 84.8039 9.83972 76.2059 9.83972 76.2059C9.83972 76.2059 7.55507 71.8079 3.97884 73.5547C0.402614 75.3014 2.77864 86.6636 2.77864 86.6636Z" fill="#8E94F2"/>
<path opacity="0.4" d="M115.04 224.354C127.086 224.354 136.852 218.567 136.852 211.429C136.852 204.29 127.086 198.503 115.04 198.503C102.993 198.503 93.2275 204.29 93.2275 211.429C93.2275 218.567 102.993 224.354 115.04 224.354Z" fill="#B4B7FA"/>
<path d="M132.744 114.485C133.004 116.709 135.743 126.209 135.153 129.466C134.564 132.724 125.221 138.182 125.221 138.182L123.926 132.624L129.127 127.743L127.694 118.476L132.744 114.485Z" fill="#623A17"/>
<path d="M126.081 105.17C126.862 104.748 127.751 104.675 128.576 104.965C129.402 105.254 130.106 105.886 130.556 106.739C131.739 109.012 132.968 116.811 133.082 118.144C133.082 118.144 131.421 120.803 128.93 120.359L126.081 105.17Z" fill="#FCC8C5"/>
<path d="M116.052 210.933C114.053 211.456 111.916 211.211 110.108 210.252C108.677 210.295 100.904 207.154 99.8482 209.791C98.9228 212.101 102.29 214.24 104.089 214.652C108.013 215.547 110.902 217.396 112.492 217.707C113.667 217.943 115.189 218.099 116.126 217.225C117.25 216.18 117.153 212.31 116.052 210.933Z" fill="#B3160D"/>
<path d="M111.891 217.075C110.391 216.768 107.62 214.959 103.88 214.055C102.44 213.716 99.9661 212.177 99.7171 210.352C99.3815 212.468 102.277 214.314 103.88 214.695C107.62 215.578 110.375 217.403 111.891 217.71C113.011 217.943 114.462 218.096 115.355 217.234C115.585 216.983 115.754 216.685 115.848 216.361C115.291 216.773 114.643 217.052 113.956 217.176C113.269 217.3 112.562 217.266 111.891 217.075Z" fill="#630C07"/>
<path d="M127.948 205.547C126.009 206.069 123.938 205.826 122.182 204.871C120.794 204.909 113.255 201.769 112.231 204.405C111.333 206.715 114.599 208.853 116.345 209.266C120.15 210.161 122.953 212.01 124.495 212.326C125.64 212.556 127.111 212.712 128.019 211.838C129.082 210.793 128.988 206.924 127.948 205.547Z" fill="#B3160D"/>
<path d="M124.685 211.693C123.135 211.386 120.272 209.576 116.407 208.671C114.919 208.332 112.363 206.797 112.105 204.966C111.759 207.083 114.751 208.925 116.407 209.306C120.272 210.19 123.119 212.016 124.685 212.328C125.848 212.556 127.342 212.709 128.264 211.846C128.502 211.596 128.676 211.297 128.773 210.973C128.198 211.386 127.529 211.667 126.819 211.792C126.109 211.917 125.378 211.883 124.685 211.693Z" fill="#630C07"/>
<path d="M128.068 184.915C127.742 182.094 127.151 179.31 126.305 176.599C126.305 176.599 126.835 169.424 127.097 162.622C127.399 154.904 130.088 148.112 127.962 141.953L103.999 147.247C103.999 147.247 105.45 178.018 105.773 181.744C105.949 184.639 106.307 187.52 106.844 190.37C107.96 196.342 109.718 210.551 109.718 210.551C112.251 212.015 115.576 211.206 115.576 211.206C115.576 211.206 115.398 193.237 115.23 188.934C115.035 183.679 114.873 184.078 114.873 184.078L115.671 171.004L116.19 164.495C116.19 164.495 116.854 169.275 117.306 173.544C117.68 177.264 118.583 180.629 119.593 187.559C120.469 193.569 121.892 205.645 121.892 205.645C124.425 207.114 127.867 205.894 127.867 205.894C127.867 205.894 128.755 190.126 128.068 184.915Z" fill="#630C07"/>
<path d="M125.062 105.615C123.202 105.705 121.819 106.179 121.586 105.615C121.385 104.665 121.242 103.704 121.16 102.736C121.376 102.201 121.558 101.61 121.558 101.61C123.896 100.184 124.635 97.6658 124.942 94.77C125.466 89.7897 122.747 85.4347 117.724 84.9107C112.997 84.4262 109.522 87.7277 108.595 92.2348C108.094 94.4883 107.099 98.6799 108.447 102.376C109.198 104.426 110.153 106.055 111.132 106.37C112.068 106.346 113.003 106.265 113.93 106.128C113.93 106.128 114.18 107.514 114.357 108.381C114.533 109.249 114.459 109.739 112.679 110.827C110.898 111.914 115.375 114.156 118.304 113.931C121.234 113.705 124.493 112.01 125.392 110.111C126.398 108.021 126.313 105.553 125.062 105.615Z" fill="#623A17"/>
<path d="M121.991 105.212C122.49 106.453 121.216 107.969 117.813 109.044C114.41 110.119 114.1 108.741 114.1 108.741C114.1 108.741 109.112 111.001 107.483 112.131C105.444 113.554 104.535 117.644 104.258 124.608C103.942 132.641 103.914 144.555 104.18 146.611C104.18 146.611 107.999 150.399 112.886 150.002C117.774 149.605 125.998 145.299 127.993 141.974C127.938 134.934 127.106 133.787 128.254 129.73C130.88 120.44 132.26 116.636 130.986 110.461C129.933 105.372 128.459 104.743 126.441 104.793C124.952 104.854 123.466 104.994 121.991 105.212Z" fill="#FCC8C5"/>
<path d="M96.341 131.6C100.431 132.586 101.392 130.123 101.929 128.091C103.228 123.159 103.929 118.706 104.9 115.903C106.03 112.604 107.239 112.082 108.917 111.435C110.895 110.68 112.59 112.27 111.934 116.475C111.155 121.444 110.138 124.932 108.189 130.813C107.68 132.349 106.539 135.076 104.833 136.397C102.72 138.014 99.5444 137.955 94.7364 136.812C92.6855 136.327 90.4369 135.157 86.5611 133.432C85.5216 132.969 84.708 132.662 82.7136 131.772C80.7192 130.883 78.6345 129.401 77.5892 127.956C76.544 126.511 76.4028 125.8 76.6175 125.498C76.883 125.083 77.3576 125.175 77.9169 125.784C78.7234 126.814 79.7211 127.695 80.8605 128.382C80.8605 128.382 79.5667 127.11 78.8661 126.285C78.2395 125.549 77.7189 124.737 77.318 123.87C76.9508 123.029 77.7135 121.886 78.2898 122.485C78.8661 123.083 79.1486 123.698 80.2051 124.905C80.7599 125.551 81.3955 126.131 82.0978 126.63C81.4419 125.777 80.8581 124.876 80.352 123.935C79.8996 123.203 79.6779 122.363 79.7136 121.515C79.7418 121.073 80.3972 120.55 81.0074 121.385C81.5724 122.134 81.9226 123.309 83.2051 124.587C84.1374 125.509 84.934 126.042 84.9566 125.784C84.9792 125.525 84.3916 125.024 84.0583 123.946C83.7249 122.867 84.0583 121.73 84.6854 121.606C85.3125 121.482 85.1882 121.515 85.6854 122.523C86.1826 123.53 86.9566 124.274 87.5442 125.757C87.8646 126.795 88.4466 127.742 89.2392 128.517C90.2335 129.541 92.4539 130.667 96.341 131.6Z" fill="#623A17"/>
<path d="M110.257 110.247C107.541 109.852 105.623 111.061 104.419 115.148C103.216 119.235 102.383 122.58 102.383 122.58C103.457 124.119 105.086 125.191 106.933 125.574C110.184 126.355 111.354 124.816 111.354 124.816C111.354 124.816 112.26 120.54 112.822 117.629C113.385 114.719 113.621 110.738 110.257 110.247Z" fill="#FCC8C5"/>
<path d="M109.817 90.7172C109.817 90.7172 105.603 84.1925 114.731 82.8426C121.311 81.8864 125.542 86.2175 126.027 90.8747C126.496 95.3464 123.793 99.9868 121.846 101.832C120.898 102.175 118.846 102.394 116.16 101.129C116.051 99.9114 116.008 98.689 116.033 97.4669C116.033 97.4669 119.243 90.5991 109.817 90.7172Z" fill="#2B303F"/>
<path d="M68.1298 70.8049C71.2888 70.8049 73.8497 68.3081 73.8497 65.228C73.8497 62.148 71.2888 59.6511 68.1298 59.6511C64.9708 59.6511 62.4099 62.148 62.4099 65.228C62.4099 68.3081 64.9708 70.8049 68.1298 70.8049Z" fill="#3D348B"/>
<path d="M68.5587 67.9452C66.4276 67.9452 64.3635 67.4671 62.8969 66.6304C61.6732 65.9352 60.9799 65.0576 60.9799 64.2272C60.9799 63.3968 61.6828 62.5192 62.8969 61.8241C64.3635 60.9874 66.4116 60.5093 68.5587 60.5093C70.7059 60.5093 72.7508 60.9905 74.2205 61.8241C75.4443 62.5192 76.1376 63.3968 76.1376 64.2272C76.1376 65.0576 75.4379 65.9352 74.2205 66.6304C72.7635 67.4671 70.6867 67.9452 68.5587 67.9452Z" fill="#B7C0EE"/>
<path d="M68.5587 67.0869C66.4276 67.0869 64.3635 66.5902 62.8969 65.7242C61.6732 65.002 60.9799 64.0903 60.9799 63.2276C60.9799 62.3649 61.6828 61.4531 62.8969 60.7277C64.3635 59.8617 66.4116 59.365 68.5587 59.365C70.7059 59.365 72.7508 59.8617 74.2205 60.7277C75.4443 61.4531 76.1376 62.3616 76.1376 63.2276C76.1376 64.0935 75.4379 65.002 74.2205 65.7242C72.7635 66.5902 70.6867 67.0869 68.5587 67.0869Z" fill="#3D348B"/>
<path d="M68.2711 66.2289C65.4244 66.2289 62.67 65.5567 60.6931 64.4104C59.0457 63.4457 58.1199 62.2323 58.1199 61.0793C58.1199 59.9264 59.0556 58.7264 60.6931 57.7516C62.6535 56.5953 65.4112 55.9331 68.2711 55.9331C71.1309 55.9331 73.8722 56.6054 75.849 57.7516C77.4964 58.7129 78.4256 59.9264 78.4256 61.0793C78.4256 62.2323 77.4865 63.4323 75.849 64.4104C73.8755 65.5668 71.1177 66.2289 68.2711 66.2289Z" fill="#B7C0EE"/>
<path d="M68.2711 64.5128C65.4244 64.5128 62.67 63.8966 60.6931 62.8458C59.0457 61.9646 58.1199 60.8492 58.1199 59.7954C58.1199 58.7416 59.0556 57.6385 60.6931 56.7419C62.6535 55.682 65.4112 55.075 68.2711 55.075C71.1309 55.075 73.8722 55.6912 75.849 56.7419C77.4964 57.6262 78.4256 58.7385 78.4256 59.7954C78.4256 60.8523 77.4865 61.9523 75.849 62.8458C73.8755 63.9058 71.1177 64.5128 68.2711 64.5128Z" fill="#3D348B"/>
<path d="M68.1297 63.3693C64.7554 63.3693 61.4899 62.634 59.1657 61.3503C57.2288 60.278 56.1179 58.93 56.1179 57.6494C56.1179 56.3687 57.2288 55.0207 59.1657 53.9515C61.4899 52.6678 64.7554 51.9294 68.1297 51.9294C71.504 51.9294 74.7663 52.6678 77.0938 53.9515C79.0306 55.0207 80.1415 56.3687 80.1415 57.6494C80.1415 58.93 79.0306 60.278 77.0938 61.3503C74.7695 62.634 71.5008 63.3693 68.1297 63.3693Z" fill="#B7C0EE"/>
<path d="M68.1297 61.9391C64.7554 61.9391 61.4899 61.2036 59.1657 59.9196C57.2288 58.8501 56.1179 57.4986 56.1179 56.2176C56.1179 54.9367 57.2288 53.5883 59.1657 52.5188C61.4899 51.2347 64.7554 50.4993 68.1297 50.4993C71.504 50.4993 74.7663 51.2347 77.0938 52.5188C79.0306 53.5883 80.1415 54.9397 80.1415 56.2207C80.1415 57.5017 79.0306 58.8501 77.0938 59.9196C74.7695 61.2036 71.5008 61.9391 68.1297 61.9391Z" fill="#3D348B"/>
<path d="M67.9883 60.5088C64.1723 60.5088 60.4793 59.628 57.849 58.0842C55.6572 56.803 54.402 55.1823 54.402 53.6449C54.402 52.1075 55.6635 50.49 57.849 49.2024C60.4761 47.6618 64.1723 46.781 67.9852 46.781C71.7981 46.781 75.4974 47.6618 78.1245 49.2056C80.3164 50.4868 81.5716 52.1075 81.5716 53.6449C81.5716 55.1823 80.3101 56.7998 78.1245 58.0842C75.4974 59.628 71.8012 60.5088 67.9883 60.5088Z" fill="#B7C0EE"/>
<path d="M67.9883 58.7931C64.1723 58.7931 60.4793 57.9277 57.849 56.4196C55.6572 55.1654 54.402 53.5788 54.402 52.0738C54.402 50.5688 55.6635 48.9822 57.849 47.7249C60.4761 46.2167 64.1723 45.3513 67.9852 45.3513C71.7981 45.3513 75.4974 46.2167 78.1245 47.7249C80.3164 48.9791 81.5716 50.5688 81.5716 52.0738C81.5716 53.5788 80.3101 55.1622 78.1245 56.4196C75.4974 57.9371 71.8012 58.7931 67.9883 58.7931Z" fill="#3D348B"/>
<path d="M68.4157 57.649C76.9451 57.649 83.8595 53.6796 83.8595 48.7831C83.8595 43.8866 76.9451 39.9172 68.4157 39.9172C59.8864 39.9172 52.972 43.8866 52.972 48.7831C52.972 53.6796 59.8864 57.649 68.4157 57.649Z" fill="#FFDF57"/>
<path d="M64.6978 27.0476H63.2678V47.6393H64.6978V27.0476Z" fill="#483304"/>
<path d="M73.2776 27.0476H72.4196V47.6393H73.2776V27.0476Z" fill="#483304"/>
<path d="M68.1835 27.9057L66.313 26.0304L64.0172 27.7136L63.2678 26.496L66.4379 24.217L68.2549 26.0369L70.4317 24.1877L73.2777 26.496L72.3885 27.6127L70.4288 26.0011L68.1835 27.9057Z" fill="#483304"/>
<path opacity="0.9" d="M83.6783 49.266C83.7037 47.2628 84.0467 41.3489 88.7318 33.1989C94.2746 23.5561 88.4968 0.736084 68.2729 0.736084C48.049 0.736084 42.2712 23.5561 47.814 33.1989C51.8638 40.2452 52.7469 46.4972 52.9311 49.3553" fill="#FFDF57"/>
<path opacity="0.4" d="M73.1202 244.686C84.3721 239.961 91.2817 230.864 88.5533 224.367C85.8249 217.87 74.4917 216.433 63.2398 221.159C51.9879 225.884 45.0783 234.981 47.8067 241.478C50.5351 247.975 61.8684 249.411 73.1202 244.686Z" fill="#9CA1FA"/>
<path d="M84.2805 121.677C86.4832 122.331 87.7438 124.83 89.7026 130.182C91.6613 135.535 92.2848 143.212 92.0273 145.279C91.4037 150.325 89.3772 154.243 84.4567 158.336L82.0846 153.937C82.0846 153.937 86.8966 149.573 87.3914 144.527C87.6693 141.694 84.4296 132.152 84.4296 131.895C84.4296 131.637 84.2805 121.677 84.2805 121.677Z" fill="#E7BC91"/>
<path d="M64.6716 236.907C63.9195 237.133 63.1258 237.197 62.3456 237.094C61.5655 236.992 60.8178 236.726 60.1545 236.314C58.9395 236.348 51.7863 233.603 50.8939 235.908C50.1045 237.907 52.9533 239.799 54.4979 240.158C57.8342 240.945 60.3056 242.564 61.6442 242.823C62.6464 243.03 63.937 243.163 64.7333 242.397C65.7013 241.498 65.6189 238.113 64.6716 236.907Z" fill="#B88683"/>
<path d="M61.8319 242.192C60.4351 241.892 57.9557 240.112 54.5614 239.263C53.2554 238.933 51.0065 237.439 50.783 235.652C50.4757 237.695 53.1087 239.512 54.5614 239.878C57.9557 240.742 60.47 242.522 61.8319 242.807C62.8516 243.034 64.1646 243.181 64.9747 242.339C65.188 242.098 65.3415 241.806 65.4217 241.489C64.9166 241.891 64.3292 242.163 63.706 242.285C63.0829 242.408 62.4412 242.376 61.8319 242.192Z" fill="#FCC8C5"/>
<path d="M82.7156 226.244C82.0667 226.468 81.3743 226.532 80.6964 226.428C80.0185 226.325 79.375 226.058 78.8198 225.649C77.6552 225.684 70.4085 222.939 69.5504 225.241C68.7944 227.26 71.5323 229.127 72.9898 229.486C76.1841 230.274 78.5406 231.885 79.8006 232.161C80.7541 232.362 81.9937 232.5 82.7497 231.74C83.6827 230.813 83.6078 227.44 82.7156 226.244Z" fill="#B88683"/>
<path d="M79.985 231.602C78.6813 231.326 76.2818 229.716 73.0502 228.929C71.8089 228.632 69.6591 227.271 69.4441 225.654C69.1529 227.512 71.6633 229.157 73.0502 229.488C76.3026 230.276 78.7021 231.885 79.985 232.162C80.9559 232.362 82.218 232.5 82.9878 231.74C83.187 231.517 83.3338 231.253 83.4177 230.967C82.9338 231.33 82.372 231.576 81.7764 231.686C81.1807 231.797 80.5676 231.768 79.985 231.602Z" fill="#FCC8C5"/>
<path d="M85.4755 208.857C85.488 206.113 85.0143 203.388 84.0756 200.803C84.0756 200.803 85.0275 189.776 85.7414 182.539C86.7984 171.862 88.4712 170.805 88.0023 164.323C87.5613 158.309 84.0756 154.402 83.1656 150.337L65.401 151.71C65.401 151.71 63.8611 156.654 61.8592 166.493C59.8574 176.332 59.7594 188.032 59.9274 203.536C59.9764 207.525 59.2274 210.999 59.4724 220.948C59.6334 227.643 60.0184 235.841 60.0184 235.841C62.6222 238.024 64.421 236.411 64.421 236.411C64.421 236.411 68.9707 216.595 69.6426 212.043C70.3426 207.333 69.0267 204.49 69.0267 204.49C69.0267 204.49 70.3566 198.263 71.3435 193.367C72.5544 187.393 75.5432 174.485 75.5432 174.485C75.5432 174.485 75.0322 194.315 75.9142 198.214C76.7961 202.114 76.9571 205.527 77.706 210.841C78.616 217.268 79.0289 226.668 79.0289 226.668C81.7377 228.357 82.9346 227.059 82.9346 227.059C82.9346 227.059 85.4755 214.473 85.4755 208.857Z" fill="#E7BC91"/>
<path d="M83.1288 150.337C84.9981 152.206 88.0833 157.921 88.0833 166.561C88.0833 176.289 86.6356 174.317 85.975 185.025L85.2722 195.739C85.2722 195.739 70.3664 202.717 59.7404 196.236C58.7917 194.216 60.0989 171.697 61.9542 163.692C63.8095 155.688 65.1096 151.764 65.1096 151.764C65.1096 151.764 78.8067 155.384 83.1288 150.337Z" fill="#1F94AD"/>
<path d="M82.9206 122.038C79.2685 121.818 78.9174 122.43 78.6271 121.116C78.5259 120.641 78.3233 117.367 78.3233 117.367C78.6571 116.929 78.9616 116.47 79.2347 115.991C80.9014 114.95 82.2059 113.404 82.9647 111.568C83.7235 109.732 83.8983 107.701 83.4646 105.759C83.0308 103.817 82.0103 102.062 80.5467 100.742C79.0831 99.4219 77.2501 98.6028 75.3057 98.4C70.4654 97.884 66.9077 101.351 65.9559 106.105C65.4428 108.458 64.9162 113.26 66.3474 117.112C67.1575 119.293 67.9069 120.813 69.8376 120.738C70.4804 120.676 71.1171 120.561 71.7413 120.394C71.8511 121.306 71.8873 122.227 71.8493 123.145C71.8021 124.095 71.9573 124.576 70.1279 125.718C68.2984 126.86 72.8957 129.227 75.8931 128.993C78.8904 128.759 82.2658 126.929 83.1907 124.941C84.2168 122.705 84.6353 122.148 82.9206 122.038Z" fill="#E7BC91"/>
<path d="M85.3327 137.674C85.3327 137.674 89.9636 136.79 92.0824 135.054C92.0824 135.054 89.328 127.716 87.5422 125.871C85.7564 124.027 84.0842 135.868 84.0842 135.868L85.3327 137.674Z" fill="#EDEDED"/>
<path d="M79.1503 121.747C79.8374 122.588 79.913 123.652 77.2607 124.31C75.3366 124.854 73.2785 124.697 71.4615 123.869C69.3732 124.741 67.3661 125.792 65.463 127.008C63.1749 134.344 65.0301 135.293 64.0887 140.568C64.4529 143.219 64.8995 150.06 65.0095 151.592C70.0666 155.077 80.3321 153.884 82.6339 150.196C82.676 148.96 82.793 147.729 82.9844 146.507C85.403 137.694 87.2857 135.341 86.6123 128.683C86.2275 124.879 85.9252 122.961 83.8639 121.944C82.6339 121.544 79.8992 121.7 79.1503 121.747Z" fill="#F4F4F4"/>
<path d="M65.7509 138.156C64.5784 140.533 63.8966 143.161 63.7536 145.857C63.6105 148.552 64.0097 151.25 64.9231 153.758L63.3594 160.336C63.3594 160.336 57.3437 150.278 59.0668 143.574C60.79 136.869 61.673 134.925 61.673 134.925L66.0882 134.341L65.7509 138.156Z" fill="#E7BC91"/>
<path d="M67.611 139.006C64.502 138.574 61.6259 137.172 59.423 135.017L64.3781 128.401C64.3781 128.401 67.1658 125.009 70.8512 126.933C70.8512 126.933 73.6316 127.214 70.8512 132.812C68.0707 138.409 67.611 139.006 67.611 139.006Z" fill="#EDEDED"/>
<path d="M64.5413 103.215C64.9759 100.133 68.3459 99.5224 69.5927 99.7439C71.2754 98.6589 73.3168 98.1822 75.3424 98.4012C79.9307 98.851 82.9374 101.651 84.3267 105.988C84.9679 107.612 85.3028 109.982 85.6804 112.607C87.0697 122.248 90.7817 129.895 87.3049 132.749C83.828 135.602 74.3236 137.448 70.3551 135.595C66.3866 133.742 73.6254 117.2 65.7525 107.975C63.9143 105.84 63.7433 104.309 64.5413 103.215Z" fill="#B26949"/>
<path d="M60.9076 235.844L60.756 231.653C62.2272 232.417 63.8909 232.517 65.4216 231.931L64.5643 236.407C64.122 236.825 63.558 237.029 62.9896 236.977C62.2058 236.882 61.4722 236.483 60.9076 235.844Z" fill="#F4F6F9"/>
<path d="M78.9236 226.16L78.752 222.322C79.4359 222.742 80.2174 222.999 81.0297 223.073C81.8421 223.147 82.6614 223.034 83.4176 222.745L82.6785 226.477C82.6785 226.477 82.5466 226.987 81.2927 226.987C80.4333 226.94 79.6084 226.652 78.9236 226.16Z" fill="#F4F6F9"/>
</svg>
