<svg width="23.2" height="21.6" viewBox="0 0 29 27" fill="none" xmlns="http://www.w3.org/2000/svg">
<path fill-rule="evenodd" clip-rule="evenodd" d="M14.5114 26.287C14.3484 26.1099 14.2191 25.8995 14.1309 25.6679C14.0426 25.4363 13.9972 25.1881 13.9972 24.9373C13.9972 24.6866 14.0426 24.4383 14.1309 24.2067C14.2191 23.9751 14.3484 23.7648 14.5114 23.5877L23.7759 13.4998L14.5114 3.41196C14.3486 3.23473 14.2196 3.02432 14.1315 2.79275C14.0435 2.56118 13.9981 2.31299 13.9981 2.06234C13.9981 1.81169 14.0435 1.5635 14.1315 1.33193C14.2196 1.10036 14.3486 0.88995 14.5114 0.712713C14.6741 0.535479 14.8672 0.394888 15.0798 0.298967C15.2924 0.203049 15.5202 0.153683 15.7504 0.153683C15.9805 0.153683 16.2083 0.203049 16.4209 0.298967C16.6335 0.394888 16.8266 0.535479 16.9894 0.712713L27.4894 12.1502C27.6523 12.3273 27.7816 12.5376 27.8698 12.7692C27.9581 13.0008 28.0035 13.2491 28.0035 13.4998C28.0035 13.7506 27.9581 13.9988 27.8698 14.2304C27.7816 14.462 27.6523 14.6724 27.4894 14.8495L16.9894 26.287C16.8268 26.4645 16.6337 26.6053 16.4211 26.7014C16.2085 26.7975 15.9805 26.847 15.7504 26.847C15.5202 26.847 15.2922 26.7975 15.0796 26.7014C14.867 26.6053 14.6739 26.4645 14.5114 26.287Z" fill="white"/>
<path fill-rule="evenodd" clip-rule="evenodd" d="M26.2501 13.5001C26.2501 14.0056 26.0657 14.4905 25.7375 14.848C25.4093 15.2055 24.9642 15.4063 24.5001 15.4063L1.75006 15.4063C1.28593 15.4063 0.840811 15.2055 0.512623 14.848C0.184435 14.4905 6.10352e-05 14.0056 6.10352e-05 13.5001C6.10352e-05 12.9945 0.184435 12.5096 0.512623 12.1521C0.840811 11.7946 1.28593 11.5938 1.75006 11.5938L24.5001 11.5938C24.9642 11.5938 25.4093 11.7946 25.7375 12.1521C26.0657 12.5096 26.2501 12.9945 26.2501 13.5001Z" fill="white"/>
</svg>
