<svg width="62" height="61" viewBox="0 0 62 61" fill="none" xmlns="http://www.w3.org/2000/svg">
<rect x="1.49854" y="0.5" width="60" height="60" rx="30" fill="white"/>
<path d="M27.2073 36.5486C26.8168 36.9388 26.1839 36.9386 25.7935 36.5482L20.9498 31.7046C20.5603 31.3151 19.9291 31.314 19.5381 31.7021L18.8273 32.4079C18.4345 32.798 18.4333 33.4331 18.8248 33.8246L25.7931 40.7929C26.1837 41.1834 26.8168 41.1834 27.2073 40.7929L43.7931 24.2071C44.1837 23.8166 44.1837 23.1834 43.7931 22.7929L43.092 22.0918C42.7016 21.7014 42.0687 21.7012 41.6781 22.0914L27.2073 36.5486Z" fill="#44AF69"/>
<rect x="1.49854" y="0.5" width="60" height="60" rx="30" stroke="#B3160D"/>
</svg>
