<svg width="459" height="195" viewBox="0 0 459 195" fill="none" xmlns="http://www.w3.org/2000/svg">
<path d="M275.873 140.342C275.873 140.342 274.629 157.452 274.205 168.792C273.78 180.132 274.205 187.117 275.025 192.83C275.76 197.949 284.499 199.872 286.931 205.132C288.486 208.497 283 214.068 277.429 210.109C270.981 205.528 265.636 201.484 265.664 197.072C265.692 194.951 266.145 193.707 264.703 187.146C261.507 172.581 255.54 152.192 261.479 143.934C264.08 140.257 275.873 140.342 275.873 140.342Z" fill="#CB9662"/>
<path d="M248.046 148.091C249.544 166.643 243.492 177.644 242.418 187.089C241.767 192.858 240.664 197.836 241.513 206.376C242.361 214.917 244.482 222.128 238.939 221.93C231.219 221.676 230.059 218.593 229.324 213.446C228.617 208.299 230.031 203.152 230.512 198.769C230.823 195.884 229.946 174.194 230.37 159.177C230.625 151.428 232.294 144.924 232.294 144.924C232.294 144.924 247.734 144.104 248.046 148.091Z" fill="#CB9662"/>
<path d="M227.005 66.1919C227.005 66.1919 218.267 78.4937 215.92 85.592C213.572 92.6903 216.033 105.756 219.737 112.43C223.47 119.104 236.705 120.801 236.705 120.801L246.094 90.3713L227.005 66.1919Z" fill="#33211F"/>
<path d="M279.997 110.56C279.997 110.56 280.476 114.855 274.382 111.68C271.289 110.059 272.74 100.259 272.036 100.829C268.294 103.934 265.746 100.816 267.255 99.6815C268.764 98.5468 270.936 96.7066 271.063 95.2522C271.346 91.591 266.115 79.6941 265.041 75.0627C262.392 63.6704 261.87 55.0141 261.87 55.0141C261.87 55.0141 269.251 48.5155 272.882 48.4594C276.53 48.3806 272.993 65.7495 274.457 75.8424C275.007 79.6626 277.566 95.0712 278.51 97.5994C281.518 105.845 279.997 110.56 279.997 110.56Z" fill="#CB9662"/>
<path d="M260.969 60.4228C260.206 59.7158 258.141 56.5484 258.141 56.5484L255.313 34.2355C255.313 34.2355 261.648 30.8702 267.898 38.8734C269.849 41.362 273.441 47.8947 275.873 50.8641C272.762 57.312 267.53 59.5178 260.969 60.4228Z" fill="#055B9B"/>
<path d="M249.516 155.387C243.804 158.498 234.076 159.487 228.42 152.474C229.324 140.907 231.276 119.499 230.88 113.363C229.664 94.4716 240.071 84.5453 240.071 84.5453C239.251 78.1823 268.775 87.0905 268.775 87.0905C268.775 87.0905 275.11 121.309 277.768 139.324C278.079 141.36 278.334 143.566 278.56 145.885C272.48 148.939 264.788 152.106 257.746 148.091L253.419 119.641C253.391 119.669 251.807 142.689 249.516 155.387Z" fill="#272833"/>
<path d="M272.763 109.319C272.763 109.319 266.004 105.473 264.845 101.089C263.657 96.7341 270.585 97.0169 270.585 97.0169L272.763 109.319Z" fill="#535251"/>
<path d="M246.095 105.444C246.095 105.444 245.953 113.985 239.421 117.944C232.888 121.931 230.824 122.638 230.824 122.638C230.824 122.638 229.297 108.64 232.04 99.8448C234.783 91.078 246.095 105.444 246.095 105.444Z" fill="#535251"/>
<path d="M272.084 100.947C265.552 104.341 248.725 112.259 229.297 103.549C229.297 95.8288 232.407 70.9989 227.939 48.884C230.909 39.0708 242.899 35.3095 242.899 35.3095L256.134 34.4329C256.134 34.4329 261.338 34.546 264.703 39.6929C272.565 51.7685 269.567 71.5363 269.878 82.2544C270.076 88.278 270.133 94.641 272.084 100.947Z" fill="#44AF69"/>
<path d="M254.409 32.1987L255.823 40.3716C255.823 40.3716 255.767 43.0582 254.409 45.4903C251.185 44.4722 249.008 43.7935 246.038 42.2381C242.475 40.3716 240.071 37.4871 240.071 37.4871L242.56 23.6016L254.409 32.1987Z" fill="#CB9662"/>
<path d="M255.795 34.0372C255.795 34.0372 257.548 36.8086 258.199 43.1716C258.679 48.0075 256.87 52.3061 256.87 52.3061C256.87 52.3061 249.149 51.1183 243.041 46.1693C239.732 43.4827 237.837 37.6288 237.837 37.6288L240.326 36.1016C240.326 36.1016 242.334 38.9014 246.236 41.6162C249.658 44.0201 254.409 45.4906 254.409 45.4906L253.9 33.7544L255.795 34.0372Z" fill="white"/>
<path d="M241.174 8.3023C244.539 4.00373 254.239 0.383891 260.546 9.7163C267.163 19.5012 260.913 35.5077 255.116 34.5744C251.864 34.0654 244.567 31.096 241.372 25.8642C237.752 20.0102 238.572 11.6393 241.174 8.3023Z" fill="#CB9662"/>
<path d="M234.019 57.623C234.019 57.623 235.178 68.4542 232.576 76.4857C229.975 84.489 226.411 93.0013 222.424 88.7593C218.436 84.5173 219.455 66.5877 221.773 57.6512C224.092 48.7147 234.019 57.623 234.019 57.623Z" fill="#CB9662"/>
<path d="M237.667 66.9555C232.775 67.4928 225.365 67.012 219.766 62.7417C220.784 52.2781 223.046 41.1923 231.813 40.0329C236.621 39.4107 239.336 48.63 238.94 54.5405C238.798 56.605 238.544 62.968 237.667 66.9555Z" fill="#055B9B"/>
<path d="M241.711 64.8061C241.711 64.8061 245.812 45.604 240.043 38.9865C234.302 32.3972 229.268 40.7115 229.268 40.7115C229.268 40.7115 231.756 40.0611 236.677 46.9897C239.958 51.5428 241.711 64.8061 241.711 64.8061Z" fill="#33211F"/>
<path d="M263.034 13.0254C261.677 15.1747 259.584 17.6633 254.182 17.9744C249.771 18.2006 246.264 16.8997 246.264 16.8997L246.632 22.8103C246.632 22.8103 245.755 22.8386 245.02 22.584C244.426 20.3499 243.464 19.8126 242.39 20.7741C241.145 21.8488 241.343 25.9494 241.343 25.9494C241.343 25.9494 236.677 21.9053 236.677 15.1747C236.677 10.9609 240.354 1.85478 248.074 0.893255C255.794 -0.0682663 261.281 3.97578 263.147 8.07638C264.137 10.0843 263.628 12.0356 263.034 13.0254Z" fill="#33211F"/>
<path d="M256.219 56.5203C262.751 56.6051 262.638 63.2226 259.669 69.0483C259.923 69.3311 260.178 69.6705 260.376 70.0664C263.317 75.5244 258.453 84.6023 252.655 87.1475C256.756 91.1916 261.79 86.1577 260.715 82.4248C260.206 80.6714 260.743 80.021 261.309 81.039C266.428 90.0604 253.08 95.7729 248.583 87.7414C247.113 87.4869 245.642 86.6951 244.369 85.1396C237.667 76.9102 244.341 56.3789 256.219 56.5203ZM247.395 82.0006C247.565 77.6454 249.601 72.7813 252.259 70.0381C254.126 68.0868 256.784 67.097 258.792 68.2847C259.471 66.8707 259.725 65.4285 259.782 64.0993C260.065 57.1424 252.684 58.4716 249.545 61.8369C245.67 67.1536 244.567 71.1128 244.313 74.7892C244.03 76.9667 244.85 80.8976 247.395 82.0006Z" fill="white"/>
<path d="M242.446 148.091C242.446 148.091 239.024 148.091 236.564 146.903C234.952 146.14 232.322 144.896 232.322 144.896L231.728 148.091C231.728 148.091 233.623 149.731 236.564 150.438C239.505 151.145 241.739 151.145 241.739 151.145L242.446 148.091Z" fill="white"/>
<path d="M243.493 48.1205C246.547 50.4961 249.856 56.5763 245.727 64.3816C241.598 72.1869 237.837 85.5067 229.833 89.466C221.83 93.4252 220.586 84.7432 224.63 77.3055C228.674 69.8679 238.148 66.8985 238.233 61.7232C238.459 46.7065 240.863 46.0844 243.493 48.1205Z" fill="#CB9662"/>
<path d="M347.847 69.5408C347.847 69.5408 358.651 70.2808 364.157 73.4184C369.662 76.5264 368.153 98.8746 365.163 107.015C362.174 115.155 355.928 122.762 355.928 122.762C355.928 122.762 338.908 114.859 338.553 114.711C338.197 114.563 347.847 69.5408 347.847 69.5408Z" fill="#B3160D"/>
<path d="M332.425 24.4596C332.307 24.4596 332.218 24.4892 332.129 24.5484C332.04 24.4892 331.922 24.4892 331.833 24.6076C330.087 26.5612 326.535 28.3668 326.446 31.2676C326.416 32.4516 329.228 34.4348 329.643 35.6484C330.176 37.1876 328.429 38.0757 327.867 38.7565C326.979 39.7629 324.818 41.8349 330.057 45.0909C333.58 47.2813 329.613 50.4781 334.053 51.2774C341.453 52.639 345.568 47.6957 345.982 40.4437C346.367 33.754 339.588 23.9564 332.425 24.4596Z" fill="#33211F"/>
<path d="M327.689 102.9C327.689 102.9 320.467 134.72 318.869 138.716C317.27 142.712 318.602 144.991 320.674 154.108C322.746 163.225 324.463 178.854 325.144 185.425C325.765 191.552 325.617 198.479 323.338 200.699C321.059 202.948 313.244 211.71 315.435 213.427C317.625 215.144 320.053 213.723 323.368 210.97C326.683 208.217 329.821 207.507 332.041 206.352C334.557 205.02 335.563 202.86 333.58 194.749C331.863 187.763 336.333 167.783 336.333 157.542C336.333 151.059 334.497 144.814 334.527 144.251C334.793 138.805 344.414 127.468 327.689 102.9Z" fill="#94623D"/>
<path d="M342.43 137.473C342.43 137.473 341.75 162.159 343.555 167.99C344.976 172.549 349.505 197.295 349.949 201.35C350.57 206.974 349.682 212.391 349.949 216.564C350.156 219.732 343.555 230.092 351.014 226.451C356.135 223.964 360.427 216.12 358.888 211.207C358.296 209.342 357.112 207.063 357.408 201.468C357.911 191.463 359.835 186.639 359.154 177.581C359.036 175.923 357.497 163.047 358.178 155.766C359.125 145.524 360.575 138.449 359.273 136.111C357.023 132.085 342.43 137.473 342.43 137.473Z" fill="#94623D"/>
<path d="M332.277 47.2215C332.277 47.2215 324.7 45.7711 321.592 51.5135C320.437 53.6447 312.83 67.2312 309.781 72.5297C308.035 75.5785 307.946 77.2953 308.538 80.0481C308.923 81.8241 309.87 84.9322 311.794 87.6258C314.132 90.8818 319.312 94.197 320.2 97.897C320.822 100.502 318.632 105.564 320.792 108.494C322.302 110.536 320.171 110.418 318.602 111.78C317.033 113.112 317.359 115.243 320.792 113.644C324.196 112.046 331.567 109.471 331.567 109.471C331.567 109.471 329.228 101.686 327.837 96.7426C326.446 91.829 319.638 84.0737 316.885 79.2193C319.816 72.5593 333.402 58.6472 333.402 58.6472L332.277 47.2215Z" fill="#94623D"/>
<path d="M364.157 144.991C365.222 138.598 365.725 128.77 364.157 122.11C361.729 111.898 358.177 105.712 358.177 105.712C346.16 113.822 324.788 106.748 324.788 106.748L315.02 134.601C319.519 141.498 335.592 156.446 364.157 144.991Z" fill="#B3160D"/>
<path d="M341.424 59.2689C346.278 57.5817 349.683 49.8561 350.985 46.452C350.926 46.3336 350.837 46.2152 350.807 46.0968C349.238 41.8344 350.304 35.6479 350.304 35.6479L339.559 38.5784C339.441 41.0056 339.411 43.3736 338.109 44.824C337.754 45.2384 337.102 45.5936 336.392 45.9192C335.415 47.8728 333.373 52.1649 332.366 55.9537C331.538 59.0617 336.718 60.9265 341.424 59.2689Z" fill="#94623D"/>
<path d="M325.321 58.943C323.96 61.8143 322.509 65.4255 325.795 71.1679C327.216 77.3544 326.446 79.456 326.357 86.8561C326.269 94.0785 322.509 106.955 322.509 106.955C322.509 106.955 325.144 112.075 335.474 114.147C349.416 116.93 360.782 108.375 360.782 108.375C360.782 108.375 352.524 91.5625 354.034 85.376C357.201 72.4999 358.296 69.6879 359.006 67.6159C361.878 59.535 360.368 52.4606 360.368 52.4606C360.368 52.4606 352.583 49.4414 350.985 46.4518C349.682 49.8558 346.278 57.5814 341.424 59.2686C336.718 60.9263 331.537 59.0614 332.366 55.9534C333.373 52.135 335.415 47.8726 336.392 45.9189C334.557 46.7182 332.041 47.251 331.005 47.3102C330.176 48.731 328.045 53.2006 325.321 58.943Z" fill="#8E94F2"/>
<path d="M341.779 73.7143C339.707 70.8726 335.859 69.511 332.425 72.2046C326.535 76.8815 329.85 86.6495 333.669 91.4448C335.534 93.8128 338.612 96.9504 341.957 96.5064C345.834 96.0032 347.344 91.2376 347.758 87.9224C348.38 83.0383 346.012 76.8519 341.779 73.7143Z" fill="#B3160D"/>
<path d="M377.802 119.861C377.181 116.249 374.783 94.3157 372.267 85.998C370.846 81.262 368.449 72.6483 367.798 66.5211C366.495 54.1482 363.446 52.461 358.799 51.6618C357.023 51.3658 354.27 58.085 353.708 64.9227C353.441 68.4155 358.296 76.7628 359.45 80.6108C359.628 81.2324 363.446 86.59 363.269 97.7197C363.15 105.801 370.343 117.937 369.159 122.436C366.229 133.595 369.485 137.562 370.994 138.953C374.28 141.913 381.384 141.054 377.802 119.861Z" fill="#94623D"/>
<path d="M353.59 49.0271C353.59 49.0271 347.847 58.5584 350.422 69.6881C352.346 78.0649 355.306 80.5513 357.112 82.2977C358.947 84.0146 361.227 83.1858 361.227 83.1858C361.227 83.1858 352.938 65.248 355.928 57.6112C358.947 49.9743 360.279 50.0039 360.279 50.0039L353.59 49.0271Z" fill="#B3160D"/>
<path d="M334.024 17.7697C328.903 23.0977 330.975 41.4794 338.493 42.6634C343.377 43.433 350.215 39.1114 352.672 30.6161C354.744 23.4825 343.703 7.70558 334.024 17.7697Z" fill="#94623D"/>
<path d="M362.41 35.0562C361.582 33.7242 362.233 31.889 362.618 30.6754C363.713 27.153 363.476 25.4658 360.072 23.2161C358.326 22.0617 357.586 15.1057 356.905 13.9217C355.07 10.7544 353.59 7.43922 348.617 10.192C347.433 7.26162 343.17 5.84081 336.244 9.03763C334.32 9.92564 332.958 12.6193 332.307 14.5137C331.034 18.1841 329.761 19.2793 326.002 20.2265C326.624 21.5289 328.755 24.3705 331.656 22.9793C335.208 21.2921 342.075 24.8737 346.012 24.2521C347.107 25.3474 347.433 26.9754 348.054 28.6034C352.228 25.9394 352.702 30.5866 350.334 33.1026C348.084 45.8899 351.014 49.5307 358.503 51.6027C360.871 52.254 362.706 52.2243 362.884 48.9387C363.032 46.1563 358.888 44.5283 361.138 41.5091C362.114 40.1771 363.387 40.9763 364.068 38.9931C364.69 37.0098 362.647 35.4114 362.41 35.0562Z" fill="#33211F"/>
<path d="M149.605 88.1579C167.179 90.2285 187.144 111.369 194.26 135.386C199.831 154.177 195.85 169.174 185.42 173.79C185.42 173.79 185.401 173.79 185.401 173.809C184.213 174.367 182.887 174.754 181.501 174.987C181.482 174.987 181.463 174.988 181.463 175.007C179.558 175.345 177.513 175.395 175.328 175.138C171.519 174.694 167.581 173.344 163.69 171.26C158.437 168.445 153.24 164.258 148.532 159.156C147.904 158.471 147.276 157.767 146.667 157.062C140.518 149.898 135.311 141.137 131.986 131.808L131.986 131.788C131.663 130.906 131.361 130.042 131.097 129.158C130.955 128.735 130.833 128.332 130.711 127.909C129.004 122.164 128.189 116.792 128.194 111.948C128.181 104.692 129.963 98.6822 133.238 94.4836C134.128 93.3508 135.116 92.3324 136.242 91.4856C139.694 88.751 144.23 87.5055 149.605 88.1579ZM169.079 170.253L168.164 167.179C168.862 167.419 169.522 167.622 170.2 167.785L171.012 170.475C175.069 170.742 178.701 169.741 181.58 167.401C183.422 166.64 185.102 165.476 186.507 163.892C186.905 163.461 187.265 163.012 187.605 162.505C188.172 161.725 188.699 160.848 189.148 159.896C189.242 159.682 189.354 159.487 189.428 159.255C192.674 151.776 191.878 141.212 187.937 130.695C187.917 130.676 187.917 130.638 187.897 130.599C185.102 123.153 180.744 115.711 175.129 109.389C175.09 109.331 175.051 109.293 175.012 109.275C174.619 108.817 174.188 108.361 173.776 107.923C166.284 99.9881 158.17 95.5942 151.212 94.8884C150.323 94.8053 149.454 94.7798 148.624 94.8116C148.007 94.8209 147.41 94.8878 146.813 94.974C144.251 95.3406 141.97 96.3206 140.006 97.9327C137.072 99.1541 134.615 101.372 132.869 104.602L134.615 106.467C134.432 107.126 134.249 107.804 134.105 108.482L132.046 106.313C129.456 112.489 129.58 120.708 131.909 129.261L135.988 129.74C136.272 130.624 136.574 131.488 136.897 132.39L132.701 131.893C135.475 140.498 140.374 149.263 146.947 156.478L148.724 152.727C149.333 153.432 149.962 154.156 150.609 154.821L148.85 158.515C155.591 165.265 162.752 169.229 169.079 170.253Z" fill="#171717"/>
<path d="M146.304 93.2258L148.218 93.4478L148.462 94.274L148.605 94.793L149.295 97.0599L157.145 123.671C157.164 123.671 157.145 123.69 157.145 123.69L158.894 129.627L159.219 130.645L159.768 132.509L159.992 133.278L159.992 133.297L160.317 134.392L160.541 135.18L161.09 137.044L161.355 137.928L163.104 143.884L170.18 167.805L170.993 170.495L171.806 173.261L172.091 174.222L170.158 174L169.873 173.059L169.06 170.292L168.164 167.179L161.209 143.642L159.44 137.686L159.44 137.667L159.195 136.783L158.646 134.919L158.422 134.17L158.422 134.151L158.097 133.055L157.873 132.268L157.324 130.423L157.019 129.385L155.25 123.429L147.4 96.8375L146.851 94.9737L146.586 94.0514L146.304 93.2258Z" fill="#B2B2B2"/>
<path d="M170.668 106.6L172.59 108.636L172.309 109.22L171.467 110.988L163.254 128.211L161.458 132.002L161.459 132.021L161.141 132.682L160.56 133.887L160.336 134.373L159.999 135.073L159.756 135.578L159.195 136.783L158.895 137.367L157.043 141.254L150.608 154.784L148.849 158.477L148.532 159.157L148.008 160.246L147.746 160.809L145.824 158.793L146.105 158.209L146.666 157.043L146.947 156.44L148.724 152.689L155.141 139.237L156.974 135.369L157.274 134.766L157.834 133.561L158.078 133.056L158.415 132.356L158.658 131.851L159.219 130.646L159.536 129.965L161.37 126.155L169.545 108.952L170.406 107.183L170.668 106.6Z" fill="#B2B2B2"/>
<path d="M129.298 128.915L129.898 128.983L131.077 129.139L131.908 129.223L136.007 129.702L151.377 131.516L155.766 132.029L156.481 132.134L156.5 132.115L157.854 132.268L158.415 132.356L159.207 132.441L159.207 132.421L159.768 132.509L161.141 132.682L161.856 132.748L166.148 133.262L185.597 135.536L187.627 135.795L188.323 135.862L189.096 138.514L188.42 138.427L186.37 138.188L166.902 135.895L162.59 135.381L161.913 135.295L160.56 135.141L159.999 135.073L159.188 134.988L158.627 134.92L157.274 134.766L156.578 134.68L152.17 134.168L136.915 132.352L132.701 131.855L131.966 131.789L131.966 131.77L130.69 131.615L130.09 131.547L129.298 128.915Z" fill="#B2B2B2"/>
<path d="M130.299 101.843L130.888 102.471L132.888 104.563L134.634 106.429L152.206 125.039L156.54 129.624L157.305 130.423L158.658 131.85L159.207 132.441L159.207 132.421L159.992 133.278L160.56 133.887L161.913 135.295L162.58 136.018L166.875 140.547L186.193 161.002L187.605 162.486L188.173 163.095L188.919 163.875L188.114 165.567L187.389 164.806L186.487 163.873L185.388 162.693L166.052 142.257L161.756 137.69L161.109 137.005L159.756 135.578L159.187 134.988L158.403 134.17L158.384 134.151L157.834 133.561L156.5 132.115L156.481 132.134L155.756 131.373L151.401 126.73L134.123 108.443L132.045 106.274L130.084 104.181L129.476 103.553L130.299 101.843Z" fill="#B2B2B2"/>
<path d="M172.243 106.113C173.204 107.122 174.127 108.169 175.03 109.236C175.07 109.274 175.108 109.293 175.148 109.35C180.571 115.792 184.889 123.138 187.915 130.561C187.935 130.58 187.935 130.619 187.955 130.657C193.268 143.816 194.415 157.212 190.075 166.328C188.054 170.527 185.106 173.39 181.52 174.968C181.501 174.968 181.482 174.969 181.482 174.988C172.086 179.009 158.368 174.159 146.053 161.144C128.991 143.105 121.019 116.09 128.22 100.909C129.53 98.1875 131.216 96.0392 133.237 94.4455C142.429 87.0892 158.241 91.3286 172.243 106.113ZM149.295 97.06C148.656 96.9346 147.999 96.8673 147.362 96.8383C144.696 96.6468 142.211 96.993 140.006 97.914C137.071 99.1354 134.615 101.353 132.869 104.583C132.719 104.856 132.588 105.128 132.438 105.419C132.288 105.711 132.157 105.983 132.045 106.294C129.456 112.47 129.58 120.69 131.908 129.243C132.153 130.127 132.418 131.011 132.701 131.875C135.474 140.479 140.373 149.244 146.947 156.46C147.222 156.784 147.516 157.107 147.811 157.412C148.163 157.773 148.497 158.135 148.85 158.496C155.591 165.284 162.753 169.268 169.079 170.273C169.736 170.359 170.375 170.446 171.012 170.475C175.069 170.742 178.701 169.742 181.58 167.402C183.067 166.202 184.356 164.62 185.389 162.713C185.539 162.44 185.67 162.168 185.82 161.876C185.951 161.585 186.082 161.313 186.193 161.022C188.783 154.884 188.68 146.722 186.371 138.207C186.145 137.323 185.881 136.459 185.597 135.556C182.863 126.989 177.984 118.243 171.467 111.008C171.134 110.627 170.8 110.265 170.447 109.904C170.153 109.58 169.84 109.276 169.545 108.972C162.803 102.125 155.66 98.1222 149.295 97.06Z" fill="#B2B2B2"/>
<path d="M136.222 91.4668C139.098 90.1884 142.468 89.7131 146.277 90.1575C163.832 92.2284 183.816 113.388 190.932 137.386C195.853 154.025 193.299 167.669 185.44 173.809C185.44 173.809 185.42 173.809 185.421 173.828C181.949 176.544 177.413 177.77 172.019 177.137C154.464 175.066 134.48 153.926 127.364 129.909C121.792 111.06 125.793 96.082 136.222 91.4668ZM130.888 102.47C130.606 103.015 130.325 103.579 130.064 104.181C129.114 106.454 128.459 109.049 128.154 111.93C127.631 116.897 128.162 122.698 129.878 128.983C130 129.406 130.122 129.81 130.244 130.232C130.386 130.693 130.529 131.174 130.67 131.616C133.85 141.565 139.433 150.899 146.105 158.209C146.733 158.914 147.38 159.579 148.007 160.245C152.926 165.208 158.311 169.064 163.689 171.241C165.767 172.098 167.842 172.704 169.892 173.02C170.201 173.054 170.511 173.107 170.801 173.141C171.149 173.175 171.497 173.208 171.825 173.223C178.954 173.733 184.329 170.525 187.369 164.786C187.65 164.242 187.912 163.678 188.154 163.076C188.676 161.891 189.101 160.592 189.427 159.216C190.808 153.522 190.566 146.385 188.419 138.427C188.277 137.966 188.155 137.505 188.012 137.024C187.89 136.602 187.749 136.199 187.608 135.776C184.467 125.846 178.903 116.531 172.289 109.219C171.661 108.515 171.014 107.83 170.387 107.183C164.409 101.097 157.704 96.6823 151.211 94.8694C150.3 94.6129 149.371 94.4146 148.462 94.2739C148.133 94.221 147.785 94.1683 147.436 94.1157C147.127 94.0817 146.818 94.0478 146.528 94.0329C139.379 93.4843 133.966 96.6923 130.888 102.47Z" fill="#171717"/>
<path d="M140.006 97.9141C138.309 99.2906 136.87 101.126 135.765 103.42C135.317 104.373 134.927 105.382 134.614 106.429L132.869 104.564C134.615 101.334 137.071 99.1162 140.006 97.9141Z" fill="#B2B2B2"/>
<path d="M132.045 106.274L134.104 108.444C132.807 114.6 133.557 122.077 135.987 129.702L131.908 129.223C129.598 120.67 129.475 112.45 132.045 106.274Z" fill="#B2B2B2"/>
<path d="M132.7 131.855L136.896 132.352C139.512 139.453 143.555 146.533 148.704 152.689L146.927 156.44C140.392 149.224 135.474 140.459 132.7 131.855Z" fill="#B2B2B2"/>
<path d="M170.2 167.785C174.385 168.88 178.281 168.764 181.561 167.402C178.682 169.742 175.05 170.762 170.993 170.475L170.2 167.785Z" fill="#B2B2B2"/>
<path d="M150.608 154.784C150.785 154.993 150.962 155.203 151.158 155.393C156.727 161.292 162.635 165.256 168.164 167.16L169.079 170.254C162.752 169.229 155.591 165.265 148.85 158.477L150.608 154.784Z" fill="#B2B2B2"/>
<path d="M156.005 140.228C151.925 135.908 150.014 129.453 151.735 125.818C153.475 122.183 158.173 122.729 162.272 127.068C166.351 131.387 168.262 137.843 166.542 141.478C164.801 145.094 160.084 144.547 156.005 140.228Z" fill="#B2B2B2"/>
<path d="M157.802 136.553C153.829 131.595 156.131 126.793 160.571 130.722C164.525 135.68 162.243 140.5 157.802 136.553Z" fill="#171717"/>
<path d="M167.022 91.3502C165.638 96.8134 163.022 99.9793 158.887 100.91C154.751 101.821 150.659 99.2197 149.748 95.0841L143.302 68.1623C142.39 64.0267 144.992 59.9347 149.128 59.0233C153.263 58.1119 157.355 60.7136 158.141 64.2142L167.022 91.3502Z" fill="#17AECE"/>
<path d="M182.838 109.967C182.009 111.273 180.885 112.255 179.582 112.873C177.302 113.949 174.56 113.855 172.28 112.442L166.313 108.363L163.041 106.328L162.242 105.819L160.8 104.915L152.248 99.601C148.644 97.3779 147.53 92.6471 149.773 89.043C150.319 88.1663 151.022 87.4224 151.805 86.8509C152.187 86.575 152.608 86.337 153.029 86.1377C153.259 86.0377 153.509 85.9375 153.739 85.8568C155.486 85.2322 157.455 85.2605 159.241 86.0056C159.611 86.1737 159.961 86.3421 160.311 86.5684L160.975 87.0409L180.912 101.196C183.314 103.07 185.061 106.363 182.838 109.967Z" fill="#17AECE"/>
<path d="M178.709 106.131C177.047 107.295 176.561 109.618 176.996 111.619C177.412 113.6 178.558 115.339 179.588 117.099C180.618 118.859 180.857 119.357 181.408 121.318C181.693 122.317 181.686 123.128 181.893 124.051C182.433 126.59 185.154 126.588 184.598 124.261C184.767 126.516 187.391 126.477 186.769 123.611C187.197 125.168 189.13 125.351 188.455 121.54C188.863 122.981 190.276 121.995 189.953 119.761C189.544 116.949 188.82 112.483 187.413 109.995C186.521 108.445 185.38 106.996 183.804 106.132C182.227 105.268 180.179 105.125 178.709 106.131Z" fill="#E9CBA7"/>
<path d="M177.52 120.778C177.451 121.281 177.614 121.877 178.024 122.16C178.511 122.5 179.202 122.239 179.659 121.827C180.764 120.864 180.688 118.376 180.473 116.932C180.278 115.487 180.02 115.028 179.229 113.785C178.458 112.542 177.591 111.34 177.011 109.997C177.767 114.058 177.976 117.683 177.52 120.778Z" fill="#E9CBA7"/>
<path d="M74.5936 62.8476C74.5726 61.4583 73.5995 60.9133 72.4137 61.6259C71.2279 62.3386 70.2884 64.0317 70.309 65.4017C70.3299 66.7909 71.3031 67.3359 72.4889 66.6233C73.6554 65.911 74.6142 64.2175 74.5936 62.8476Z" fill="#44AF69"/>
<path d="M73.9223 61.4503L90.1027 70.4722L87.1236 75.8151L70.9432 66.7932L73.9223 61.4503Z" fill="#44AF69"/>
<path d="M90.767 71.8486C90.7461 70.4593 89.7729 69.9143 88.5871 70.6269C87.4013 71.3395 86.4618 73.0327 86.4825 74.4027C86.5034 75.7919 87.4765 76.3369 88.6623 75.6243C89.8291 74.9312 90.7879 73.2378 90.767 71.8486Z" fill="#44AF69"/>
<path d="M118.276 36.4831C118.255 35.0938 117.282 34.5488 116.096 35.2614C114.91 35.9741 113.971 37.6672 113.991 39.0372C114.012 40.4264 114.985 40.9714 116.171 40.2588C117.338 39.5465 118.296 37.853 118.276 36.4831Z" fill="#44AF69"/>
<path d="M117.609 35.0883L133.791 44.1064L130.813 49.4499L114.631 40.4318L117.609 35.0883Z" fill="#44AF69"/>
<path d="M134.449 45.5028C134.428 44.1136 133.455 43.5686 132.269 44.2812C131.084 44.9938 130.144 46.687 130.165 48.057C130.186 49.4462 131.159 49.9912 132.345 49.2786C133.511 48.5662 134.47 46.8728 134.449 45.5028Z" fill="#0595A3"/>
<path d="M196.398 169.687C195.502 170.434 194.824 171.525 194.419 172.882C194.419 172.882 194.419 172.882 194.42 172.901C194.107 173.91 193.951 175.089 193.971 176.42C194.011 179.064 194.748 181.909 195.986 184.631C198.042 189.155 201.481 193.271 205.335 195.433C206.873 196.297 208.346 196.758 209.66 196.854C210.646 196.935 211.57 196.806 212.395 196.484C212.932 196.264 213.429 195.967 213.887 195.593C215.43 194.239 216.341 191.928 216.294 188.841C216.241 185.31 214.947 181.412 212.888 177.988C212.374 177.128 211.821 176.306 211.211 175.505C209.399 173.139 207.246 171.126 204.93 169.848C201.466 167.893 198.398 167.978 196.398 169.687Z" fill="#171717"/>
<path d="M192.009 178.167C191.908 171.433 196.594 168.642 202.472 171.911C208.349 175.181 213.2 183.291 213.301 190.024C213.402 196.758 208.716 199.55 202.839 196.28C196.961 192.992 192.11 184.882 192.009 178.167Z" fill="white"/>
<path d="M202.794 193.29C207.231 195.751 210.769 193.633 210.693 188.578C210.617 183.503 206.954 177.383 202.517 174.902C198.08 172.441 194.541 174.54 194.617 179.614C194.713 184.688 198.375 190.809 202.794 193.29ZM202.848 196.879C196.678 193.44 191.59 184.928 191.484 177.866C191.377 170.805 196.293 167.874 202.463 171.313C208.632 174.752 213.72 183.263 213.827 190.325C213.933 197.368 209.017 200.318 202.848 196.879Z" fill="#171717"/>
<path d="M200.188 185.571C197.322 179.805 201.396 177.37 205.123 182.621C207.988 188.367 203.914 190.803 200.188 185.571Z" fill="#171717"/>
<path d="M154.996 121.927L155.892 122.435L155.844 119.29L154.949 118.782C152.847 117.618 151.049 114.827 150.798 112.302L144.891 59.6468C144.801 54.9198 143.043 50.9321 137.501 48.1592L133.744 46.0543C132.085 44.8441 130.423 47.2236 132.02 48.2031L137.548 51.3043C139.864 52.601 141.86 55.6975 142.172 58.4911L148.06 111.128C148.509 115.328 151.493 119.973 154.996 121.927Z" fill="#171717"/>
<path d="M200.155 183.353L202.899 184.875L202.307 145.59L154.481 118.462L154.829 141.577L157.58 143.562L157.279 123.592L199.61 147.194L200.155 183.353Z" fill="#171717"/>
<path d="M111.118 148.14L112.014 148.648L111.966 145.503L111.071 144.995C108.969 143.83 107.171 141.04 106.921 138.515L101.013 85.8596C101.174 81.1096 97.7238 76.2981 93.6227 74.3721L89.944 72.3045C88.1304 71.0581 86.9137 73.566 88.1421 74.3967L93.6504 77.4981C95.9665 78.7949 97.9624 81.8913 98.2746 84.685L104.181 137.321C104.631 141.541 107.615 146.186 111.118 148.14Z" fill="#171717"/>
<path d="M156.414 218.654L159.158 220.195L158.43 171.803L110.584 144.675L115.03 165.663L117.781 167.648L113.402 149.824L155.733 173.426L156.414 218.654Z" fill="#171717"/>
<path d="M199.038 137.418L160.904 115.683C159.055 114.649 157.494 112.202 157.248 110.006L152.767 68.7536C152.365 65.1121 149.603 61.1202 146.593 59.8917L144.787 59.147L100.91 85.379L106.757 137.881C107.115 141.157 109.447 144.769 112.171 146.291L162.968 174.591L158.109 172.29L201.062 151.322C208.323 147.777 202.951 139.637 199.038 137.418Z" fill="#44AF69"/>
<path d="M181.059 157.142L170.105 164.062L161.423 159.175L129.541 141.243C126.992 139.815 125.331 137.215 125.075 134.286L123.737 118.461C134.2 123.823 146.816 128.554 157.509 133.739C163.127 136.472 168.246 139.31 172.249 142.453C177.717 146.713 181.128 151.486 181.059 157.142Z" fill="#BDAE95"/>
<path d="M160.968 205.827C160.677 191.589 160.777 159.782 161.64 158.167C162.616 156.339 164.282 154.171 165.982 153.007C168.389 151.369 171.223 149.879 174.106 150.376C177.57 150.98 180.408 153.658 181.059 157.122C181.709 160.586 176.819 203.659 176.231 205.655C175.624 207.652 170.623 206.164 168.644 206.792L160.968 205.827Z" fill="#BDAE95"/>
<path d="M205.045 208.233L205.052 208.734L205.033 208.735C204.928 209.431 204.456 210.152 203.558 210.764C201.456 212.147 197.908 212.316 195.652 211.172L182.914 204.706C181.708 204.087 181.135 203.208 181.18 202.339L181.141 202.32C181.186 201.451 181.289 200.639 181.451 199.884C181.698 198.317 182.141 196.979 182.682 195.735C182.962 195.075 183.28 194.433 183.599 193.83C183.975 193.168 184.39 192.525 184.786 191.902L193.939 192.285C194.585 192.874 194.886 193.66 195.111 194.448C195.213 194.833 195.296 195.256 195.398 195.621C195.665 196.659 195.969 197.6 196.846 198.166C200.548 200.542 203.801 203.813 204.732 206.693C204.952 207.211 205.037 207.731 205.045 208.233ZM201.252 203.716L196.227 199.391C195.289 198.576 194.29 197.626 194.023 196.53C193.754 196.669 193.467 196.789 193.16 196.909C193.507 198.197 194.584 199.223 195.62 200.095L200.645 204.42C200.724 204.496 200.84 204.533 200.956 204.531C201.091 204.529 201.206 204.469 201.301 204.371C201.471 204.176 201.448 203.887 201.252 203.716Z" fill="#004D61"/>
<path d="M201.679 144.885L190.725 151.805L149.34 130.813C146.79 129.385 145.951 124.939 145.695 122.029L146.556 108.68C169.973 120.679 202.787 128.773 201.679 144.885Z" fill="#BDAE95"/>
<path d="M181.607 193.57C181.316 179.332 181.416 147.526 182.279 145.911C183.255 144.082 184.921 141.915 186.621 140.75C189.028 139.112 191.862 137.622 194.745 138.119C198.209 138.723 201.047 141.402 201.698 144.866C202.329 148.33 197.444 191.769 196.857 193.765C196.269 195.762 191.262 193.927 189.265 194.555L181.607 193.57Z" fill="#BDAE95"/>
<path d="M194.522 189.98C197.595 191.535 197.753 194.331 194.848 196.228C191.962 198.105 187.103 198.371 184.03 196.796C180.957 195.24 180.799 192.444 183.704 190.548C186.609 188.671 191.449 188.405 194.522 189.98Z" fill="#BDAE95"/>
<path opacity="0.2" d="M172.269 142.472C168.266 139.348 163.166 136.491 157.528 133.759C160.728 132.224 162.324 130.541 163.086 126.013C162.842 129.028 162.95 131.091 164.15 133.871C165.669 137.38 171.019 138.901 172.269 142.472Z" fill="#1D1D1B"/>
<path d="M152.823 195.509C151.927 196.256 151.249 197.347 150.845 198.704C150.845 198.704 150.845 198.704 150.845 198.724C150.532 199.732 150.376 200.911 150.396 202.223C150.436 204.867 151.174 207.731 152.411 210.434C154.467 214.958 157.906 219.074 161.76 221.236C163.297 222.1 164.771 222.561 166.085 222.657C167.07 222.738 167.995 222.589 168.82 222.287C169.357 222.067 169.854 221.77 170.312 221.397C171.874 220.08 172.785 217.77 172.739 214.682C172.686 211.152 171.392 207.253 169.333 203.83C168.818 202.969 168.266 202.147 167.655 201.346C165.844 198.98 163.691 196.967 161.375 195.689C157.91 193.715 154.843 193.8 152.823 195.509Z" fill="#171717"/>
<path d="M148.454 203.97C148.352 197.236 153.038 194.445 158.916 197.714C164.794 200.984 169.644 209.093 169.745 215.827C169.847 222.561 165.16 225.353 159.283 222.083C153.405 218.814 148.555 210.704 148.454 203.97Z" fill="white"/>
<path d="M159.238 219.112C163.675 221.574 167.214 219.455 167.138 214.4C167.061 209.325 163.399 203.205 158.961 200.724C154.524 198.263 150.986 200.381 151.062 205.436C151.138 210.511 154.82 216.631 159.238 219.112ZM159.292 222.701C153.123 219.262 148.035 210.751 147.928 203.689C147.822 196.627 152.738 193.696 158.907 197.135C165.077 200.574 170.165 209.086 170.271 216.148C170.377 223.19 165.462 226.14 159.292 222.701Z" fill="#171717"/>
<path d="M161.376 113.745C161.452 118.781 158.821 123.491 154.479 126.046L149.18 129.194L141.701 133.649C139.482 134.956 137.118 135.59 134.783 135.625C133.819 135.64 132.853 135.558 131.904 135.379C125.672 134.199 120.477 128.854 120.37 121.696L119.742 106.903C119.756 106.575 119.751 106.247 119.707 105.881C119.686 105.765 119.684 105.669 119.683 105.553L118.409 74.7705C121.508 69.1464 126.413 64.2092 132.797 60.0988C132.855 60.0594 132.931 60.0196 132.988 59.9802C134.403 59.0904 135.841 58.4319 137.281 57.9856C137.493 57.9245 137.685 57.8444 137.896 57.8026C138.069 57.7614 138.223 57.7205 138.377 57.6796C138.415 57.679 138.434 57.6595 138.473 57.6589C139.204 57.4742 139.916 57.367 140.629 57.279C143.211 57.0472 145.688 57.4345 147.941 58.3848C148.018 58.4029 148.077 58.4406 148.135 58.4784C148.893 58.8143 149.632 59.2085 150.334 59.6611C150.353 59.6801 150.392 59.6988 150.431 59.7175C153.901 62.0005 156.562 65.7431 157.675 70.416C158.044 71.8965 158.243 73.5146 158.267 75.1547L158.578 79.1257L160.761 106.17L161.093 110.333L161.376 113.745Z" fill="#17AECE"/>
<path d="M147.705 63.2324C147.367 63.8937 146.759 64.5204 145.86 65.055C142.953 66.7971 138.226 66.8683 135.267 65.2145C132.309 63.58 132.268 60.8401 135.175 59.0981C135.825 58.7023 136.574 58.4015 137.381 58.1771C137.803 58.0549 138.246 57.9711 138.689 57.8872C141.134 57.503 143.822 57.8485 145.768 58.9193C146.78 59.483 147.446 60.1677 147.766 60.8963C148.106 61.6825 148.079 62.4741 147.705 63.2324Z" fill="#E9CBA7"/>
<path d="M132.749 42.8072L147.722 42.5818L148.014 61.9538L133.041 62.1792L132.749 42.8072Z" fill="#E9CBA7"/>
<path d="M135.274 43.8695C135.422 46.0095 135.57 48.1687 136.084 50.2453C136.598 52.3219 137.497 54.3541 138.968 55.9145C141.145 58.2169 144.557 59.2656 147.654 58.6014C148.385 58.436 149.115 58.1934 149.726 57.7403C150.871 56.8739 151.408 55.4184 151.793 54.023C153.403 48.1897 153.561 42.0309 153.085 35.9975C153.013 35.1108 152.922 34.2051 152.639 33.3409C151.772 30.8257 149.161 29.2053 146.513 28.9171C143.864 28.6289 141.214 29.4601 138.838 30.6345C138.187 30.9531 137.536 31.3103 137.003 31.8201C136.509 32.31 136.152 32.9329 135.696 33.4609C135.146 34.106 135.052 40.6692 135.274 43.8695Z" fill="#E9CBA7"/>
<path d="M135.312 46.3586C135.46 48.4985 135.608 50.6385 136.122 52.7344C136.635 54.811 137.534 56.8431 139.005 58.4035C141.182 60.706 144.595 61.7546 147.692 61.0904C148.423 60.925 149.152 60.6825 149.763 60.2294C150.908 59.363 151.446 57.9074 151.83 56.5121C153.441 50.6788 153.599 44.52 153.122 38.4865C153.051 37.5998 152.96 36.6942 152.677 35.83C151.809 33.3148 149.198 31.6944 146.55 31.4062C143.902 31.118 141.251 31.9684 138.876 33.1236C138.224 33.4422 137.573 33.7993 137.041 34.3091C136.546 34.7991 136.189 35.422 135.734 35.9499C135.184 36.5951 135.089 43.1389 135.312 46.3586Z" fill="#E9CBA7"/>
<path opacity="0.1" d="M147.705 63.2321C144.607 63.877 141.233 62.8277 139.057 60.5446C138.39 59.8405 137.838 59.0383 137.4 58.1957C136.844 57.1619 136.461 56.0291 136.173 54.8754C135.659 52.7989 135.511 50.6396 135.363 48.4996C135.289 47.4586 135.249 46.0696 135.247 44.6415C135.256 45.2204 135.283 45.741 135.328 46.2035C135.476 48.3435 135.625 50.5028 136.138 52.5794C136.611 54.5022 137.431 56.3811 138.708 57.8865C138.806 58.0009 138.924 58.1342 139.022 58.2485C141.199 60.5509 144.612 61.5996 147.709 60.9354C147.728 60.9351 147.766 60.9152 147.786 60.9149C148.106 61.6821 148.079 62.4737 147.705 63.2321Z" fill="#1D1D1B"/>
<path d="M136.32 45.3978C136.244 45.5148 134.84 44.5709 134.276 44.2706C135.274 47.7102 135.714 51.3125 135.555 54.8852C135.543 55.3679 135.474 55.9093 135.132 56.2618C134.885 56.4972 134.558 56.5793 134.211 56.6231C132.823 56.7405 131.497 55.8341 130.727 54.6684C129.957 53.4835 129.665 52.079 129.413 50.7126C129.078 48.9807 128.801 47.2287 128.543 45.4763C128.046 41.9327 127.446 38.0047 128.786 34.6844C129.809 32.1215 131.668 30.0092 134.04 28.6033C136.412 27.1973 139.608 26.7053 142.348 26.6641C144.683 26.6289 147.044 27.0565 149.106 28.1448C151.168 29.2332 152.893 31.0213 153.66 33.2292C153.983 34.1507 154.133 35.1713 153.877 36.1208C153.365 38.0005 151.433 39.1104 149.569 39.6402C146.436 40.5172 142.997 40.2602 140.024 38.9154C139.402 38.6353 138.799 38.3163 138.122 38.23C137.446 38.163 136.697 38.4058 136.397 39.0086C136.228 39.3393 136.234 39.7252 136.22 40.092C136.257 41.2302 136.376 45.3198 136.32 45.3978Z" fill="#171717"/>
<path d="M134.214 42.7273C135.023 42.6186 135.747 43.2639 136.105 43.934C136.561 44.7763 136.691 45.7393 136.821 46.6637C136.993 47.8577 137.147 49.0905 136.74 50.216C136.628 50.5264 136.459 50.8378 136.153 50.9968C135.713 51.2543 135.093 51.1092 134.702 50.7677C134.311 50.4455 134.111 49.9661 133.95 49.5246C133.448 48.2005 133.099 46.8548 132.905 45.4682C132.819 44.9098 132.772 44.3509 132.957 43.8077C133.142 43.3031 133.598 42.8138 134.214 42.7273Z" fill="#E9CBA7"/>
<path d="M150.308 51.575L148.09 52.9014C147.152 53.4559 146.4 54.7989 146.417 55.8987C146.434 56.9985 147.212 57.4307 148.149 56.8569L150.368 55.5304C151.305 54.9759 152.057 53.633 152.04 52.5332C152.024 51.4334 151.246 51.0205 150.308 51.575Z" fill="#E9CBA7"/>
<path opacity="0.2" d="M137.558 134.039C134.402 135.92 135.097 135.968 131.904 135.36C125.691 134.18 120.477 128.854 120.369 121.677L119.741 106.884C119.755 106.555 119.75 106.227 119.707 105.881C119.686 105.765 119.684 105.669 119.682 105.553C119.75 102.367 130.089 82.7389 130.995 81.4129C131.471 88.6815 125.504 98.7104 126.462 105.933C126.983 109.785 136.657 115.256 140.321 122.708C142.63 127.382 137.558 134.039 137.558 134.039Z" fill="#1D1D1B"/>
<path d="M154.412 30.593L155.034 37.2804C150.526 37.8308 145.371 40.2436 139.809 43.8591C139.77 43.8597 139.751 43.86 139.732 43.841C135.691 43.4 132.27 41.7725 129.525 38.861C128.897 38.195 128.307 37.4705 127.755 36.6683C127.319 32.1202 128.499 28.4356 131.76 25.839C139.124 21.4438 145.945 21.9972 152.309 26.7841C153.519 27.673 154.273 29.0704 154.412 30.593Z" fill="#17AECE"/>
<path d="M161.683 44.3792C161.897 44.4725 162.046 44.1421 161.87 43.9711C158.852 40.9479 155.791 37.5781 155.034 37.2807C154.432 37.0389 152.474 36.4508 151.837 36.4411C147.069 36.3971 140.187 39.4727 137.603 43.4873C139.012 44.7591 138.395 44.7684 141.869 47.3601C143.352 48.4571 145.968 49.1511 147.741 47.7155C150.658 45.3171 157.914 42.7569 161.683 44.3792Z" fill="#005970"/>
<path d="M139.732 43.8406C135.691 43.3997 132.27 41.7722 129.525 38.8607C129.758 38.9923 129.973 39.1435 130.206 39.275C131.375 39.9908 132.656 40.4926 133.992 40.762C134.65 40.9065 135.423 40.9527 135.957 40.5394C136.358 40.2246 136.543 39.7007 136.671 39.2163C137.348 36.7551 137.386 34.1878 137.406 31.64C137.53 33.4715 137.654 35.2838 137.778 37.1153C137.854 38.3686 137.971 39.7178 138.72 40.7294C139.055 41.2068 139.543 41.6048 139.783 42.1415C140.042 42.6973 139.975 43.3159 139.732 43.8406Z" fill="#005970"/>
<path d="M106.05 113.98C123.624 116.051 143.589 137.211 150.705 161.208C156.276 179.999 152.294 194.996 141.865 199.612C141.865 199.612 141.846 199.612 141.846 199.631C140.639 200.19 139.332 200.576 137.946 200.809C137.927 200.809 137.907 200.81 137.908 200.829C136.002 201.167 133.957 201.217 131.773 200.96C127.964 200.516 124.026 199.166 120.135 197.082C114.881 194.267 109.685 190.08 104.977 184.998C104.349 184.312 103.72 183.608 103.112 182.903C96.9631 175.739 91.7555 166.978 88.4304 157.63L88.4301 157.61C88.108 156.728 87.8055 155.864 87.5414 154.98C87.3999 154.557 87.278 154.154 87.1559 153.731C85.4482 147.986 84.634 142.614 84.6383 137.77C84.6255 130.514 86.407 124.504 89.6826 120.306C90.5726 119.173 91.5608 118.154 92.6867 117.308C96.1387 114.573 100.675 113.327 106.05 113.98ZM125.523 196.075L124.608 192.982C125.307 193.222 125.966 193.424 126.644 193.588L127.456 196.277C131.513 196.544 135.146 195.544 138.025 193.204C139.866 192.443 141.546 191.26 142.951 189.695C143.35 189.264 143.71 188.815 144.049 188.308C144.617 187.527 145.144 186.651 145.593 185.699C145.686 185.485 145.799 185.29 145.872 185.057C149.118 177.598 148.322 167.014 144.381 156.498C144.361 156.479 144.361 156.44 144.341 156.402C141.546 148.956 137.188 141.514 131.574 135.191C131.534 135.134 131.495 135.096 131.475 135.077C131.083 134.62 130.651 134.163 130.239 133.725C122.728 125.791 114.634 121.397 107.675 120.691C106.786 120.608 105.917 120.582 105.088 120.614C104.471 120.623 103.873 120.69 103.276 120.776C100.715 121.143 98.4332 122.123 96.4696 123.735C93.5352 124.957 91.079 127.174 89.3328 130.404L91.0786 132.269C90.8955 132.928 90.7127 133.606 90.5685 134.284L88.5094 132.115C85.9198 138.291 86.0436 146.511 88.3725 155.064L92.4518 155.543C92.7353 156.426 93.0378 157.29 93.3602 158.192L89.1648 157.696C91.9383 166.3 96.8372 175.065 103.411 182.281L105.188 178.51C105.797 179.234 106.425 179.939 107.072 180.605L105.313 184.298C112.035 191.087 119.197 195.051 125.523 196.075Z" fill="#171717"/>
<path d="M102.748 119.047L104.662 119.269L104.906 120.095L105.049 120.614L105.72 122.862L113.589 149.473C113.608 149.473 113.589 149.492 113.589 149.492L115.339 155.429L115.644 156.467L116.193 158.331L116.417 159.099L116.417 159.119L116.742 160.214L116.966 161.002L117.516 162.865L117.78 163.749L119.529 169.706L126.605 193.627L127.418 196.316L128.232 199.083L128.516 200.044L126.583 199.822L126.299 198.881L125.485 196.114L124.57 193.02L117.615 169.484L115.847 163.527L115.846 163.508L115.601 162.624L115.052 160.76L114.829 160.011L114.828 159.992L114.503 158.897L114.279 158.109L113.73 156.264L113.425 155.227L111.656 149.27L103.806 122.679L103.257 120.815L102.992 119.892L102.748 119.047Z" fill="#B2B2B2"/>
<path d="M127.112 132.422L129.034 134.458L128.754 135.041L127.912 136.81L119.699 154.033L117.884 157.823L117.903 157.842L117.585 158.503L117.005 159.709L116.781 160.194L116.425 160.895L116.181 161.4L115.621 162.605L115.321 163.189L113.488 167.076L107.053 180.605L105.294 184.298L104.976 184.979L104.452 186.067L104.171 186.631L102.269 184.614L102.55 184.031L103.092 182.865L103.391 182.262L105.168 178.511L111.585 165.059L113.399 161.191L113.718 160.588L114.279 159.383L114.522 158.878L114.859 158.178L115.102 157.672L115.663 156.467L115.981 155.787L117.796 151.977L125.99 134.774L126.832 133.005L127.112 132.422Z" fill="#B2B2B2"/>
<path d="M85.7236 154.737L86.3229 154.805L87.5218 154.961L88.353 155.045L92.4516 155.523L107.822 157.338L112.21 157.851L112.926 157.956L112.926 157.936L114.298 158.089L114.859 158.177L115.633 158.262L115.652 158.243L116.213 158.331L117.585 158.503L118.3 158.569L122.593 159.084L142.042 161.358L144.072 161.617L144.768 161.683L145.541 164.335L144.864 164.249L142.815 164.009L123.346 161.716L119.035 161.202L118.358 161.116L117.005 160.963L116.425 160.894L115.632 160.81L115.072 160.741L113.718 160.588L113.022 160.502L108.614 159.989L93.3599 158.173L89.1453 157.677L88.4109 157.611L88.4106 157.591L87.1152 157.437L86.5159 157.369L85.7236 154.737Z" fill="#B2B2B2"/>
<path d="M86.744 127.664L87.3324 128.292L89.3132 130.385L91.0589 132.25L108.65 150.86L112.985 155.446L113.749 156.245L115.102 157.672L115.632 158.262L115.651 158.243L116.436 159.08L116.436 159.099L117.005 159.708L118.358 161.116L119.025 161.84L123.3 166.349L142.637 186.824L144.049 188.308L144.618 188.917L145.363 189.697L144.539 191.388L143.814 190.627L142.931 189.695L141.814 188.515L122.496 168.079L118.201 163.512L117.554 162.827L116.181 161.4L115.632 160.81L114.848 159.992L114.828 159.973L114.279 159.383L112.926 157.936L112.926 157.956L112.2 157.195L107.827 152.552L90.5681 134.265L88.4897 132.096L86.509 130.003L85.9206 129.375L86.744 127.664Z" fill="#B2B2B2"/>
<path d="M128.688 131.934C129.648 132.943 130.571 133.99 131.475 135.058C131.514 135.096 131.553 135.114 131.573 135.172C136.997 141.613 141.315 148.959 144.341 156.382C144.36 156.401 144.361 156.44 144.381 156.478C149.693 169.638 150.84 183.033 146.5 192.15C144.479 196.349 141.531 199.211 137.946 200.79C137.926 200.79 137.907 200.79 137.907 200.81C128.511 204.83 114.794 199.98 102.478 186.965C85.4161 168.926 77.4441 141.912 84.6457 126.731C85.9557 124.009 87.6409 121.861 89.6627 120.267C98.8734 112.91 114.685 117.131 128.688 131.934ZM105.74 122.881C105.101 122.775 104.444 122.689 103.806 122.66C101.14 122.468 98.6558 122.814 96.4503 123.735C93.5159 124.957 91.0597 127.174 89.3135 130.404C89.1629 130.658 89.0322 130.949 88.8822 131.241C88.7322 131.532 88.6012 131.805 88.4901 132.115C85.9005 138.291 86.0243 146.511 88.3531 155.064C88.598 155.948 88.8622 156.832 89.1454 157.696C91.919 166.3 96.8178 175.065 103.392 182.281C103.667 182.605 103.961 182.929 104.255 183.233C104.608 183.594 104.942 183.956 105.294 184.317C112.035 191.106 119.198 195.089 125.524 196.094C126.181 196.181 126.819 196.267 127.456 196.296C131.513 196.563 135.146 195.563 138.025 193.223C139.512 192.024 140.801 190.441 141.833 188.534C141.984 188.281 142.115 187.989 142.265 187.698C142.396 187.426 142.526 187.134 142.638 186.843C145.228 180.705 145.124 172.543 142.815 164.029C142.59 163.144 142.326 162.28 142.042 161.377C139.308 152.811 134.428 144.064 127.912 136.829C127.578 136.448 127.245 136.086 126.892 135.725C126.598 135.401 126.284 135.097 125.99 134.793C119.248 127.947 112.086 123.944 105.74 122.881Z" fill="#B2B2B2"/>
<path d="M92.6671 117.289C95.562 116.01 98.9129 115.535 102.722 115.979C120.276 118.05 140.261 139.21 147.377 163.208C152.298 179.847 149.743 193.491 141.885 199.631C141.885 199.631 141.865 199.631 141.866 199.65C138.375 202.366 133.858 203.592 128.464 202.959C110.889 200.869 90.886 179.729 83.789 155.712C78.2368 136.882 82.2375 121.884 92.6671 117.289ZM87.3325 128.292C87.0512 128.837 86.7705 129.42 86.5091 130.003C85.559 132.275 84.9034 134.871 84.5993 137.751C84.0759 142.719 84.6071 148.52 86.3228 154.805C86.445 155.228 86.5476 155.632 86.689 156.054C86.8311 156.515 86.9734 156.996 87.1151 157.437C90.2949 167.386 95.8778 176.72 102.55 184.031C103.178 184.735 103.805 185.401 104.452 186.067C109.371 191.03 114.756 194.886 120.134 197.063C122.212 197.92 124.286 198.525 126.337 198.842C126.646 198.876 126.936 198.929 127.246 198.963C127.594 198.997 127.942 199.03 128.27 199.044C135.399 199.555 140.774 196.347 143.814 190.608C144.095 190.064 144.357 189.5 144.599 188.898C145.121 187.713 145.545 186.413 145.872 185.038C147.234 179.325 146.991 172.187 144.864 164.249C144.722 163.788 144.6 163.327 144.457 162.846C144.335 162.423 144.194 162.02 144.052 161.598C140.912 151.667 135.348 142.353 128.734 135.041C128.106 134.337 127.459 133.652 126.832 133.005C120.854 126.919 114.148 122.504 107.656 120.691C106.745 120.435 105.816 120.236 104.906 120.096C104.578 120.043 104.229 119.99 103.881 119.937C103.572 119.904 103.263 119.87 102.973 119.855C95.8239 119.306 90.4106 122.514 87.3325 128.292Z" fill="#171717"/>
<path d="M96.4502 123.736C94.7533 125.112 93.3142 126.948 92.2101 129.242C91.7613 130.194 91.3712 131.204 91.0592 132.27L89.3135 130.405C91.0594 127.156 93.5156 124.938 96.4502 123.736Z" fill="#B2B2B2"/>
<path d="M88.4897 132.096L90.5487 134.265C89.2519 140.422 90.0013 147.899 92.4321 155.524L88.3527 155.045C86.0431 146.491 85.9194 138.272 88.4897 132.096Z" fill="#B2B2B2"/>
<path d="M89.1452 157.677L93.3406 158.173C95.9564 165.274 99.9808 172.355 105.149 178.51L103.372 182.281C96.8369 175.046 91.9187 166.281 89.1452 157.677Z" fill="#B2B2B2"/>
<path d="M126.644 193.607C130.829 194.702 134.726 194.586 138.006 193.224C135.127 195.564 131.494 196.564 127.437 196.297L126.644 193.607Z" fill="#B2B2B2"/>
<path d="M107.053 180.605C107.23 180.814 107.407 181.024 107.602 181.214C113.172 187.113 119.08 191.077 124.609 193.001L125.524 196.094C119.198 195.07 112.036 191.106 105.295 184.317L107.053 180.605Z" fill="#B2B2B2"/>
<path d="M112.449 166.049C108.37 161.73 106.459 155.274 108.18 151.639C109.9 148.004 114.618 148.551 118.716 152.889C122.796 157.209 124.707 163.665 122.986 167.3C121.246 170.915 116.529 170.369 112.449 166.049Z" fill="#B2B2B2"/>
<path d="M114.228 162.375C110.255 157.417 112.556 152.615 116.996 156.543C120.969 161.501 118.687 166.322 114.228 162.375Z" fill="#171717"/>
<path d="M120.436 109.382C118.816 113.324 114.309 115.225 110.367 113.625C106.425 112.005 104.524 107.499 106.124 103.557L117.329 76.0798C118.949 72.1377 123.455 70.2364 127.397 71.8368C131.339 73.4565 133.24 77.9632 131.64 81.905L120.436 109.382Z" fill="#17AECE"/>
<path d="M135.398 120.022C143.106 126.912 131.754 133.046 131.754 133.046C129.115 134.668 126.957 133.639 124.054 130.518L107.222 112.399C104.319 109.277 104.515 104.372 107.637 101.488C110.758 98.5851 115.663 98.7814 118.547 101.903L135.398 120.022Z" fill="#17AECE"/>
<path d="M132.058 125.051C130.099 125.66 128.933 127.742 128.732 129.772C128.531 131.801 129.083 133.819 129.537 135.82C129.992 137.82 130.058 138.379 129.993 140.425C129.951 141.468 129.802 141.876 129.701 142.842C129.601 143.867 131.009 145.1 131.524 143.394C131.128 146.584 133.27 146.59 133.544 145.544C133.581 146.721 135.577 147.25 135.954 145.431C135.9 146.937 137.283 146.511 137.843 145.228C139.688 140.897 140.232 136.006 139.198 131.409C138.805 129.659 138.161 127.893 136.925 126.599C135.709 125.286 133.787 124.524 132.058 125.051Z" fill="#E9CBA7"/>
<path d="M142.892 137.066C143.226 137.467 143.409 138.062 143.204 138.529C142.961 139.073 142.23 139.219 141.63 139.112C140.179 138.864 138.93 136.702 138.331 135.34C137.732 133.998 137.723 133.458 137.721 131.991C137.718 130.525 137.831 129.037 137.616 127.574C139.121 131.43 140.868 134.646 142.892 137.066Z" fill="#E9CBA7"/>
<path opacity="0.2" d="M163.041 106.328L162.242 105.819L160.8 104.915C160.799 104.876 160.779 104.818 160.759 104.78L159.242 86.0249L158.577 77.7555C159.524 80.4046 160.325 83.6155 160.975 87.0602C162.172 93.5074 162.841 100.735 163.041 106.328Z" fill="#1D1D1B"/>
<path d="M444.486 105.003C444.486 105.003 458.244 123.127 462.248 137.909C466.252 152.69 463.844 162.926 457.281 168.105C450.718 173.283 437.983 170.724 437.983 170.724L420.732 113.613L444.486 105.003Z" fill="#513433"/>
<path d="M376.327 121.441C377.711 124.481 384.816 127.673 388.851 127.883C393.005 128.094 394.3 124 394.842 122.765C396.979 117.828 400.833 106.508 400.833 106.508L414.019 112.861C414.019 112.861 408.329 127.432 403.873 134.145C400.562 139.113 396.437 139.474 388.549 137.607C385.057 136.795 379.999 133.092 377.26 132.911C373.286 132.64 366.151 135.169 363.532 126.408C362.93 124.391 371.6 123.939 373.316 124C375.965 124.09 371.69 119.424 372.172 118.219C372.864 116.503 374.912 118.28 376.327 121.441Z" fill="#FFC5B3"/>
<path d="M399.719 181.02C399.719 181.02 397.671 193.905 397.25 199.896C396.828 205.887 398.484 217.989 400.17 228.225C401.374 235.511 402.518 251.166 402.518 251.166L408.63 256.585L413.146 252.25C413.146 252.25 414.079 221.933 413.748 218.321C413.417 214.708 411.008 204.051 411.008 204.051L416.216 184.813L399.719 181.02Z" fill="#FFC5B3"/>
<path d="M427.025 188.907C427.025 188.907 430.306 207.964 431.119 211.186C435.183 226.75 440.903 247.493 441.385 252.25C441.867 257.036 439.699 263.208 439.699 263.208H451.199C451.199 263.208 451.5 254.507 451.199 251.376C450.898 248.246 452.464 235.993 451.952 228.255C451.199 216.605 445.118 210.222 445.118 210.222L445.72 182.886L427.025 188.907Z" fill="#FFC5B3"/>
<path d="M443.251 209.229C444.847 208.446 447.707 204.562 449.092 203.448C448.64 192.43 446.894 171.777 446.744 165.425C446.232 146.428 434.551 137.487 434.551 137.487C435.394 131.105 405.74 140.046 405.74 140.046C405.74 140.046 397.792 180.056 394.872 198.752C399.056 203.93 406.944 207.964 416.247 206.519L422.749 175.51C422.749 175.51 424.405 196.464 425.218 207.121C429.975 209.831 437.983 211.758 443.251 209.229Z" fill="#105799"/>
<path d="M412.032 89.1372C412.032 89.1372 407.065 87.2405 402.157 96.4528C397.762 104.672 394.872 114.155 394.872 114.155C394.872 114.155 401.254 115.058 408.178 121.44C417.632 112.86 419.197 93.1412 412.032 89.1372Z" fill="#B3160D"/>
<path d="M411.249 88.8965C411.249 88.8965 407.365 94.7671 405.198 103.167C403.03 111.566 403.783 150.583 403.783 150.583C403.783 150.583 412.815 156.965 427.958 155.731C436.959 154.978 441.535 149.409 441.535 149.409C441.535 149.409 447.376 108.224 446.653 102.745C445.931 97.2658 434.009 87.3912 434.009 87.3912C434.009 87.3912 420.371 85.3139 411.249 88.8965Z" fill="#B3160D"/>
<path d="M420.13 84.8627L418.384 95.0986C418.384 95.0986 423.592 100.969 428.71 96.5738C433.828 92.2085 434.551 90.1914 434.551 90.1914L432.022 76.2224L420.13 84.8627Z" fill="#FFAD97"/>
<path d="M427.325 60.8683C422.96 57.5567 412.634 56.4729 408.87 67.1603C404.927 78.3596 415.042 92.3286 420.431 89.9503C423.441 88.6256 429.824 83.8991 431.6 77.9984C433.617 71.3751 430.727 63.4272 427.325 60.8683Z" fill="#FFC5B3"/>
<path d="M407.967 70.7128C409.774 72.5493 412.393 74.5965 417.812 73.6933C422.237 72.9708 425.399 70.8935 425.399 70.8935L426.302 76.8243C426.302 76.8243 427.175 76.6738 427.867 76.2523C427.958 73.904 428.801 73.1815 430.095 73.8739C431.54 74.6567 431.6 77.9984 431.6 77.9984C431.6 77.9984 435.996 73.7535 434.521 67.04C433.587 62.8854 427.958 54.6365 420.1 55.359C412.242 56.0815 407.696 61.2898 406.703 65.7755C406.251 68.0334 407.155 69.8699 407.967 70.7128Z" fill="#FFD9B7"/>
<path d="M416.939 106.538C416.668 106.689 416.397 106.9 416.126 107.08C416.006 107.11 415.916 107.171 415.795 107.261C415.765 107.291 415.735 107.351 415.675 107.381C413.898 108.736 412.483 110.663 411.46 112.891C407.426 120.206 406.372 130.352 410.737 137.035C412.935 140.407 417.3 140.257 420.642 138.721C425.369 136.584 427.988 131.857 428.831 126.92C429.915 120.688 427.898 100.397 416.939 106.538Z" fill="white"/>
<path d="M428.65 134.567C427.446 135.5 425.85 137.908 424.465 138.541C415.645 142.635 417.09 133.302 417.09 133.302C419.98 132.73 424.345 130.412 424.736 127.372C424.797 126.86 424.405 126.438 424.044 126.137C422.027 124.632 418.685 126.348 416.969 127.642C416.006 128.365 415.223 129.208 414.621 130.201C412.544 129.87 411.008 128.335 411.55 125.174C411.701 124.241 412.152 123.367 412.724 122.555C418.474 124.09 428.048 119.544 425.67 115.239C423.954 112.138 417.902 115.329 416.096 116.383C415.283 116.835 414.501 117.376 413.748 117.979C413.688 117.738 411.55 113.433 414.41 111.265C418.956 107.863 429.945 105.033 429.614 105.003C423.352 104.612 404.475 110.151 409.202 119.905C409.503 120.538 409.955 120.989 410.436 121.411C409.262 123.157 408.54 125.144 408.78 127.341C409.112 130.292 410.978 132.399 413.477 133.152C413.296 134.206 413.296 135.289 413.537 136.373C415.765 145.766 426.121 141.16 430.125 136.042C430.968 134.988 429.734 133.754 428.65 134.567ZM418.806 117.678C420.492 116.804 424.556 114.697 423.773 117.678C423.231 119.755 416.969 121.531 414.591 120.507C415.915 119.333 417.481 118.37 418.806 117.678Z" fill="#33211F"/>
<path d="M433.858 151.426C433.858 151.426 433.949 157.056 437.291 159.735C440.662 162.415 446.714 165.425 446.714 165.425C446.714 165.425 447.045 156.785 443.944 151.185C440.813 145.616 433.858 151.426 433.858 151.426Z" fill="#043B6E"/>
<path d="M432.715 147.633C431.721 147.934 430.938 148.145 430.517 148.235C428.108 148.687 418.234 144.803 416.217 146.429C415.012 147.422 420.492 150.794 420.492 150.794C420.492 150.794 414.38 152.48 411.279 153.985C407.847 155.641 410.768 159.013 416.397 159.675C420.943 160.217 429.433 156.875 431.48 155.972C432.082 155.701 433.106 153.835 434.129 153.564C434.28 150.975 432.805 150.222 432.715 147.633Z" fill="#FFC5B3"/>
<path d="M427.205 148.446C430.487 147.814 438.405 145.586 441.656 143.207C445.028 140.739 444.426 139.083 444.064 137.788C442.619 132.64 438.736 120.086 438.736 120.086L452.976 116.745C452.976 116.745 455.203 126.047 455.956 134.085C456.528 140.046 456.077 148.476 448.761 152.028C445.54 153.594 429.554 156.785 429.554 156.785L427.205 148.446Z" fill="#FFC5B3"/>
<path d="M441.535 94.5264C437.501 93.7437 435.755 102.294 435.093 108.857C434.4 115.39 436.327 123.067 436.327 123.067C436.327 123.067 440.391 124.451 444.967 123.548C449.031 122.765 455.143 119.604 455.143 119.604C455.143 119.604 455.414 97.266 441.535 94.5264Z" fill="#B3160D"/>
<path d="M442.529 92.1482C439.428 91.1246 436.297 94.3158 433.859 100.457C431.42 106.599 430.005 117.798 433.859 125.264C437.351 132.038 442.649 132.911 442.649 132.911L440.933 127.613C440.933 127.613 435.213 125.596 435.093 115.179C434.942 102.083 444.516 95.5201 444.516 95.5201C444.516 95.5201 443.884 92.5998 442.529 92.1482Z" fill="#33211F"/>
<path d="M404.024 114.427C404.024 114.427 404.505 97.1158 407.937 91.2452C411.129 85.7961 414.019 88.054 414.019 88.054L404.024 114.427Z" fill="#33211F"/>
<path d="M46.8872 118.014C47.1523 136.039 48.7132 162.517 48.7132 162.517L52.0414 162.694C52.0414 162.694 51.0695 140.045 50.6277 122.933C49.4201 121.283 48.242 119.575 46.8872 118.014Z" fill="#33211F"/>
<path d="M33.2214 55.5446C34.6646 56.546 40.0839 57.783 41.586 69.7408C42.9408 80.3143 40.5846 83.0534 38.464 83.9665C37.2859 84.4672 33.0447 84.4377 33.0447 84.4377L33.2214 93.3619C33.2214 93.3619 27.9788 95.4236 22.9718 93.3619C17.9649 91.3002 17.9649 91.3002 17.9649 91.3002C17.9649 91.3002 19.9382 87.9131 19.5848 82.0521C19.1724 74.8067 16.61 64.4688 18.4361 60.6104C21.7054 53.6596 29.2747 52.8055 33.2214 55.5446Z" fill="#FFC5B3"/>
<path d="M15.2847 85.7039C15.2847 85.7039 29.5693 89.8272 33.2214 91.0643C36.6674 92.2424 39.4359 94.5986 43.0292 101.815C46.6224 109.03 43.9717 119.987 43.9717 119.987L43.8244 139.809C43.8244 139.809 35.4304 148.792 28.774 149.41C19.7026 150.294 15.2847 141.959 15.2847 141.959C15.2847 141.959 7.12627 119.987 9.01125 107.911C10.7195 96.9254 15.2847 85.7039 15.2847 85.7039Z" fill="#F9AFAB"/>
<path d="M41.9984 65.6466C41.6155 69.7406 38.2579 70.9776 35.2537 74.0996C32.2495 77.2216 31.955 81.4333 31.0419 84.2019C30.1289 86.9999 31.3954 99.4584 26.8302 108.824C21.9705 118.838 15.7265 120.988 15.7265 120.988C15.7265 120.988 7.0674 107.646 3.97487 91.4767C0.882328 75.3071 12.0449 54.2779 24.0911 51.745C36.8736 49.0648 42.7641 57.2232 41.9984 65.6466Z" fill="#743E20"/>
<path d="M67.9754 124.582C64.9418 126.408 55.1635 128.735 55.1635 128.735C55.1635 128.735 43.6475 95.8656 37.9925 95.3354C35.0473 95.0409 31.3951 102.64 31.6896 109.355C32.0725 117.955 44.9434 134.596 51.6292 140.516C54.4566 143.019 65.0302 136.451 71.0974 132.063C72.2461 129.177 68.3289 124.847 67.9754 124.582Z" fill="#FFC5B3"/>
<path d="M25.387 51.5095C25.387 51.5095 33.7515 51.2444 33.9872 62.5248C34.1933 72.6271 35.2536 74.0998 35.2536 74.0998C35.2536 74.0998 38.0222 71.7141 38.0222 67.0017C37.9927 59.1378 38.1105 48.417 25.387 51.5095Z" fill="#F9AFAB"/>
<path d="M38.4641 71.5076C38.4641 71.5076 35.3421 66.1472 33.9873 71.5076C32.7208 76.4852 37.0798 78.164 37.0798 78.164L38.4641 71.5076Z" fill="#FFC5B3"/>
<path d="M15.3436 143.284C15.3436 143.284 10.6017 158.835 12.9873 170.823C15.6675 184.165 19.143 194.385 18.5245 202.867C17.8765 211.32 16.4922 229.198 18.171 246.693C24.5034 247.842 27.3603 245.603 27.3603 245.603C27.3603 245.603 34.1344 194.444 33.5748 191.646C33.0447 188.848 35.5482 146.171 35.5482 146.171L15.3436 143.284Z" fill="#17AECE"/>
<path d="M34.2229 254.91C34.2229 254.91 39.8484 258.386 44.5314 254.851C47.9773 229.169 52.1596 216.533 52.0713 199.362C52.0418 196.152 44.3841 143.019 44.3841 143.019L26.8892 145.317C26.8892 145.317 33.2215 196.181 33.6338 200.894C33.9873 205.577 34.2229 254.91 34.2229 254.91Z" fill="#17AECE"/>
<path d="M14.7251 145.522C14.7251 145.522 25.063 149.616 32.9858 147.849C42.0573 145.817 44.3546 142.989 44.3546 142.989L43.795 139.809C43.795 139.809 35.9311 144.256 29.0686 144.05C21.5876 143.814 15.2553 141.959 15.2553 141.959L14.7251 145.522Z" fill="#055B9B"/>
<path d="M41.056 72.2736C40.5553 75.6607 37.9635 78.1052 35.2243 77.6929C32.4852 77.31 30.6886 74.2175 31.1599 70.8304C31.6606 67.4433 34.2524 64.9988 36.9915 65.4111C39.7306 65.8234 41.5567 68.8865 41.056 72.2736Z" fill="#F9AFAB"/>
<path d="M40.29 71.8026C39.9365 74.2177 38.081 75.926 36.1666 75.6609C34.2227 75.3958 32.9562 73.2163 33.2802 70.8012C33.6336 68.3861 35.4892 66.6778 37.4036 66.9429C39.3475 67.2079 40.6139 69.3875 40.29 71.8026Z" fill="white"/>
<path d="M37.433 93.3616C37.433 93.3616 30.3643 93.3616 29.8931 107.941C29.3924 123.492 31.6897 162.517 31.6897 162.517L35.0179 162.693C35.0179 162.693 32.7206 108.854 33.5747 104.436C35.0179 97.0726 40.2016 96.8959 40.2016 96.8959L37.433 93.3616Z" fill="#33211F"/>
<path d="M33.7513 160.131C34.1636 159.955 51.4818 154.977 51.4818 154.977C51.4818 154.977 56.6066 165.845 53.8675 172.295C51.688 177.391 36.7849 181.691 31.6896 178.922C25.8874 175.771 31.5423 160.131 31.5423 160.131H33.7513Z" fill="#33211F"/>
<path d="M67.9756 124.582C67.9756 124.582 73.2477 115.893 76.1635 114.597C83.5562 111.328 86.9432 110.974 83.674 118.19C79.2266 128.028 71.0976 132.033 71.0976 132.033L67.9756 124.582Z" fill="#FFC5B3"/>
<path d="M34.9885 161.957C34.9885 161.957 34.4289 168.289 38.405 170.44C42.2928 172.531 50.9813 170.263 52.0416 166.581C53.1314 162.9 51.482 157.51 51.482 157.51L34.9885 161.957Z" fill="#513433"/>
<path d="M43.9714 168.643L47.6825 167.347C47.6825 167.347 49.5086 171.411 46.74 172.324C43.9714 173.237 43.9714 168.643 43.9714 168.643Z" fill="white"/>
</svg>
