<svg width="9" height="12" viewBox="0 0 9 12" fill="none" xmlns="http://www.w3.org/2000/svg">
<path d="M4.46019 2.82117C4.78482 2.82117 5.10216 2.91743 5.37209 3.09779C5.64201 3.27814 5.85239 3.53449 5.97662 3.83441C6.10085 4.13434 6.13336 4.46436 6.07002 4.78276C6.00669 5.10115 5.85037 5.39362 5.62082 5.62317C5.39126 5.85272 5.0988 6.00904 4.78041 6.07237C4.46201 6.13571 4.13198 6.1032 3.83206 5.97897C3.53214 5.85474 3.27579 5.64436 3.09544 5.37444C2.91508 5.10452 2.81882 4.78717 2.81882 4.46254C2.81931 4.02737 2.9924 3.61017 3.30011 3.30246C3.60782 2.99475 4.02502 2.82166 4.46019 2.82117ZM4.46019 5.28323C4.62251 5.28323 4.78118 5.23509 4.91614 5.14492C5.0511 5.05474 5.15629 4.92656 5.2184 4.7766C5.28052 4.62664 5.29677 4.46163 5.26511 4.30243C5.23344 4.14323 5.15528 3.997 5.0405 3.88223C4.92573 3.76745 4.77949 3.68929 4.6203 3.65762C4.4611 3.62596 4.29609 3.64221 4.14613 3.70432C3.99617 3.76644 3.86799 3.87163 3.77781 4.00659C3.68763 4.14155 3.6395 4.30022 3.6395 4.46254C3.63975 4.68012 3.7263 4.88872 3.88015 5.04258C4.03401 5.19643 4.24261 5.28297 4.46019 5.28323Z" fill="#666666"/>
<path d="M1.30628 1.30605C2.08612 0.526408 3.12711 0.0632693 4.22834 0.00601962C5.32957 -0.0512301 6.41298 0.301468 7.26946 0.996042C8.12594 1.69062 8.69477 2.67783 8.86618 3.76714C9.03759 4.85646 8.79942 5.97065 8.19763 6.89469L5.0968 11.655C5.02779 11.7609 4.93344 11.848 4.8223 11.9082C4.71116 11.9684 4.58674 12 4.46032 12C4.3339 12 4.20948 11.9684 4.09833 11.9082C3.98719 11.848 3.89284 11.7609 3.82384 11.655L0.722898 6.89469C0.164513 6.03751 -0.0822554 5.01444 0.0239563 3.99696C0.130167 2.97948 0.582903 2.02943 1.30628 1.30605ZM1.41053 6.44673L4.4603 11.1285L7.5101 6.44673C8.44363 5.01363 8.24341 3.09579 7.03403 1.88635C6.69605 1.54836 6.2948 1.28025 5.8532 1.09733C5.4116 0.914407 4.93829 0.820259 4.4603 0.820259C3.98232 0.820259 3.50901 0.914407 3.06741 1.09733C2.62581 1.28025 2.22456 1.54836 1.88658 1.88635C0.677197 3.09579 0.477 5.01363 1.41053 6.44673Z" fill="#666666"/>
</svg>
